<?xml version="1.0" standalone="no"?>
<!DOCTYPE svg PUBLIC "-//W3C//DTD SVG 1.1//EN" "http://www.w3.org/Graphics/SVG/1.1/DTD/svg11.dtd" >
<svg xmlns="http://www.w3.org/2000/svg" xmlns:xlink="http://www.w3.org/1999/xlink" version="1.1">
<metadata>
Created by FontForge 20150318 at Thu Nov 12 02:13:51 2015
 By uniteet7
Copyright (c) 2013 by Lucas Sharp. All rights reserved.
</metadata>
<defs>
<font id="Ogg-Italic" horiz-adv-x="809" >
  <font-face 
    font-family="Ogg"
    font-weight="400"
    font-style="italic"
    font-stretch="normal"
    units-per-em="1000"
    panose-1="0 0 0 0 0 0 0 0 0 0"
    ascent="750"
    descent="-250"
    x-height="506"
    cap-height="829"
    bbox="-516.294 -408.201 1995.32 1135"
    underline-thickness="50"
    underline-position="-50"
    unicode-range="U+0020-FA54"
  />
<missing-glyph horiz-adv-x="850" 
d="M674 584l-239 -239l239 -239l-10 -10l-239 239l-239 -239l-10 10l239 239l-239 239l10 10l239 -239l239 239zM94 14h662v662h-662v-662zM80 0v690h690v-690h-690z" />
    <glyph glyph-name="ff" unicode="ff" horiz-adv-x="681" 
d="M66 -226c49 0 76 12 182 203c48 89 163 318 248 477h-210c-89 -168 -166 -324 -249 -471c-17 -30 -35 -57 -54 -81c3 -71 34 -128 83 -128zM214 454h-62c-8 3 -8 6 -3 9l101 57c17 31 32 57 43 74c112 176 241 295 382 295c35 0 61 -4 88 -15c18 -5 -16 -59 -44 -59
c-34 0 -99 33 -141 33c-61 0 -91 -31 -214 -251l-52 -93h211c21 39 39 70 52 90c113 180 270 303 438 303c56 0 121 -8 157 -23c19 -8 -24 -58 -51 -58c-56 0 -115 39 -211 39c-89 0 -136 -38 -262 -258l-52 -93c101 0 174 10 182 7c11 -3 -38 -63 -56 -63
c-6 0 -76 5 -153 5c-88 -167 -165 -325 -248 -470c-90 -165 -221 -230 -292 -230c-59 0 -100 38 -100 85v4c-68 -63 -136 -89 -183 -89c-65 0 -101 33 -101 80c0 40 29 75 68 82c-3 -19 0 -47 4 -66c8 -36 33 -75 69 -75c49 0 76 12 182 203c48 89 163 318 248 477z" />
    <glyph glyph-name="ffi" unicode="ffi" horiz-adv-x="970" 
d="M964 586l-7 6c99 96 203 204 265 277c13 15 39 -1 23 -17c-68 -68 -182 -167 -281 -266zM952 434c0 -39 -74 -131 -109 -187c-39 -63 -84 -125 -81 -162c1 -17 23 -30 43 -37c32 11 83 50 120 87l6 -7c-37 -36 -91 -86 -155 -125c-10 -5 -49 -5 -55 1
c-25 19 -40 54 -41 74c-3 41 54 124 91 185c53 87 87 131 96 164c5 19 -15 41 -30 44c-25 -8 -87 -52 -124 -84l-7 5c35 35 115 93 165 125c11 7 22 8 33 3c23 -10 48 -62 48 -86zM504 454h-218c-89 -168 -166 -324 -249 -471c-17 -30 -35 -57 -54 -81
c3 -71 34 -128 83 -128c48 0 84 12 190 203c48 89 163 318 248 477zM578 848c-61 0 -91 -31 -214 -251l-52 -93h219c21 39 39 70 52 90c113 180 263 303 430 303c57 0 91 -3 119 -10c19 -5 -16 -63 -44 -63c-39 0 -121 25 -189 25c-89 0 -119 -33 -245 -252l-51 -93
c92 1 135 9 142 6c11 -3 -38 -63 -56 -63c-5 0 -51 3 -114 6c-88 -168 -167 -325 -248 -470c-90 -165 -228 -230 -300 -230c-59 0 -100 38 -100 85v4c-68 -63 -136 -89 -183 -89c-65 0 -101 33 -101 80c0 40 29 75 68 82c-3 -19 0 -47 4 -66c8 -36 33 -75 69 -75
c49 0 76 12 182 203c48 89 163 318 248 477h-63c-8 3 -8 6 -3 9l103 58c17 31 31 56 42 73c112 179 243 295 382 295c35 0 61 -4 88 -15c18 -5 -16 -59 -44 -59c-34 0 -99 33 -141 33z" />
    <glyph glyph-name="ffl" unicode="ffl" horiz-adv-x="936" 
d="M925 604c72 120 267 288 520 288c43 0 92 -1 116 -5c32 -5 -10 -70 -34 -70c-64 0 -155 17 -252 17c-98 0 -154 -20 -282 -238c-71 -116 -135 -232 -199 -348c-36 -67 -65 -121 -62 -158c1 -17 13 -33 33 -40c32 11 84 48 121 85l6 -7c-37 -36 -91 -86 -155 -125
c-11 -5 -44 -4 -49 1c-24 19 -31 60 -31 80c-3 40 35 115 69 176c74 135 170 299 199 344zM66 -226c57 0 87 12 193 203c48 88 164 319 249 478h-222c-89 -168 -166 -325 -249 -472c-17 -30 -35 -57 -54 -81c3 -71 34 -128 83 -128zM215 455h-65c-8 3 -8 6 -3 9l105 59
c16 31 30 54 41 71c112 176 241 295 382 295c35 0 61 -4 88 -15c18 -5 -16 -59 -44 -59c-34 0 -99 33 -141 33c-61 0 -91 -31 -214 -251c-19 -31 -34 -61 -51 -92h222c20 39 38 69 51 89c113 180 260 303 427 303c60 0 95 -4 123 -11c19 -5 -16 -63 -44 -63
c-39 0 -117 32 -184 32c-89 0 -125 -38 -251 -258c-19 -31 -34 -61 -51 -92c95 1 161 8 168 7c11 -3 -38 -63 -56 -63c-6 0 -68 2 -139 5c-89 -168 -166 -324 -249 -471c-91 -160 -226 -230 -303 -230c-59 0 -100 38 -100 85v4c-68 -63 -136 -89 -183 -89
c-65 0 -101 33 -101 80c0 40 29 75 68 82c-3 -19 0 -47 4 -66c8 -36 33 -75 69 -75c49 0 76 12 182 203c48 88 164 319 249 478z" />
    <glyph glyph-name="fi" unicode="fi" horiz-adv-x="690" 
d="M682 586l-7 6c99 96 203 204 265 277c13 15 39 -1 23 -17c-68 -68 -182 -167 -281 -266zM672 434c0 -39 -74 -131 -109 -187c-39 -63 -84 -125 -81 -162c1 -17 23 -30 43 -37c32 11 83 50 120 87l6 -7c-37 -36 -91 -86 -155 -125c-10 -5 -49 -5 -55 1
c-25 19 -40 54 -41 74c-3 41 54 124 91 185c53 87 87 131 96 164c5 19 -15 41 -30 44c-25 -8 -87 -52 -124 -84l-7 5c35 35 115 93 165 125c11 7 22 8 33 3c23 -10 48 -62 48 -86zM617 849c-88 0 -127 -32 -253 -252l-49 -89h7c63 0 123 7 130 5c11 -3 -37 -65 -56 -65
c-5 0 -52 1 -112 2c-88 -167 -166 -322 -247 -467c-90 -165 -221 -230 -293 -230c-65 0 -101 33 -101 80c0 40 29 75 68 82c-3 -19 0 -47 4 -66c8 -36 33 -75 69 -75c49 0 76 12 182 203c48 88 162 314 247 474h-61c-8 3 -8 9 -3 12l102 59c17 31 31 55 42 72
c113 180 270 303 438 303c57 0 91 -3 119 -10c19 -5 -16 -63 -44 -63c-39 0 -121 25 -189 25z" />
    <glyph glyph-name="fl" unicode="fl" horiz-adv-x="643" 
d="M632 604c72 120 267 288 520 288c43 0 92 -1 116 -5c32 -5 -10 -70 -34 -70c-64 0 -155 17 -252 17c-98 0 -154 -20 -282 -238c-71 -116 -135 -232 -199 -348c-36 -67 -65 -121 -62 -158c1 -17 13 -33 33 -40c32 11 84 48 121 85l6 -7c-37 -36 -91 -86 -155 -125
c-11 -5 -44 -4 -49 1c-24 19 -30 60 -30 80c-3 40 32 115 66 176c74 135 172 299 201 344zM293 594c113 180 270 303 438 303c57 0 80 -6 108 -11c19 -5 -16 -63 -44 -63c-38 0 -113 24 -180 24c-89 0 -125 -31 -251 -250l-49 -89h7c63 0 145 7 152 5c11 -3 -37 -65 -56 -65
c-5 0 -67 2 -134 2c-88 -167 -166 -322 -247 -467c-90 -165 -221 -230 -293 -230c-65 0 -101 33 -101 80c0 40 29 75 68 82c-3 -19 0 -47 4 -66c8 -36 33 -75 69 -75c49 0 76 12 182 203c48 88 162 314 247 474h-61c-8 3 -8 9 -3 12l102 59c17 31 31 55 42 72z" />
    <glyph glyph-name=".notdef" horiz-adv-x="850" 
d="M674 584l-239 -239l239 -239l-10 -10l-239 239l-239 -239l-10 10l239 239l-239 239l10 10l239 -239l239 239zM94 14h662v662h-662v-662zM80 0v690h690v-690h-690z" />
    <glyph glyph-name="NULL" horiz-adv-x="0" 
 />
    <glyph glyph-name="CR" horiz-adv-x="333" 
 />
    <glyph glyph-name="space" unicode=" " horiz-adv-x="290" 
 />
    <glyph glyph-name="exclam" unicode="!" horiz-adv-x="305" 
d="M403 857c10 21 85 6 77 -10c-32 -72 -89 -171 -124 -232c-69 -120 -139 -224 -238 -435l-9 2c101 211 148 327 196 450c29 75 63 161 98 225zM10 7c-11 16 8 76 29 87c7 4 26 7 42 7s35 -5 38 -10c3 -31 -13 -74 -31 -86c-6 -4 -18 -6 -37 -6s-34 1 -41 8z" />
    <glyph glyph-name="quotedbl" unicode="&#x22;" horiz-adv-x="289" 
d="M392 710c21 0 26 -18 18 -34c-8 -19 -100 -150 -148 -254c-4 -9 -12 -7 -8 2c51 104 94 244 102 263c7 15 19 23 36 23zM266 709c21 0 26 -18 18 -34c-8 -19 -100 -150 -148 -254c-4 -9 -12 -7 -8 2c51 104 94 244 102 263c7 15 19 23 36 23z" />
    <glyph glyph-name="numbersign" unicode="#" 
d="M441 479c-53 0 -94 -1 -130 -1c-1 -35 -1 -72 -1 -127v-124h252c1 33 2 70 2 123c0 55 0 93 -1 128c-35 1 -75 1 -122 1zM573 351v-124c80 1 138 2 203 5c9 -12 9 -12 6 -27c-72 5 -130 9 -209 12c0 -58 1 -102 4 -203c-13 -11 -12 -13 -25 -10c3 107 7 152 10 214
c-35 1 -74 1 -121 1c-53 0 -95 -1 -131 -1c0 -59 1 -102 4 -204c-13 -11 -12 -13 -25 -10c3 106 7 152 10 213c-67 0 -118 -3 -195 -6c-11 13 -13 12 -10 25c80 -5 136 -9 205 -9c1 33 2 70 2 123c0 55 0 93 -1 128c-68 0 -118 -3 -196 -6c-11 13 -13 12 -10 25
c81 -5 135 -8 206 -9l-3 193c12 9 12 9 27 6c-5 -93 -9 -137 -12 -199c36 -1 76 -1 128 -1h123l-3 194c12 9 12 9 27 6c-5 -92 -9 -138 -12 -200c79 1 136 2 201 5c9 -12 9 -12 6 -27c-72 5 -129 9 -208 12c-1 -33 -1 -73 -1 -126z" />
    <glyph glyph-name="dollar" unicode="$" horiz-adv-x="701" 
d="M481 673c-117 0 -181 -29 -212 -94c-37 -76 51 -130 144 -186c41 91 86 187 127 275c-19 3 -38 5 -59 5zM317 2c86 0 175 18 212 95c43 96 -45 157 -140 218c-43 -92 -92 -202 -139 -306c21 -5 43 -7 67 -7zM127 306l7 -2c-32 -75 -40 -105 -40 -154
c0 -62 60 -112 137 -136c52 105 106 215 149 306c-104 67 -213 130 -160 234c43 88 144 128 261 128c21 0 43 -2 63 -5l55 120c15 5 17 1 28 -7c-20 -36 -41 -75 -62 -116c84 -15 153 -51 200 -88l-120 -210l-7 4c40 69 45 104 45 158c1 56 -43 106 -123 126
c-47 -89 -94 -185 -137 -277c104 -64 214 -138 158 -257c-48 -103 -158 -138 -263 -138c-25 0 -49 2 -73 5c-27 -56 -49 -110 -70 -157c-16 -5 -20 -3 -31 5l79 155c-99 17 -184 57 -221 94z" />
    <glyph glyph-name="percent" unicode="%" horiz-adv-x="839" 
d="M276 405c27 0 45 1 66 9c31 32 47 71 60 118c23 88 -12 138 -76 138c-27 0 -50 -5 -65 -12c-28 -28 -49 -65 -64 -120c-20 -77 11 -133 79 -133zM454 538c-15 -56 -58 -102 -111 -129c-16 -8 -66 -33 -93 -33c-92 0 -125 79 -104 156c15 59 60 103 111 130
c27 15 64 33 99 33c84 0 122 -68 98 -157zM559 22c27 0 45 1 66 9c31 32 47 71 60 118c23 88 -12 138 -76 138c-27 0 -50 -5 -65 -12c-28 -28 -49 -65 -64 -120c-20 -77 11 -133 79 -133zM737 155c-15 -56 -58 -102 -111 -129c-16 -8 -66 -33 -93 -33
c-92 0 -125 79 -104 156c15 59 60 103 111 130c27 15 64 33 99 33c84 0 122 -68 98 -157zM443 340c-120 -107 -259 -235 -379 -342c-15 -3 -21 9 -30 14c133 111 273 223 398 330c123 107 302 273 402 363c16 3 16 -12 25 -16c-118 -96 -294 -243 -416 -349z" />
    <glyph glyph-name="ampersand" unicode="&#x26;" horiz-adv-x="1092" 
d="M486 179c-56 81 -104 176 -131 260c-141 -21 -208 -93 -238 -144c-53 -97 67 -280 169 -280c83 0 147 74 200 164zM231 -38c-134 4 -240 205 -172 309c48 70 155 144 291 184c-11 41 -17 78 -16 111c0 59 55 136 115 194c39 37 105 71 185 71c69 0 129 -33 156 -72
c-49 -56 -95 -111 -136 -170l-7 4c43 59 72 102 87 127c-27 39 -77 70 -153 70c-61 0 -111 -15 -146 -54c-28 -27 -43 -68 -44 -121c-8 -183 250 -585 381 -585c61 0 106 47 145 162c37 108 48 257 -164 257c-30 0 -79 -4 -95 -7c-11 -3 -10 6 5 25c23 27 29 47 44 47
c11 0 164 2 215 5c106 8 163 23 215 47c9 3 11 0 2 -8c-12 -12 -130 -105 -140 -105h-23c-83 3 -140 13 -197 13c-7 0 -4 0 3 -1c174 -35 255 -173 212 -285c-37 -93 -178 -146 -283 -202c-62 8 -147 88 -219 193c-56 -93 -140 -182 -261 -209z" />
    <glyph glyph-name="quotesingle" unicode="'" horiz-adv-x="164" 
d="M266 709c21 0 26 -18 18 -34c-8 -19 -100 -150 -148 -254c-4 -9 -12 -7 -8 2c51 104 94 244 102 263c7 15 19 23 36 23z" />
    <glyph glyph-name="parenleft" unicode="(" horiz-adv-x="400" 
d="M182 327c96 211 273 371 471 462c11 7 18 -2 6 -9c-200 -93 -353 -255 -449 -460c-92 -203 -118 -436 -22 -583c5 -7 -7 -15 -11 -8c-98 146 -93 388 5 598z" />
    <glyph glyph-name="parenright" unicode=")" horiz-adv-x="400" 
d="M201 191c-96 -211 -273 -371 -471 -462c-11 -7 -18 2 -6 9c200 93 353 255 449 460c93 202 118 437 22 583c-5 7 7 15 11 8c98 -146 93 -388 -5 -598z" />
    <glyph glyph-name="asterisk" unicode="*" horiz-adv-x="351" 
d="M163 453c0 3 56 59 72 91c-33 -5 -107 -34 -110 -34c-27 -3 -45 13 -48 24c3 11 16 28 44 31c5 0 79 -21 114 -18c-21 28 -82 76 -85 79c-16 24 -10 46 -2 53c9 7 33 2 48 -22c3 -3 24 -76 42 -107c14 33 25 107 27 112c11 27 35 32 44 29c8 -4 18 -27 6 -52
c-3 -5 -57 -59 -73 -91c34 3 109 34 111 34c27 3 45 -14 48 -25c-3 -9 -16 -27 -44 -30c-5 0 -79 20 -115 17c18 -29 85 -77 86 -78c16 -24 10 -47 1 -54c-8 -5 -32 -1 -47 23c-3 3 -24 76 -43 106c-13 -32 -23 -108 -26 -111c-11 -27 -35 -32 -44 -29c-8 4 -18 27 -6 52z
" />
    <glyph glyph-name="plus" unicode="+" horiz-adv-x="558" 
d="M263 416c5 7 20 7 24 0c-5 -53 -7 -88 -7 -165c75 0 115 3 163 6c7 -5 7 -20 0 -24c-54 3 -88 7 -163 7c0 -77 2 -113 7 -164c-4 -7 -19 -7 -24 0c3 48 3 88 3 164c-76 0 -111 -4 -163 -7c-7 4 -7 19 0 24c47 -3 87 -6 163 -6c0 77 0 118 -3 165z" />
    <glyph glyph-name="comma" unicode="," horiz-adv-x="247" 
d="M91 33h-2c-11 -15 -36 -34 -53 -34c-11 0 -18 2 -26 13c-8 16 11 64 28 78c7 5 30 9 46 9s36 -4 43 -13c8 -11 6 -39 -5 -58c-33 -62 -109 -96 -154 -114c-3 -1 -5 2 -2 3c43 21 97 65 125 116z" />
    <glyph glyph-name="hyphen" unicode="-" horiz-adv-x="538" 
d="M273 251c83 0 152 3 201 6c7 -5 1 -20 -6 -24c-55 4 -119 7 -200 7s-145 -3 -200 -7c-7 4 -1 19 6 24c49 -3 119 -6 199 -6z" />
    <glyph glyph-name="period" unicode="." horiz-adv-x="247" 
d="M12 7c-11 16 8 76 29 87c7 4 26 7 42 7s35 -5 38 -10c3 -31 -13 -74 -31 -86c-6 -4 -18 -6 -37 -6s-34 1 -41 8z" />
    <glyph glyph-name="slash" unicode="/" horiz-adv-x="356" 
d="M219 313c-96 -143 -263 -392 -356 -539c-19 -1 -19 -5 -28 6c107 148 275 392 373 541c94 145 244 375 323 499c19 1 17 0 28 -9c-96 -127 -244 -352 -340 -498z" />
    <glyph glyph-name="zero" unicode="0" horiz-adv-x="912" 
d="M470 34c73 35 140 59 260 267c72 128 79 277 34 344c-31 47 -97 70 -161 70c-25 0 -56 -5 -77 -16c-73 -35 -162 -82 -282 -291c-66 -119 -67 -253 -20 -318c26 -42 104 -69 164 -69c36 0 65 6 82 13zM520 706c39 18 137 38 178 38c53 0 114 -28 135 -68
c49 -71 59 -212 -27 -359c-98 -165 -261 -259 -334 -291c-37 -13 -132 -40 -173 -40c-53 0 -126 28 -147 65c-45 64 -73 190 15 339c98 165 280 284 353 316z" />
    <glyph glyph-name="one" unicode="1" horiz-adv-x="381" 
d="M250 609c95 43 172 88 228 129c11 8 14 11 21 8s9 -7 4 -14c-21 -42 -330 -583 -362 -646c-32 -60 -18 -80 62 -80c5 0 6 -6 -1 -6c-26 0 -125 4 -146 4s-121 -4 -139 -4c-5 0 -3 6 2 6c68 0 111 29 155 100c27 43 284 491 294 517c7 15 6 23 -4 23
c-13 0 -37 -8 -109 -43c-8 -4 -12 3 -5 6z" />
    <glyph glyph-name="two" unicode="2" horiz-adv-x="795" 
d="M311 0c-163 0 -344 -4 -355 -4c-5 0 -10 14 -3 17c415 210 685 361 741 491c48 112 -16 204 -157 204c-121 0 -182 -62 -227 -203c-11 -32 -22 -53 -57 -53c-36 0 -41 20 -22 63c51 108 205 216 369 216c138 0 231 -92 178 -224c-51 -118 -336 -229 -680 -442l168 1
c264 0 316 44 399 148c5 7 11 3 6 -4c-19 -27 -80 -131 -117 -184c-11 -17 -18 -22 -29 -23c-23 -3 -147 -3 -214 -3z" />
    <glyph glyph-name="three" unicode="3" horiz-adv-x="733" 
d="M24 151c17 52 89 94 158 107c7 1 6 -4 2 -5c-36 -7 -72 -26 -87 -73c-21 -108 95 -169 199 -169c96 0 190 56 230 129c67 128 11 284 -132 284c-74 0 -122 -57 -154 -57c-13 0 -20 6 -20 17c0 13 10 21 29 24c215 35 339 60 386 139c56 91 4 193 -100 193
c-96 0 -152 -46 -181 -138c-11 -32 -19 -52 -50 -52s-42 22 -25 53c59 107 208 151 303 148c120 0 201 -100 137 -206c-45 -71 -155 -81 -310 -116c24 3 53 7 72 7c125 0 204 -123 108 -273c-56 -91 -252 -188 -375 -188c-114 0 -219 67 -190 176z" />
    <glyph glyph-name="four" unicode="4" horiz-adv-x="741" 
d="M600 643c4 7 7 17 4 17c-4 0 -23 -12 -36 -23l-374 -265c-15 -11 -38 -27 -55 -43c17 -4 46 -4 81 -4h196c72 125 155 265 184 318zM275 4c-45 0 -137 -4 -155 -4c-7 0 -6 6 1 6c81 0 119 28 164 97c9 15 49 83 100 168c-79 0 -160 1 -224 1c-37 0 -72 0 -107 1
c-5 0 -7 10 -2 13c179 117 480 331 643 456c11 9 19 10 24 7c6 -4 6 -11 -1 -22c-16 -24 -134 -228 -231 -401h66c98 0 128 22 181 98c4 5 14 -1 9 -6c-16 -19 -40 -51 -63 -82c-13 -17 -26 -36 -40 -55c-7 -8 -10 -10 -25 -10h-159c-49 -88 -87 -157 -98 -177
c-26 -52 -26 -88 71 -88c5 0 6 -6 -1 -6c-26 0 -109 4 -153 4z" />
    <glyph glyph-name="five" unicode="5" horiz-adv-x="720" 
d="M180 -25c-112 0 -204 56 -172 162c16 59 114 115 187 128c7 1 7 -6 3 -7c-64 -11 -110 -32 -123 -93c-24 -82 68 -147 182 -147c112 0 201 38 266 150c70 132 8 272 -131 272c-69 0 -126 -29 -186 -73c-12 -9 -31 -27 -46 -27c-12 0 -18 6 -18 18c0 11 12 22 31 22
c20 0 32 8 51 37l196 303c3 5 7 7 12 7h324c67 0 94 22 123 77c4 7 11 3 7 -4c-15 -25 -31 -56 -46 -83c-9 -15 -17 -31 -26 -47c-7 -11 -10 -12 -25 -12c-26 0 -345 4 -388 4c-5 0 -8 -2 -10 -5c-51 -75 -158 -238 -171 -262c-1 -3 -1 -4 2 -4c7 0 18 6 23 9
c40 22 116 68 216 68c131 0 218 -134 133 -275c-55 -92 -267 -218 -414 -218z" />
    <glyph glyph-name="six" unicode="6" horiz-adv-x="810" 
d="M211 296c-37 -79 -16 -164 16 -206c39 -56 99 -80 159 -80c43 0 62 6 81 14c52 22 94 53 139 147c32 72 14 167 -9 208c-48 69 -141 99 -240 61c-51 -21 -106 -55 -146 -144zM310 -20c-60 0 -118 27 -151 72c-37 53 -92 154 17 338c149 248 475 356 733 380
c16 1 17 -6 2 -9c-257 -24 -502 -109 -649 -349c-4 -7 -11 -17 -18 -32c32 26 68 48 109 66c47 21 111 43 179 43c64 0 115 -37 138 -80c19 -35 59 -135 -12 -246c-40 -69 -103 -107 -186 -144c-40 -18 -105 -39 -162 -39z" />
    <glyph glyph-name="seven" unicode="7" horiz-adv-x="686" 
d="M159 -91c-37 0 -46 35 -23 68c113 169 446 506 630 682h-346c-112 0 -161 -46 -209 -113c-3 -5 -12 2 -8 7c16 20 45 62 72 101c15 22 32 46 49 71c5 7 17 2 110 2h408l3 -10c-370 -342 -517 -493 -629 -752c-15 -35 -25 -56 -57 -56z" />
    <glyph glyph-name="eight" unicode="8" horiz-adv-x="724" 
d="M101 194c-19 -89 77 -171 218 -171c123 0 192 45 227 116c64 141 -81 191 -190 252c-137 -53 -235 -113 -255 -197zM256 558c34 90 220 189 344 189c145 0 207 -88 178 -171c-32 -74 -109 -114 -234 -167l-7 4c126 53 161 90 177 150c19 68 -44 148 -170 148
c-117 0 -206 -52 -234 -128c-63 -158 414 -162 296 -408c-35 -70 -209 -198 -354 -198c-161 0 -248 87 -218 189c27 94 184 171 313 230c-69 40 -123 84 -91 162z" />
    <glyph glyph-name="nine" unicode="9" horiz-adv-x="818" 
d="M691 411c38 81 24 187 -18 240c-39 50 -111 64 -174 64c-32 0 -60 -5 -88 -16c-54 -30 -87 -51 -128 -128c-37 -72 -26 -172 22 -233c32 -41 81 -68 153 -68c43 0 87 6 120 23c42 24 73 30 113 118zM641 313l8 12c-24 -16 -46 -28 -66 -39c-37 -21 -131 -56 -210 -56
c-63 0 -113 28 -144 68c-59 68 -56 164 -1 255c40 68 107 117 179 152c36 17 124 42 176 42c58 0 127 -32 159 -74c40 -54 95 -166 -31 -369c-123 -195 -377 -319 -505 -319c-120 0 -175 66 -148 149c16 49 64 72 115 84c4 1 4 -3 1 -4c-17 -8 -37 -27 -45 -55
c-24 -83 56 -138 158 -138c136 0 220 86 354 292z" />
    <glyph glyph-name="colon" unicode=":" horiz-adv-x="247" 
d="M129 412c-11 16 8 76 29 87c7 4 26 7 42 7s35 -5 38 -10c3 -31 -13 -74 -31 -86c-6 -4 -18 -6 -37 -6s-34 1 -41 8zM12 7c-11 16 8 76 29 87c7 4 26 7 42 7s35 -5 38 -10c3 -31 -13 -74 -31 -86c-6 -4 -18 -6 -37 -6s-34 1 -41 8z" />
    <glyph glyph-name="semicolon" unicode=";" horiz-adv-x="247" 
d="M91 33h-2c-11 -15 -36 -34 -53 -34c-11 0 -18 2 -26 13c-8 16 11 64 28 78c7 5 30 9 46 9s36 -4 43 -13c8 -11 6 -39 -5 -58c-33 -62 -109 -96 -154 -114c-3 -1 -5 2 -2 3c43 21 97 65 125 116zM129 412c-11 16 8 76 29 87c7 4 26 7 42 7s35 -5 38 -10
c3 -31 -13 -74 -31 -86c-6 -4 -18 -6 -37 -6s-34 1 -41 8z" />
    <glyph glyph-name="less" unicode="&#x3c;" horiz-adv-x="558" 
d="M273 181c72 -32 101 -43 150 -59c3 -8 0 -17 -7 -20c-43 22 -79 36 -150 68l-148 67c-3 0 -3 12 0 12c57 24 77 36 150 68c71 32 101 45 143 68c7 -5 10 -11 8 -20c-48 -16 -74 -28 -146 -60c-67 -29 -91 -41 -136 -62c46 -21 69 -30 136 -62z" />
    <glyph glyph-name="equal" unicode="=" horiz-adv-x="558" 
d="M275 162c-83 0 -110 2 -172 -1c-7 3 -9 14 -5 22c64 -8 95 -7 176 -7c82 0 123 1 171 4c7 -5 7 -16 3 -24c-54 8 -92 6 -173 6zM275 317c-83 0 -110 2 -172 -1c-7 5 -8 15 -5 22c64 -8 95 -7 176 -7c82 0 123 1 171 4c5 -7 6 -15 3 -24c-54 8 -92 6 -173 6z" />
    <glyph glyph-name="greater" unicode="&#x3e;" horiz-adv-x="558" 
d="M279 307c-72 32 -98 43 -146 59c-3 8 0 17 7 20c43 -21 75 -36 146 -68l148 -67c3 0 3 -12 0 -12c-57 -24 -77 -36 -150 -68c-71 -32 -104 -46 -146 -70c-7 5 -10 11 -8 20c48 16 77 30 149 62c67 29 90 40 135 61c-45 21 -69 31 -135 63z" />
    <glyph glyph-name="question" unicode="?" horiz-adv-x="599" 
d="M136 -1c-19 0 -34 1 -41 8c-11 16 8 76 29 87c7 4 26 7 42 7s35 -5 38 -10c3 -31 -13 -74 -31 -86c-6 -4 -18 -6 -37 -6zM168 708c29 93 166 137 272 134c205 0 303 -107 249 -231c-56 -128 -369 -174 -438 -283c-13 -21 -19 -38 -19 -61c1 -17 15 -38 35 -45
c32 15 84 48 132 87l6 -7c-45 -36 -99 -77 -167 -122c-9 -7 -50 -5 -55 0c-24 19 -35 62 -35 81c-1 35 11 63 28 90c77 118 385 163 445 291c42 95 -27 194 -181 194c-101 0 -179 -32 -198 -105c-14 -70 27 -124 97 -124c29 0 71 16 98 31l5 -6c-47 -24 -108 -56 -167 -56
c-79 0 -126 55 -107 132z" />
    <glyph glyph-name="at" unicode="@" horiz-adv-x="977" 
d="M358 60c40 12 196 171 280 287c-59 67 -76 85 -110 85c-60 0 -140 -83 -172 -187c-27 -85 -22 -157 2 -185zM788 -83l3 -2c-69 -69 -185 -135 -313 -135c-237 0 -428 138 -428 390c0 301 276 494 506 494c270 0 370 -201 370 -317c0 -193 -143 -346 -318 -346
c-11 0 -57 13 -62 18c-17 19 -26 54 -27 71c-3 42 39 121 70 173c-70 -83 -171 -183 -244 -245c-6 -6 -38 -5 -41 0c-42 32 -46 131 -11 216c56 137 204 222 281 222c43 0 56 -10 110 -67c11 11 44 42 60 61c4 3 7 4 9 3c1 -1 1 -2 2 -4c-56 -68 -173 -286 -169 -358
c0 -13 34 -66 50 -71c135 0 268 126 268 315c0 115 -100 314 -360 314c-223 0 -472 -185 -472 -453s187 -395 423 -395c110 0 229 63 293 116z" />
    <glyph glyph-name="A" unicode="A" horiz-adv-x="1349" 
d="M1062 782l-324 -387l249 -3c24 140 57 306 75 390zM338 373c-112 0 -173 -45 -216 -145c-45 -98 25 -251 169 -251c58 0 72 -3 249 198c31 33 84 102 153 183c-141 8 -271 15 -355 15zM1133 783h-15c-21 -104 -49 -263 -70 -391c76 -1 141 -1 188 -1s97 -1 121 -2
c19 0 -36 -49 -60 -52c-28 -5 -47 -3 -88 -3c-45 0 -103 2 -170 5l-19 -128c-11 -71 -1 -115 2 -130c4 -17 21 -26 40 -33c30 11 127 79 161 116l6 -7c-37 -34 -134 -118 -194 -154c-11 -5 -42 -4 -47 1c-24 19 -34 51 -35 70c-3 39 -9 64 2 131c5 33 12 81 23 137
c-85 4 -177 10 -269 15c-77 -95 -135 -166 -150 -181c-175 -197 -226 -236 -325 -236c-166 0 -238 191 -180 275c56 85 183 183 343 183c68 0 188 0 324 -3l324 389c-52 0 -115 -2 -171 -7c-107 -13 -193 -32 -214 -32c-19 0 48 59 55 71c16 8 120 8 163 8h182
c192 0 335 7 381 7c7 0 23 0 32 -3c0 -15 -18 -47 -43 -63c-33 -8 -242 18 -297 18z" />
    <glyph glyph-name="B" unicode="B" horiz-adv-x="1030" 
d="M362 49c49 -5 193 -11 313 0c126 11 169 37 201 117c36 82 8 196 -78 231c-51 8 -135 4 -194 -4c-80 -188 -153 -320 -242 -344zM857 438c52 31 92 77 105 129c21 98 -34 228 -265 228c-220 0 -380 -90 -473 -314c-16 -39 -38 -57 -74 -57c-39 0 -43 23 -19 62
c121 189 391 350 620 345c233 0 307 -127 267 -245c-22 -60 -92 -119 -149 -151c91 -40 98 -169 63 -244c-38 -78 -191 -193 -318 -193c-116 0 -196 2 -231 2c-192 3 -262 -3 -284 -3c-31 0 -51 5 -60 15c-3 24 24 64 49 81c38 13 205 -78 281 -34c59 48 99 187 168 354
c69 176 163 319 251 364l7 -2c-46 -23 -127 -232 -186 -371l-2 -4c88 21 173 31 250 38z" />
    <glyph glyph-name="C" unicode="C" horiz-adv-x="760" 
d="M702 111c-77 -93 -215 -202 -336 -202c-297 0 -386 334 -206 594c97 140 308 325 555 325c136 0 223 -66 243 -80c14 -11 -42 -46 -58 -46c-44 0 -134 92 -282 92c-160 0 -298 -121 -387 -258c-160 -252 -87 -573 190 -573c103 0 215 82 274 155c3 4 14 0 7 -7z" />
    <glyph glyph-name="D" unicode="D" horiz-adv-x="1138" 
d="M636 -2l-195 2c-192 3 -320 -3 -342 -3c-31 0 -51 5 -60 15c-3 24 24 64 49 81c37 12 226 -78 298 -26c75 51 99 171 171 346c70 177 158 313 246 358l7 -2c-47 -23 -123 -226 -182 -365c-83 -196 -163 -311 -255 -359c35 -3 220 -4 333 4c169 11 252 61 321 204
c112 239 -1 539 -363 539c-219 0 -347 -70 -430 -270c-9 -40 -38 -56 -74 -56c-39 0 -43 24 -19 61c104 161 359 309 573 304c381 0 498 -331 387 -546c-72 -131 -288 -287 -465 -287z" />
    <glyph glyph-name="E" unicode="E" horiz-adv-x="1066" 
d="M342 445c68 0 156 1 247 2c68 165 148 266 232 313c-73 19 -150 34 -217 34c-185 0 -304 -93 -400 -322c-9 -40 -38 -56 -73 -56c-40 0 -44 24 -20 61c121 188 321 351 592 351c96 0 206 -22 331 -53c132 -32 167 -45 173 -56c5 -11 -24 -47 -37 -50
c-14 0 -103 23 -199 50c-39 11 -89 25 -141 38c-45 -32 -110 -181 -166 -308c97 1 185 3 232 3s94 -2 115 -7c16 -3 -25 -58 -49 -61c-28 -5 -50 -4 -93 -1c-47 3 -129 14 -222 25c-77 -179 -165 -307 -249 -358c46 0 216 -4 308 7c107 11 211 27 233 27
c18 0 -48 -58 -56 -72c-12 -7 -140 -7 -182 -7h-182c-192 0 -392 -8 -413 -8c-31 0 -51 5 -60 15c-4 24 24 56 49 72c36 8 236 -68 307 -16c70 47 110 182 174 349c-80 9 -163 17 -238 20c-22 0 -5 8 4 8z" />
    <glyph glyph-name="F" unicode="F" horiz-adv-x="965" 
d="M140 416c-39 0 -43 24 -19 61c121 188 321 351 591 351c96 0 207 -22 332 -53c132 -32 166 -44 172 -56c5 -12 -25 -47 -36 -50c-14 0 -105 24 -200 50c-41 11 -90 25 -146 40c-58 -45 -115 -188 -171 -310c77 3 146 3 189 3c48 0 95 -2 116 -7c16 -3 -25 -52 -49 -55
c-28 -5 -50 -4 -93 -1c-44 3 -107 11 -182 20l-2 -5c-88 -196 -180 -329 -276 -380c-88 -45 -171 -59 -242 -59c-68 0 -95 5 -106 16c-6 22 25 55 45 67c36 8 237 -64 308 -13c74 50 125 203 202 378c0 1 1 2 2 5c-72 8 -150 15 -227 19c-23 0 -5 8 3 8c71 0 154 1 237 2
c68 149 138 259 238 314c-72 19 -148 33 -213 33c-184 0 -306 -93 -399 -322c-11 -40 -38 -56 -74 -56z" />
    <glyph glyph-name="G" unicode="G" horiz-adv-x="1016" 
d="M397 -2c-316 0 -359 331 -211 548c88 128 283 282 552 282c96 0 181 -14 306 -54c3 -1 5 -3 5 -6c0 -16 -50 -56 -66 -56c-7 0 -16 2 -29 6c-94 30 -207 76 -315 76c-183 0 -311 -110 -377 -216c-143 -231 -105 -533 204 -537c153 -3 314 85 410 330
c-27 4 -72 11 -140 12c-128 0 -275 -30 -303 -30c-19 0 32 56 57 66c12 7 121 5 163 5c128 0 232 5 253 5c25 0 66 -43 63 -64c-97 -137 -217 -374 -262 -476c-23 -50 -183 -99 -227 -115c-11 -3 -12 5 -3 9c45 17 92 35 127 86c24 37 120 188 178 297
c-120 -99 -272 -168 -385 -168z" />
    <glyph glyph-name="H" unicode="H" horiz-adv-x="1337" 
d="M383 417c-113 0 -193 -57 -237 -158c-58 -124 40 -313 199 -313c56 0 115 27 237 229c36 60 87 142 134 225c-125 9 -245 17 -333 17zM78 247c57 84 203 195 365 195c68 0 177 -2 296 -3c31 53 59 103 82 144c35 64 58 116 55 151c0 17 -12 32 -31 39
c-31 -10 -126 -81 -161 -116l-6 6c35 35 134 118 194 155c9 6 40 2 47 -1c23 -18 36 -57 36 -76c3 -38 -34 -111 -69 -169c-23 -39 -49 -86 -78 -134c119 -3 236 -4 325 -4c37 63 68 112 83 135c120 181 315 278 458 286c64 4 289 -36 313 -44c29 -8 -25 -55 -52 -55
c-53 0 -251 59 -344 59s-184 -37 -309 -245c-28 -45 -55 -91 -82 -136c115 0 187 -1 210 -2c22 0 -38 -50 -62 -53c-26 -5 -71 -3 -181 -3c-27 -47 -52 -92 -77 -139c-35 -64 -57 -115 -54 -151c1 -16 12 -31 32 -38c30 11 125 80 161 116l6 -7c-37 -34 -134 -118 -194 -154
c-9 -5 -44 -5 -47 1c-24 19 -36 56 -37 76c-3 40 37 107 69 169c23 41 48 84 73 127c-91 3 -203 11 -316 19c-58 -98 -118 -194 -134 -218c-121 -182 -300 -267 -350 -267c-175 0 -317 197 -221 337z" />
    <glyph glyph-name="I" unicode="I" horiz-adv-x="732" 
d="M464 421c90 194 163 319 271 367c-97 8 -316 -39 -344 -39c-19 0 30 54 56 65c16 8 119 6 164 6c126 0 335 9 355 9c32 0 52 -5 59 -14c3 -13 -20 -36 -45 -52c-37 -11 -200 51 -272 0c-74 -50 -87 -175 -164 -350c-88 -196 -192 -325 -283 -373c39 -15 293 40 362 36
c26 0 -9 -74 -72 -74l-139 3c-192 0 -368 -8 -390 -8c-31 0 -50 5 -59 15c0 15 29 42 49 48c24 8 101 -19 174 -19c43 0 77 4 105 27c70 56 96 177 173 353z" />
    <glyph glyph-name="J" unicode="J" horiz-adv-x="394" 
d="M563 780c-101 13 -290 -41 -341 -41c-17 0 32 62 59 70c15 7 33 12 161 12c122 0 176 10 230 10c17 0 -36 -59 -59 -59c-194 0 -244 -223 -324 -462c-145 -418 -163 -403 -480 -588c-27 -17 -37 -5 -6 12c260 148 302 255 418 608c80 231 164 361 342 438z" />
    <glyph glyph-name="K" unicode="K" horiz-adv-x="1116" 
d="M755 463l11 8c27 -149 78 -301 115 -360c21 -34 43 -55 68 -64c33 9 81 49 133 97l6 -4c-43 -40 -104 -103 -168 -137c-11 -5 -40 -4 -45 1c-24 19 -47 52 -58 71c-40 64 -88 212 -109 345c-83 -73 -161 -144 -217 -193c-52 -84 -111 -152 -175 -188
c-84 -47 -166 -61 -231 -61c-69 0 -101 9 -109 17c0 10 14 49 42 66c20 3 116 -34 196 -34c40 0 78 5 103 22c58 42 102 148 174 329c109 266 207 373 284 405c-101 13 -282 -37 -331 -37c-19 0 33 59 59 70c14 8 33 8 160 8c123 0 177 10 231 10c16 0 -38 -50 -60 -50
c-108 0 -134 -92 -254 -380c-23 -53 -46 -105 -74 -152c133 129 385 355 504 446c120 91 230 123 334 123c19 0 27 -6 27 -13c0 -17 -33 -63 -49 -63c-43 0 -99 8 -150 8c-39 0 -92 -21 -141 -57c-67 -48 -172 -139 -276 -233z" />
    <glyph glyph-name="L" unicode="L" horiz-adv-x="1008" 
d="M117 116c-65 0 -114 -28 -138 -92c-27 -67 46 -173 142 -173c70 0 119 38 183 179c-72 49 -139 86 -187 86zM991 12l8 -6c-24 -28 -50 -59 -69 -78c-75 -73 -131 -121 -230 -121c-96 0 -243 119 -373 207c-72 -115 -175 -214 -274 -214c-108 0 -174 107 -137 195
c27 67 150 149 263 149c41 0 93 -23 150 -55c56 141 116 374 183 516c72 163 221 250 420 250c70 0 187 -27 211 -38c29 -13 -31 -65 -48 -65c-57 0 -177 75 -275 75c-93 0 -135 -27 -226 -231c-71 -159 -143 -345 -221 -500c-4 -9 -9 -17 -13 -25
c136 -80 295 -200 413 -200c99 0 160 75 218 141z" />
    <glyph glyph-name="M" unicode="M" horiz-adv-x="1654" 
d="M1665 792c15 11 25 5 13 -8c-98 -124 -202 -381 -261 -547c-23 -64 -24 -115 -21 -151c1 -16 12 -31 32 -38c29 11 145 99 181 135l6 -6c-37 -35 -154 -138 -214 -174c-9 -5 -44 -5 -47 1c-24 19 -40 56 -41 76c-3 40 10 107 32 169c43 123 111 280 140 325
c16 29 32 56 51 83c-111 -107 -407 -390 -552 -547c-13 -16 -18 -78 -21 -99c-3 -9 -58 -11 -64 -2c-7 7 3 49 10 118c13 144 34 359 31 535c-143 -187 -383 -504 -472 -572c-58 -47 -141 -91 -213 -91c-59 0 -186 19 -194 32c-13 18 21 64 42 69c65 4 253 -85 354 -4
c107 83 319 372 482 579c-3 99 -12 185 -33 242c-7 15 -23 30 -42 37c-33 -11 -171 -119 -215 -154l-4 6c44 36 187 156 255 193c13 6 42 2 48 -1c20 -19 33 -54 45 -114c36 -191 8 -589 -12 -760c182 193 487 477 684 668z" />
    <glyph glyph-name="N" unicode="N" horiz-adv-x="947" 
d="M673 57c-17 -28 -34 -59 -41 -66s-18 -5 -19 2l-47 382c-16 135 -29 231 -42 300l-254 -379c-182 -270 -282 -452 -539 -452c-82 0 -199 36 -207 44c-9 11 43 61 66 69c20 6 135 -57 263 -57c132 0 224 130 406 400l263 390c-17 87 -36 126 -65 145c-10 6 -21 9 -34 9
s-26 -3 -41 -8c-33 -11 -178 -118 -222 -153l-6 7c43 35 199 156 267 193c20 12 78 19 104 8c55 -24 84 -158 121 -495l35 -302c97 160 198 322 291 455c168 243 266 296 394 296c79 0 206 -22 225 -27c3 -1 4 -2 4 -4c0 -12 -51 -62 -69 -62c-4 0 -8 0 -16 1
c-45 5 -161 36 -252 36c-81 0 -149 -65 -280 -252c-112 -159 -208 -319 -305 -480z" />
    <glyph glyph-name="O" unicode="O" horiz-adv-x="972" 
d="M408 -2c-328 0 -372 331 -221 546c99 150 315 287 475 287c335 0 379 -331 228 -546c-99 -149 -309 -287 -482 -287zM466 36c152 -3 272 81 349 211c145 229 107 548 -200 548c-156 0 -265 -79 -348 -215c-143 -230 -111 -540 199 -544z" />
    <glyph glyph-name="P" unicode="P" horiz-adv-x="1004" 
d="M802 342c63 0 119 33 147 89c59 115 9 274 -145 333c-47 -34 -123 -222 -174 -355c43 -36 109 -67 172 -67zM358 45c50 0 163 -4 260 7c108 11 173 32 194 32c19 0 -47 -59 -55 -72c-15 -7 -101 -7 -144 -7h-110c-191 0 -393 -8 -414 -8c-31 0 -51 5 -59 15
c-4 24 24 46 49 62c36 8 224 -62 295 -11c75 51 109 174 181 350c67 170 155 306 241 353c-36 13 -79 21 -126 21c-209 0 -353 -64 -406 -232c-11 -40 -30 -57 -65 -57c-40 0 -35 23 -10 62c85 125 320 272 511 268c318 4 390 -239 322 -363c-48 -90 -172 -143 -283 -143
c-47 0 -94 12 -133 31c-75 -164 -151 -265 -248 -308z" />
    <glyph glyph-name="Q" unicode="Q" horiz-adv-x="1012" 
d="M547 136c7 5 13 0 6 -5c-96 -77 -188 -122 -236 -122c-193 0 -340 226 -177 492c92 140 353 334 560 334c299 0 388 -305 219 -538c-86 -123 -230 -235 -518 -387c13 3 28 4 45 4c212 0 592 -222 814 -222c167 0 251 102 330 178l7 -3c-31 -37 -87 -93 -120 -120
c-82 -72 -150 -122 -248 -122c-250 0 -665 252 -839 252c-68 0 -119 -25 -162 -45c-34 -16 -114 -66 -167 -98c-37 -24 -53 24 -13 40s136 47 324 134c312 147 428 295 489 390c123 187 64 499 -244 499c-154 0 -324 -135 -402 -261c-153 -249 -28 -478 173 -478
c47 0 126 53 159 78z" />
    <glyph glyph-name="R" unicode="R" horiz-adv-x="1001" 
d="M-63 -1c-6 14 20 51 41 64c27 8 152 -36 238 -36c29 0 50 8 69 21c73 50 101 190 173 365c72 174 165 313 281 371c-27 7 -56 11 -86 11c-208 0 -307 -75 -379 -240c-17 -39 -30 -57 -66 -57c-39 0 -34 23 -9 62c86 123 311 275 493 270c249 3 329 -182 261 -309
c-46 -92 -163 -114 -261 -127c11 -97 35 -193 83 -282c19 -37 41 -60 65 -71c33 9 85 48 137 96l5 -8c-43 -40 -113 -102 -178 -137c-11 -7 -35 -3 -42 1c-24 19 -42 48 -63 89c-48 95 -75 207 -84 311c-1 15 4 17 21 17c16 0 60 -1 84 -1c68 0 123 22 162 97
c51 106 -1 236 -139 276c-79 -45 -151 -240 -210 -379c-83 -196 -157 -315 -253 -366c-88 -47 -157 -60 -225 -60c-71 0 -110 14 -118 22z" />
    <glyph glyph-name="S" unicode="S" horiz-adv-x="761" 
d="M231 340l9 -4c-58 -60 -138 -136 -141 -180c13 -28 124 -116 251 -116c115 0 233 51 276 142c111 249 -454 208 -369 431c40 97 272 215 403 215c98 0 208 -42 240 -98c-63 -87 -130 -153 -186 -233l-6 4c44 63 83 109 131 177c-41 59 -123 109 -246 109
c-117 0 -243 -62 -275 -146c-69 -177 492 -162 368 -421c-40 -89 -236 -228 -398 -228c-135 0 -220 65 -276 121c48 56 146 154 219 227z" />
    <glyph glyph-name="T" unicode="T" horiz-adv-x="758" 
d="M97 528c-39 0 -40 22 -19 61c104 188 281 246 425 246c167 0 359 -35 560 -35c60 0 89 15 96 12c9 -2 -34 -53 -52 -61c-25 -14 -49 -22 -106 -22c-53 0 -157 17 -266 33c-77 -56 -104 -166 -179 -353c-83 -195 -231 -412 -468 -412c-59 0 -163 16 -171 29
c-13 18 23 64 44 69c51 8 239 -105 351 -13c70 56 90 159 162 336c80 189 164 298 253 346c-128 21 -265 43 -334 43c-106 0 -171 -70 -232 -222c-19 -48 -28 -57 -64 -57z" />
    <glyph glyph-name="U" unicode="U" horiz-adv-x="928" 
d="M836 424c-125 -205 -189 -299 -186 -362c3 -20 23 -53 38 -55c32 8 160 112 200 147l5 -7c-39 -34 -170 -150 -234 -185c-8 -5 -39 -2 -43 2c-21 17 -44 45 -48 84c-3 45 16 92 53 157c-93 -104 -271 -253 -368 -253c-100 0 -179 97 -184 209s77 219 176 353
c91 120 157 202 154 254c-3 20 -12 36 -27 55c-32 -8 -173 -110 -213 -144l-6 8c39 33 182 144 245 178c11 6 38 0 44 -3c20 -17 28 -46 35 -85c8 -61 -76 -161 -175 -298c-93 -125 -161 -229 -156 -312c5 -76 52 -178 159 -178c79 0 260 164 333 245c35 57 79 125 135 217
c147 237 166 252 163 315c-3 20 -12 36 -28 55c-32 -8 -173 -108 -212 -142l-6 8c39 33 182 143 244 178c11 6 38 0 44 -3c21 -17 28 -46 36 -85c3 -62 -28 -109 -178 -353z" />
    <glyph glyph-name="V" unicode="V" horiz-adv-x="608" 
d="M145 -84c-8 -11 -28 -9 -25 6c32 158 105 590 121 699c12 75 11 131 0 151c-9 19 -20 22 -44 23c-84 3 -215 -41 -255 -36c-17 2 19 50 35 58c13 8 111 5 182 5h104c191 0 368 9 414 9c7 0 23 0 32 -3c0 -15 -18 -47 -43 -63c-31 -8 -207 19 -366 24c7 -10 12 -19 14 -28
c4 -19 11 -66 -1 -134c-16 -106 -77 -440 -109 -620c449 525 567 658 706 817c78 89 140 178 175 223c13 11 43 -16 30 -29c-38 -30 -134 -133 -194 -201c-263 -301 -519 -590 -776 -901z" />
    <glyph glyph-name="W" unicode="W" horiz-adv-x="1025" 
d="M190 5c307 446 441 639 542 780c-116 7 -262 14 -437 15c10 -8 16 -18 19 -29c4 -19 7 -67 -5 -135c-16 -104 -83 -451 -119 -631zM975 775c-21 -5 -101 1 -226 9c-32 -215 -78 -635 -94 -798c344 477 467 650 595 843c64 95 112 172 139 217c18 34 58 -1 35 -27
c-39 -43 -95 -112 -158 -199c-221 -312 -433 -605 -655 -923c-7 -10 -49 -9 -46 8c20 117 78 573 94 756c-177 -252 -353 -506 -524 -762c-7 -10 -41 4 -38 18c32 158 124 603 140 714c12 75 15 130 4 150c-9 19 -20 23 -44 23c-84 3 -215 -40 -255 -35c-17 2 19 50 35 58
c13 8 111 4 182 4h465c193 0 315 10 362 10c7 0 23 0 32 -4c0 -14 -18 -46 -43 -62z" />
    <glyph glyph-name="X" unicode="X" horiz-adv-x="756" 
d="M466 4c-21 19 -39 36 -48 52c-19 36 -9 120 6 225l15 102l-251 -200c-104 -83 -182 -153 -225 -196c-31 -29 -60 12 -26 36c56 37 160 106 243 171l261 204c11 72 23 150 30 205c7 59 5 119 -12 144c-8 12 -25 23 -42 30c-35 -11 -145 -80 -188 -117l-6 7
c43 35 159 119 229 155c11 7 26 3 33 -1c19 -19 36 -32 43 -47c16 -27 25 -71 13 -162c-7 -39 -16 -105 -27 -176c130 101 227 181 323 258c101 83 181 156 225 197c32 32 61 -13 27 -36c-58 -37 -156 -105 -236 -169c-120 -91 -232 -177 -341 -265
c-11 -77 -20 -155 -27 -199c-8 -57 -12 -120 6 -143c9 -14 23 -24 44 -31c32 11 144 79 183 116l7 -7c-44 -34 -157 -119 -227 -154c-11 -7 -28 -3 -32 1z" />
    <glyph glyph-name="Y" unicode="Y" horiz-adv-x="599" 
d="M257 3c-123 0 -254 -3 -307 -3c-19 0 33 55 54 55c255 0 273 110 421 374c-21 127 -52 242 -95 302c-15 20 -44 31 -63 38c-35 -11 -145 -81 -188 -116l-5 7c43 35 170 128 241 165c11 5 26 3 33 -1c17 -11 43 -38 51 -53c61 -109 89 -247 97 -330
c121 101 239 195 320 267c99 88 175 152 218 193c32 32 61 -9 28 -34c-56 -37 -154 -107 -236 -170c-101 -80 -230 -182 -337 -287c-119 -222 -140 -273 -354 -360c107 0 289 23 339 23c21 0 -22 -60 -49 -68c-16 -8 -40 -2 -168 -2z" />
    <glyph glyph-name="Z" unicode="Z" horiz-adv-x="892" 
d="M553 53c120 3 131 7 211 223c16 43 38 59 66 59c31 0 37 -23 16 -62c-85 -155 -240 -276 -382 -276c-176 0 -345 45 -500 32c-19 0 27 53 48 53c292 0 482 552 894 652c-7 -1 -14 -2 -29 -2c-110 0 -288 65 -394 65c-102 0 -121 -7 -190 -183c-17 -43 -33 -56 -64 -56
c-33 0 -39 26 -19 62c85 152 227 211 377 211c119 0 227 -43 333 -43c60 0 89 15 96 12c7 -1 -8 -20 -23 -36c-16 -16 -39 -30 -54 -31c-241 -24 -439 -527 -849 -652c139 27 319 -33 463 -28z" />
    <glyph glyph-name="bracketleft" unicode="[" horiz-adv-x="400" 
d="M-72 -270l239 516l237 525c3 4 5 8 12 8c47 0 96 -1 147 -1c47 0 90 1 137 1c7 0 2 -10 -5 -10c-45 -1 -95 1 -140 1h-115c-5 0 -7 -1 -7 -3l-239 -521l-237 -512c0 -2 2 -3 5 -3h115c45 0 97 2 142 1c7 0 1 -10 -6 -10c-47 0 -88 1 -135 1c-51 0 -103 -1 -147 -1
c-5 0 -6 3 -3 8z" />
    <glyph glyph-name="backslash" unicode="\" horiz-adv-x="309" 
d="M136 263c-32 170 -80 399 -120 554c15 3 14 4 29 -3c27 -143 72 -378 104 -550c36 -175 75 -365 118 -544c-15 -5 -12 -4 -27 5c-31 175 -69 366 -104 538z" />
    <glyph glyph-name="bracketright" unicode="]" horiz-adv-x="400" 
d="M212 246l-235 -516c-3 -5 -6 -8 -11 -8c-47 0 -94 1 -145 1c-44 0 -89 -1 -136 -1c-7 0 -1 10 6 10c45 1 92 -1 135 -1h115c6 0 9 1 9 3l235 512l241 521c0 2 -2 3 -7 3h-115c-45 0 -95 -2 -140 -1c-7 0 -2 10 5 10c47 0 90 -1 137 -1c51 0 100 1 147 1c5 0 6 -3 2 -8z
" />
    <glyph glyph-name="asciicircum" unicode="^" 
d="M436 357c-1 3 -3 3 -6 0c-38 -43 -102 -98 -134 -122c-12 -8 -24 -18 -39 -17c-15 3 -21 11 -20 18c0 4 0 15 23 30c40 24 119 67 169 101c4 4 8 4 11 -1c43 -56 58 -75 90 -107c19 -17 21 -26 20 -33c0 -12 -11 -22 -22 -21c-15 1 -28 10 -37 27c-16 31 -31 74 -55 125z
" />
    <glyph glyph-name="underscore" unicode="_" horiz-adv-x="678" 
d="M248 -20c82 0 222 3 271 6c7 -5 3 -20 -4 -24c-54 3 -190 7 -270 7s-216 -4 -270 -7c-7 4 -3 19 4 24c49 -3 189 -6 269 -6z" />
    <glyph glyph-name="grave" unicode="`" 
d="M487 529c-55 58 -149 120 -163 134c-7 7 -13 12 -13 19c0 11 0 18 3 21s11 3 20 3c11 0 21 -1 26 -6c11 -13 75 -110 132 -164c2 -2 3 -4 3 -5c0 -3 -1 -4 -4 -4c-1 0 -3 1 -4 2z" />
    <glyph glyph-name="a" unicode="a" horiz-adv-x="579" 
d="M131 53c49 14 235 199 347 333c-63 82 -101 102 -140 102c-70 0 -162 -99 -202 -221c-32 -99 -32 -183 -5 -214zM303 84c-5 62 64 144 98 199c-88 -93 -210 -208 -293 -280c-9 -7 -35 -4 -40 0c-47 37 -47 154 -6 251c64 159 247 258 334 258c49 0 77 -9 136 -73
c15 12 47 44 70 68c4 4 7 5 8 3c1 -1 1 -3 1 -5c-65 -82 -228 -328 -224 -412c1 -17 16 -35 36 -42c25 11 81 46 120 88l6 -7c-37 -36 -94 -90 -158 -129c-9 -5 -53 -5 -56 1c-21 24 -31 60 -32 80z" />
    <glyph glyph-name="b" unicode="b" horiz-adv-x="615" 
d="M251 36c27 0 52 3 83 19c40 35 88 69 128 163c43 93 48 169 40 204c-7 31 -16 37 -31 44c-15 0 -46 -16 -85 -48c-93 -80 -223 -198 -282 -278c48 -79 96 -104 147 -104zM525 516c25 -4 50 -42 58 -74c15 -57 -12 -143 -41 -194c-50 -92 -135 -157 -204 -199
c-63 -35 -113 -54 -154 -54c-43 0 -80 30 -115 77l-39 -64c-21 0 -76 -15 -55 41c52 80 265 474 312 549c72 120 274 294 526 294c43 0 92 -1 116 -5c32 -5 -10 -70 -34 -70c-64 0 -155 17 -252 17s-155 -19 -283 -238c-55 -91 -128 -225 -220 -390c87 85 178 167 241 220
c42 37 113 90 144 90z" />
    <glyph glyph-name="c" unicode="c" horiz-adv-x="493" 
d="M154 -6c-47 0 -93 29 -109 76c-11 40 -29 110 43 230c39 68 119 137 210 186c39 21 77 31 121 31c64 0 94 -28 94 -64c0 -34 -37 -55 -58 -58c-12 48 -43 91 -108 91c-19 0 -29 -2 -44 -6c-49 -35 -92 -81 -125 -137c-43 -71 -66 -152 -59 -232c11 -39 35 -59 62 -66
c32 -9 81 1 118 18c25 10 84 54 115 93l9 -5c-41 -49 -89 -85 -142 -114c-35 -19 -79 -43 -127 -43z" />
    <glyph glyph-name="d" unicode="d" horiz-adv-x="594" 
d="M131 53c48 13 227 204 339 337c-63 82 -92 98 -132 98c-70 0 -162 -99 -202 -221c-32 -99 -32 -183 -5 -214zM611 618c81 116 225 208 374 256c77 19 118 18 169 18c43 0 91 -1 115 -5c32 -5 -17 -70 -41 -70c-64 0 -154 18 -251 18c-125 0 -181 -36 -376 -338
c-55 -87 -212 -339 -212 -399c0 -17 9 -48 33 -51c25 10 85 46 124 88l6 -7c-39 -36 -94 -86 -158 -125c-9 -5 -51 -5 -54 1c-20 20 -35 66 -32 84c3 53 80 176 125 244l8 10c-83 -101 -232 -251 -333 -339c-9 -7 -35 -4 -40 0c-47 37 -47 154 -6 251
c64 159 247 258 334 258c43 0 72 -15 108 -54c43 67 90 138 107 160z" />
    <glyph glyph-name="e" unicode="e" horiz-adv-x="486" 
d="M409 383c24 62 -55 115 -115 96c-58 -39 -162 -181 -178 -312c198 118 277 167 293 216zM488 467c11 -65 -90 -147 -373 -310c-1 -16 -1 -31 0 -46c11 -39 31 -59 58 -66c32 -9 83 3 120 20c27 11 91 62 123 101l9 -5c-41 -49 -102 -95 -155 -124
c-35 -19 -81 -43 -129 -43c-40 0 -85 35 -101 79c-11 40 -22 107 50 227c38 68 118 140 185 178c39 21 84 36 124 36c45 0 84 -15 89 -47z" />
    <glyph glyph-name="f" unicode="f" horiz-adv-x="395" 
d="M-291 -85c-3 -19 0 -47 4 -66c8 -36 33 -75 69 -75c49 0 76 12 182 203c48 88 162 314 247 474h-63c-8 3 -8 9 -3 12l105 60c16 31 30 54 41 71c113 180 270 303 438 303c56 0 121 -8 157 -23c19 -8 -24 -58 -51 -58c-56 0 -115 39 -211 39c-89 0 -136 -38 -262 -258
l-49 -89c64 0 143 6 151 3c11 -3 -38 -63 -56 -63c-5 0 -61 1 -126 2c-88 -167 -166 -322 -247 -467c-90 -165 -221 -230 -293 -230c-65 0 -101 33 -101 80c0 40 29 75 68 82z" />
    <glyph glyph-name="g" unicode="g" horiz-adv-x="571" 
d="M124 51c55 37 241 200 342 332c-67 83 -90 106 -130 106c-69 0 -172 -100 -209 -223c-31 -100 -34 -180 -3 -215zM99 5c-161 -115 -306 -212 -265 -312c24 -57 91 -79 163 -79s145 38 197 113c64 100 35 289 207 564c-93 -93 -227 -222 -302 -286zM-53 -396
c-75 0 -173 20 -199 81c-40 98 165 197 331 315c-9 0 -17 0 -20 3c-48 38 -47 153 -6 250c64 159 253 260 339 260c49 0 65 -12 126 -84c20 17 57 49 86 76l7 -4c-32 -39 -63 -79 -88 -118c-231 -371 -181 -540 -242 -642c-53 -88 -206 -140 -334 -137z" />
    <glyph glyph-name="h" unicode="h" horiz-adv-x="600" 
d="M517 513c63 -14 60 -86 -44 -261c-37 -63 -78 -125 -75 -162c1 -17 9 -33 29 -40c32 11 87 48 124 85l6 -7c-37 -36 -94 -86 -158 -125c-11 -7 -40 -3 -45 1c-24 19 -38 59 -38 79c-3 41 56 123 90 184c83 144 82 180 57 202c-61 -13 -230 -148 -342 -313
c-35 -51 -65 -113 -86 -148c-22 0 -77 -15 -56 41c52 80 265 474 312 549c72 120 274 294 526 294c43 0 92 -1 116 -5c32 -5 -10 -70 -34 -70c-64 0 -155 17 -252 17s-155 -19 -283 -238c-56 -92 -130 -230 -214 -382c120 146 301 288 367 299z" />
    <glyph glyph-name="i" unicode="i" horiz-adv-x="309" 
d="M302 586l-6 6c96 99 191 206 241 277c14 16 39 -1 23 -17c-60 -68 -158 -165 -258 -266zM292 430c0 -40 -73 -126 -108 -183c-39 -63 -84 -125 -81 -162c1 -17 23 -30 43 -37c32 11 83 50 120 87l6 -7c-37 -36 -91 -86 -155 -125c-10 -5 -49 -5 -55 1
c-25 19 -40 54 -41 74c-3 41 54 124 91 185c52 87 87 127 95 160c5 19 -15 41 -30 44c-25 -8 -87 -52 -124 -84l-7 5c35 35 115 93 165 125c11 7 22 8 33 3c23 -10 48 -62 48 -86z" />
    <glyph glyph-name="j" unicode="j" horiz-adv-x="303" 
d="M303 586l-6 6c96 99 191 206 241 277c14 16 39 -1 23 -17c-60 -68 -158 -165 -258 -266zM190 470c-32 -8 -99 -56 -133 -90l-7 6c36 38 122 99 173 131c12 7 28 5 37 1c23 -10 29 -66 24 -105c0 -26 -66 -133 -153 -286c-112 -197 -191 -253 -288 -304
c-88 -47 -173 -61 -246 -61c-72 0 -101 5 -112 17c-8 22 23 56 41 69c40 12 250 -65 322 -13c72 53 136 167 224 319c53 94 133 225 138 265c3 25 -8 47 -20 51z" />
    <glyph glyph-name="k" unicode="k" horiz-adv-x="606" 
d="M501 408c3 24 -22 75 -52 78c-60 -13 -206 -137 -280 -235l-5 -10c280 37 334 111 337 167zM34 8c-22 0 -77 -15 -56 41c52 80 265 474 312 549c72 120 274 294 526 294c43 0 92 -1 116 -5c32 -5 -10 -70 -34 -70c-64 0 -155 17 -252 17s-155 -19 -283 -238
c-41 -69 -104 -185 -172 -306c129 139 255 233 312 233c41 -8 87 -76 77 -118c-8 -36 -43 -80 -78 -99c-48 -29 -110 -39 -246 -58c28 -4 60 -18 79 -45c22 -30 27 -103 49 -141c5 -9 19 -20 38 -20c32 11 92 58 130 96l6 -7c-37 -36 -92 -87 -156 -126c-8 -5 -73 -6 -86 15
c-32 48 -31 135 -60 175c-23 29 -47 43 -96 39c-44 -80 -87 -158 -126 -226z" />
    <glyph glyph-name="l" unicode="l" horiz-adv-x="303" 
d="M294 603c72 120 267 289 520 289c43 0 92 -1 116 -5c32 -5 -10 -70 -34 -70c-64 0 -155 17 -252 17c-98 0 -154 -20 -282 -238c-71 -116 -135 -232 -199 -348c-36 -67 -65 -121 -62 -158c1 -17 13 -33 33 -40c32 11 84 48 121 85l6 -7c-37 -36 -91 -86 -155 -125
c-11 -5 -44 -4 -49 1c-24 19 -34 60 -34 80c-3 41 35 114 70 176c74 136 172 298 201 343z" />
    <glyph glyph-name="m" unicode="m" horiz-adv-x="913" 
d="M455 156c-32 -51 -71 -117 -90 -152c-33 0 -77 -11 -61 42c48 89 176 262 181 380c1 19 -4 29 -9 36c-59 -19 -207 -140 -322 -306c-35 -51 -72 -117 -94 -152c-20 0 -81 -15 -60 41c60 80 189 286 185 368c-1 17 -11 35 -32 42c-28 -7 -78 -38 -117 -81l-7 7
c38 35 101 90 162 125c47 26 70 -59 73 -92c3 -53 -47 -141 -85 -205c115 147 281 283 351 304c54 -13 48 -142 -35 -282c111 138 280 263 345 282c61 -13 57 -84 -48 -261c-37 -63 -77 -125 -74 -162c1 -17 9 -33 29 -40c32 11 84 48 121 85l6 -7
c-37 -36 -91 -86 -155 -125c-11 -7 -40 -3 -45 1c-24 19 -38 59 -38 79c-3 41 55 123 89 184c82 143 83 171 60 194c-60 -18 -227 -141 -330 -305z" />
    <glyph glyph-name="n" unicode="n" horiz-adv-x="620" 
d="M60 4c-20 0 -81 -15 -60 41c60 80 189 286 185 368c-1 17 -11 35 -32 42c-28 -7 -78 -38 -117 -81l-7 7c38 35 101 90 162 125c47 26 70 -59 73 -92c3 -52 -47 -141 -85 -206c115 147 289 284 358 305c63 -14 60 -86 -44 -261c-37 -63 -78 -125 -75 -162
c1 -17 9 -33 29 -40c32 11 84 48 121 85l6 -7c-37 -36 -91 -86 -155 -125c-11 -7 -40 -3 -45 1c-24 19 -38 59 -38 79c-3 41 56 123 90 184c83 144 82 173 57 195c-59 -19 -214 -140 -329 -306c-35 -51 -72 -117 -94 -152z" />
    <glyph glyph-name="o" unicode="o" horiz-adv-x="532" 
d="M171 45c32 -9 74 -1 114 15c54 27 145 223 137 330c-4 47 -22 75 -53 86c-11 3 -39 16 -79 5c-66 -40 -190 -224 -177 -370c11 -39 31 -59 58 -66zM441 200c-40 -70 -113 -128 -183 -166c-35 -19 -69 -40 -108 -40c-48 0 -96 35 -112 79c-11 40 -22 107 50 227
c38 68 119 143 186 181c39 21 81 36 118 36h1c45 0 88 -36 103 -80c11 -35 12 -122 -55 -237z" />
    <glyph glyph-name="p" unicode="p" horiz-adv-x="606" 
d="M262 36c25 0 42 3 73 19c40 35 88 69 128 163c43 93 48 169 40 204c-7 31 -16 37 -31 44c-36 -4 -245 -199 -337 -331c44 -72 76 -99 127 -99zM526 516c25 -4 50 -42 58 -74c15 -57 -12 -143 -41 -194c-50 -92 -136 -159 -205 -201c-63 -35 -101 -52 -145 -52
c-37 0 -72 34 -96 77c-5 -5 -50 -85 -93 -163c-26 -46 -55 -97 -87 -154c8 -13 93 -20 117 -20c11 0 11 -9 -4 -9c-22 0 -110 5 -142 5c-31 0 -173 -8 -189 -8c-9 0 -8 7 0 8c143 12 145 23 340 365c97 172 151 261 148 317c-1 17 -15 34 -36 41c-28 -7 -77 -40 -116 -83
l-7 7c38 35 99 93 161 128c48 27 73 -59 76 -92c3 -58 -62 -158 -109 -232c129 148 306 329 370 334z" />
    <glyph glyph-name="q" unicode="q" horiz-adv-x="572" 
d="M108 53c22 -13 264 200 375 331c-64 83 -98 104 -137 104c-77 0 -184 -98 -232 -231c-35 -100 -33 -173 -6 -204zM130 -243c-11 0 -25 1 -25 16c-1 15 3 26 22 57c75 126 169 277 251 407c11 19 23 37 44 65c-104 -104 -254 -238 -337 -299c-9 -7 -35 -4 -40 0
c-48 37 -46 144 -6 241c67 165 257 268 365 268c49 0 74 -10 133 -75c13 11 52 51 76 75c4 4 7 5 8 3c1 -1 1 -3 1 -5c-37 -53 -100 -158 -156 -251c-80 -130 -151 -244 -258 -436c3 -30 30 -41 133 -41c12 0 14 -9 -1 -9c-96 0 -207 -16 -210 -16z" />
    <glyph glyph-name="r" unicode="r" horiz-adv-x="480" 
d="M60 4c-20 0 -81 -15 -60 41c60 80 189 286 185 368c-1 17 -11 35 -32 42c-28 -7 -78 -38 -117 -81l-7 7c38 35 101 90 162 125c47 26 70 -59 73 -92c3 -27 -10 -61 -27 -98c80 104 147 180 213 193c34 3 102 1 104 -6c-3 -20 -44 -71 -63 -74c-28 1 -63 13 -114 12
c-88 -27 -159 -186 -317 -437z" />
    <glyph glyph-name="s" unicode="s" horiz-adv-x="397" 
d="M386 401h-4c-41 81 -90 114 -149 99c-51 -29 -39 -84 22 -214c52 -113 53 -206 -26 -255c-43 -27 -83 -39 -136 -39c-43 -1 -87 16 -107 49c-22 36 -2 102 56 118l4 -3c-3 -41 14 -80 43 -105c35 -31 74 -39 116 -22c61 28 24 102 -27 230c-56 135 -45 206 28 239
c33 15 71 28 114 27c47 0 85 -9 100 -41c13 -29 -7 -64 -34 -83z" />
    <glyph glyph-name="t" unicode="t" horiz-adv-x="376" 
d="M292 158l7 -5c-46 -40 -143 -119 -199 -151c-11 -7 -39 -3 -44 1c-24 19 -34 63 -34 83c-3 41 23 98 58 158c44 76 87 145 127 209h-11c-27 0 -53 -1 -58 0c-4 1 -7 5 1 9c72 39 160 93 232 149c7 5 12 3 8 -4c-17 -28 -38 -59 -65 -102c85 0 137 7 145 4
c11 -3 -38 -59 -57 -59c-5 0 -48 1 -121 2c-51 -80 -94 -149 -134 -225c-36 -65 -49 -97 -46 -134c1 -19 9 -40 29 -47c27 8 117 73 162 112z" />
    <glyph glyph-name="u" unicode="u" horiz-adv-x="607" 
d="M266 414c0 -27 -43 -103 -77 -164c-41 -75 -75 -125 -87 -160c-3 -24 21 -37 40 -42c50 0 196 142 313 308c35 51 65 114 83 142c32 8 92 25 70 -32c-55 -75 -196 -303 -200 -376c-1 -17 20 -33 40 -40c32 11 84 48 121 85l6 -7c-37 -36 -91 -86 -155 -125
c-11 -5 -51 -4 -56 1c-25 19 -35 58 -38 79c-5 40 60 146 102 218c-115 -147 -263 -290 -331 -304c-19 2 -69 21 -80 66c-5 32 53 108 103 200c35 64 67 118 64 155c-1 16 -12 30 -33 37c-28 -7 -78 -38 -117 -81l-7 7c38 35 101 90 162 125c48 27 74 -59 77 -92z" />
    <glyph glyph-name="v" unicode="v" horiz-adv-x="572" 
d="M210 46h1c52 43 145 126 214 195c64 64 85 115 85 159c0 28 -14 59 -38 66c-25 -7 -71 -35 -110 -67l-4 4c39 39 110 84 157 108c27 13 67 -34 64 -77c-3 -55 -88 -143 -147 -199c-72 -69 -161 -150 -261 -233c-7 -7 -15 -7 -22 -7c-11 0 -48 13 -48 38
c19 90 55 271 55 336c-1 64 -24 89 -43 90c-19 -5 -68 -35 -100 -64l-5 4c35 35 96 81 143 107c47 25 79 -20 83 -113c3 -47 -27 -213 -51 -320c1 -8 8 -27 27 -27z" />
    <glyph glyph-name="w" unicode="w" horiz-adv-x="860" 
d="M431 35c5 67 21 169 26 232c-13 -16 -25 -30 -41 -45c-50 -50 -191 -200 -226 -216c-8 -4 -17 -5 -38 -5c-29 0 -36 6 -31 34c11 110 36 286 33 314c0 75 -25 107 -46 114c-19 -5 -67 -36 -99 -65l-5 5c35 35 95 80 143 106c49 27 82 -27 83 -135
c0 -72 -27 -236 -40 -344c81 48 186 166 220 205c46 51 53 74 50 145c-1 51 -22 77 -43 84c-20 -5 -67 -36 -98 -65l-7 4c35 35 96 79 144 106c50 28 81 -35 84 -135c0 -37 -27 -234 -40 -346c80 45 178 154 210 202c51 71 76 119 72 175c-7 31 -25 58 -48 65
c-31 -9 -55 -28 -102 -67l-5 6c40 40 101 86 143 102c36 13 70 -7 87 -63c19 -72 -73 -173 -143 -241c-48 -48 -182 -189 -213 -201c-7 -3 -13 -5 -37 -5c-32 0 -38 6 -33 34z" />
    <glyph glyph-name="x" unicode="x" horiz-adv-x="513" 
d="M263 442c7 -32 14 -95 22 -163l38 37c99 96 165 160 209 204c20 11 39 -1 28 -20c-58 -42 -149 -117 -229 -189l-45 -41c9 -73 17 -145 28 -180c5 -17 22 -36 42 -43c32 12 79 48 118 87l7 -6c-39 -36 -91 -86 -155 -125c-11 -5 -51 -4 -56 1c-23 18 -35 59 -38 79
c-7 29 -14 82 -21 138c-32 -29 -89 -84 -108 -100c-99 -96 -173 -170 -217 -214c-9 0 -17 1 -23 4c-11 4 -18 12 -7 29c58 42 158 118 240 189l114 101c-11 83 -21 171 -29 200c-4 15 -17 39 -30 42c-25 -8 -86 -52 -124 -85l-6 5c35 35 112 93 163 125c12 7 25 5 34 1
c23 -11 38 -41 45 -76z" />
    <glyph glyph-name="y" unicode="y" horiz-adv-x="575" 
d="M263 365c0 -83 -14 -245 -44 -321l105 109c113 117 184 196 188 244c-1 35 -22 54 -41 61c-24 -7 -56 -29 -97 -65l-6 6c29 29 122 101 164 114c19 3 56 -31 45 -69c-34 -74 -136 -182 -246 -297c-81 -83 -159 -169 -270 -269c-89 -81 -219 -164 -368 -164
c-17 0 -32 5 -39 17c-8 13 18 46 38 61h111c117 0 182 29 252 91c35 31 48 43 65 62c53 98 66 315 66 408c0 39 -3 77 -20 98c-7 7 -16 11 -29 10c-13 -5 -63 -37 -95 -66l-6 6c36 33 95 79 143 105c7 4 15 6 22 6c11 0 23 -5 31 -14c21 -23 31 -67 31 -133z" />
    <glyph glyph-name="z" unicode="z" horiz-adv-x="524" 
d="M480 428c1 3 0 5 -3 5c-49 -25 -96 -41 -124 -41c-64 0 -120 75 -163 72c-24 -8 -65 -55 -99 -87l-8 5c33 36 98 104 145 135c11 8 50 4 60 2c25 -11 77 -75 156 -75c51 0 76 7 124 58c13 13 33 -16 17 -21c-65 -36 -380 -272 -556 -400c-1 -3 -1 -5 2 -5
c56 33 109 62 138 62c51 0 144 -78 178 -78c35 9 75 50 116 86l6 -6c-34 -34 -123 -112 -152 -136c-9 -7 -53 -5 -58 0c-24 11 -117 74 -176 74c-42 0 -76 -15 -131 -73c-21 -21 -46 -2 -19 20c80 58 155 113 226 164c120 88 258 189 321 239z" />
    <glyph glyph-name="braceleft" unicode="{" horiz-adv-x="445" 
d="M285 391c-32 -64 -96 -106 -152 -125c28 -14 66 -82 40 -140c-37 -85 -110 -171 -159 -271c-37 -84 -32 -137 106 -137c15 0 14 -19 -2 -19c-127 0 -163 89 -123 174c51 107 128 194 165 273c32 65 -7 114 -55 114c-4 0 -5 3 -4 8s4 7 9 7c63 0 117 38 148 103
c37 80 38 179 88 288c40 85 143 128 269 128c13 0 14 -17 -1 -17c-131 0 -204 -18 -237 -90c-45 -101 -54 -212 -92 -296z" />
    <glyph glyph-name="bar" unicode="|" horiz-adv-x="267" 
d="M139 262c-67 -145 -145 -321 -212 -467c-16 -5 -19 -6 -30 2c78 150 160 324 230 469l218 481c15 5 19 1 30 -7c-70 -128 -169 -334 -236 -478z" />
    <glyph glyph-name="braceright" unicode="}" horiz-adv-x="445" 
d="M120 105c29 63 97 105 153 124c-27 13 -69 82 -40 141c38 83 112 169 159 269c35 84 31 137 -107 137c-15 0 -14 19 2 19c127 0 160 -89 120 -174c-50 -109 -126 -190 -161 -271c-32 -65 7 -114 55 -114c4 0 5 -3 4 -8s-4 -7 -9 -7c-63 0 -117 -38 -148 -103
c-37 -80 -38 -182 -89 -290c-40 -85 -143 -128 -269 -128c-13 0 -14 17 1 17c131 0 204 18 236 90c45 99 56 214 93 298z" />
    <glyph glyph-name="asciitilde" unicode="~" 
d="M218 229c59 75 79 102 106 102c47 0 125 -64 165 -64c20 0 23 2 65 60c7 8 15 4 8 -5c-48 -71 -80 -110 -115 -110c-45 0 -121 69 -163 69c-14 0 -15 -6 -58 -57c-9 -11 -13 -6 -8 5z" />
    <glyph glyph-name="exclamdown" unicode="&#xa1;" horiz-adv-x="305" 
d="M-113 -351c-10 -21 -85 -6 -77 10c32 72 89 171 124 232c70 121 137 224 238 435l9 -2c-101 -211 -148 -327 -196 -450c-29 -75 -63 -161 -98 -225zM280 499c11 -16 -8 -76 -29 -87c-7 -4 -26 -7 -42 -7s-35 5 -38 10c-5 32 15 73 31 86c6 4 18 6 37 6s34 -1 41 -8z" />
    <glyph glyph-name="cent" unicode="&#xa2;" horiz-adv-x="529" 
d="M347 488c-19 0 -35 -4 -50 -8c-48 -34 -79 -65 -111 -121c-53 -92 -85 -166 -65 -239c9 -36 34 -56 59 -67l115 237c29 61 62 126 94 193c-15 3 -29 5 -42 5zM70 -222c-11 -5 -21 -4 -26 5c33 64 69 138 108 214c-49 8 -96 40 -108 87c-16 64 -7 152 52 232
c39 68 105 122 196 169c32 17 74 27 113 31c39 80 75 155 104 219c15 5 21 0 22 -7c-35 -64 -72 -135 -111 -211h13c69 0 103 -28 103 -64c0 -34 -37 -55 -58 -58c-9 35 -34 68 -77 84c-32 -65 -65 -131 -94 -192c-35 -71 -74 -154 -114 -239c4 -3 8 -2 12 -3
c33 -8 101 2 139 18c25 10 84 54 115 93l8 -5c-41 -49 -88 -85 -141 -114c-35 -19 -100 -43 -148 -43c-3 0 -7 1 -10 1c-36 -79 -70 -153 -98 -217z" />
    <glyph glyph-name="sterling" unicode="&#xa3;" horiz-adv-x="699" 
d="M202 244h62c83 0 162 3 211 6c7 -5 7 -20 0 -24c-55 4 -129 7 -210 7c-23 0 -46 0 -69 -1c-59 -120 -117 -223 -168 -288c101 -13 266 -43 379 -43c37 0 74 25 91 44c35 31 66 75 94 122l27 44c5 7 16 6 11 -1l-27 -45c-51 -88 -96 -152 -115 -183
c-13 -19 -48 -53 -86 -53c-109 0 -299 80 -381 105c-25 -31 -47 -51 -67 -61c-27 -13 -36 -15 -55 -15s-37 11 -37 38c0 35 42 56 89 56c13 0 38 -3 67 -7c27 51 67 165 113 286c-35 -1 -68 -2 -92 -5c-7 4 -7 15 0 20c23 -3 60 -2 97 -2c21 56 43 114 66 165
c75 176 192 250 262 288c41 23 73 32 108 32c56 0 98 -24 98 -67c0 -33 -20 -52 -48 -52c-31 0 -46 19 -46 50s-10 48 -53 48c-19 0 -41 -8 -56 -17c-53 -34 -103 -92 -183 -271c-27 -61 -55 -120 -82 -176z" />
    <glyph glyph-name="yen" unicode="&#xa5;" horiz-adv-x="615" 
d="M534 509l-190 -178c64 1 120 5 161 9c7 -7 -2 -17 -6 -24c-45 7 -100 7 -164 7l-30 -64c-15 -29 -24 -53 -35 -76c68 0 126 3 169 10c7 -5 2 -17 -3 -24c-47 4 -103 5 -170 6c-72 -163 -67 -166 -24 -166h18c8 0 4 -9 -4 -9c-29 0 -86 3 -102 3c-14 0 -85 -3 -112 -3
c-8 0 -4 9 4 9h18c42 0 55 3 132 166c-63 -1 -106 -3 -157 -7c-7 3 -1 14 3 22c53 -7 98 -7 158 -7l35 76l30 64c-64 -1 -111 -2 -163 -9c-7 5 -1 15 4 22c55 -4 100 -5 161 -5l-19 178c-13 138 -22 175 -73 175h-8c-5 0 -7 1 -6 4c2 3 5 5 8 5c30 0 82 -3 98 -3s99 3 128 3
c8 0 8 -9 0 -9h-31c-50 0 -68 -44 -52 -180l19 -172l193 180c40 40 156 173 58 173c-8 0 -26 -4 -30 -4s-5 2 -4 6c1 3 3 6 14 6c18 0 94 -2 110 -2c12 0 92 2 116 2c8 0 5 -9 -2 -9h-7c-57 0 -165 -103 -245 -175z" />
    <glyph glyph-name="brokenbar" unicode="&#xa6;" horiz-adv-x="267" 
d="M148 318c16 32 92 187 105 218l93 209c11 9 21 3 26 -5l-107 -210c-14 -30 -83 -185 -96 -215c-13 -5 -14 -4 -21 3zM-104 -202c15 31 95 185 109 215l102 218c8 8 16 4 20 -3c-15 -33 -95 -190 -110 -221c-16 -31 -82 -183 -95 -215c-11 -3 -20 -1 -26 6z" />
    <glyph glyph-name="section" unicode="&#xa7;" horiz-adv-x="585" 
d="M162 514c0 8 -1 16 2 23c-37 -27 -55 -61 -55 -101c0 -158 320 -335 320 -484c0 -4 0 -7 -1 -9c41 32 51 58 51 98c0 142 -317 334 -317 473zM528 86c0 -68 -44 -111 -100 -150c-11 -72 -84 -129 -157 -129c-75 0 -132 35 -132 73c0 32 20 50 47 50
c72 0 41 -104 127 -104c47 0 74 38 71 73c0 143 -323 319 -323 491c0 69 45 114 104 154c16 65 77 114 152 114c71 0 124 -35 124 -70c0 -29 -18 -43 -41 -43c-67 0 -39 95 -124 95c-44 0 -72 -38 -69 -73c0 -142 321 -326 321 -481z" />
    <glyph glyph-name="dieresis" unicode="&#xa8;" 
d="M237 648c0 31 23 55 54 55s55 -24 55 -55s-24 -54 -55 -54s-54 23 -54 54zM455 648c0 31 23 55 54 55s55 -24 55 -55s-24 -54 -55 -54s-54 23 -54 54z" />
    <glyph glyph-name="copyright" unicode="&#xa9;" horiz-adv-x="823" 
d="M440 704h1c194 0 337 -129 337 -337c0 -205 -185 -383 -389 -383c-194 0 -337 129 -337 337c0 205 185 383 388 383zM399 1v-1c195 0 357 148 357 359c0 196 -145 329 -325 329c-195 0 -357 -148 -357 -359c0 -197 145 -328 325 -328zM284 465c-60 -93 -17 -288 175 -288
c79 0 120 47 157 86c4 4 9 1 6 -3c-42 -53 -112 -119 -209 -119c-189 0 -239 201 -172 300c41 60 109 113 195 113c87 0 137 -35 153 -57c9 -9 -31 -34 -40 -34c-19 0 -55 75 -138 75c-53 0 -92 -18 -127 -73z" />
    <glyph glyph-name="ordfeminine" unicode="&#xaa;" horiz-adv-x="396" 
d="M148 434v1c22 5 154 117 212 189c-37 47 -62 51 -85 51c-41 0 -94 -51 -118 -121c-17 -55 -21 -97 -9 -120zM256 448c-3 40 55 90 71 123l28 34c-45 -53 -174 -164 -222 -204c-5 -5 -29 -3 -32 0c-27 27 -19 88 3 145c38 91 164 150 216 150c28 0 46 -2 81 -39
c8 7 24 21 36 36c3 3 5 3 7 2l3 -3c-37 -48 -133 -190 -130 -239c0 -11 8 -21 20 -24c15 7 44 27 67 52l7 -5c-23 -21 -55 -52 -92 -75c-4 -4 -43 -2 -45 0c-12 15 -17 35 -18 47z" />
    <glyph glyph-name="guillemotleft" unicode="&#xab;" horiz-adv-x="683" 
d="M55 268c23 -47 147 -190 167 -218c7 -11 23 -26 15 -39c-7 -11 -12 -12 -23 -12s-22 8 -31 23l-136 246c-3 3 -1 7 3 10c82 47 227 164 296 207c28 17 42 23 53 23c13 0 18 -9 11 -21s-15 -22 -38 -34c-44 -24 -240 -132 -313 -177c-5 -3 -6 -5 -4 -8zM281 244
c23 -45 158 -168 180 -194c8 -9 23 -26 15 -39c-7 -11 -12 -12 -23 -12s-20 6 -31 23c-29 45 -122 174 -149 222c-3 3 -1 7 3 10c81 49 292 182 360 222c27 15 41 23 52 23c13 0 22 -9 15 -21s-13 -22 -36 -34c-42 -23 -308 -147 -382 -192c-5 -3 -6 -5 -4 -8z" />
    <glyph glyph-name="uni00AD" unicode="&#xad;" horiz-adv-x="538" 
d="M273 251c83 0 152 3 201 6c7 -5 1 -20 -6 -24c-55 4 -119 7 -200 7s-145 -3 -200 -7c-7 4 -1 19 6 24c49 -3 119 -6 199 -6z" />
    <glyph glyph-name="registered" unicode="&#xae;" horiz-adv-x="804" 
d="M415 469l-50 -98h49c72 0 125 23 154 87c31 65 5 101 -62 101h-20c-23 0 -26 -3 -71 -90zM586 44c-61 -41 -140 -60 -205 -60c-194 0 -330 122 -330 330c0 205 191 390 395 390c196 0 333 -116 333 -293c0 -168 -115 -301 -227 -301c-72 0 -91 45 -91 132
c0 103 -6 123 -73 123h-26l-30 -60c-72 -139 -71 -148 -42 -148h17c4 0 3 -8 -2 -8c-16 0 -74 1 -82 1c-9 0 -68 -1 -72 -1s-3 8 1 8c19 0 23 1 30 5c12 5 22 18 39 49c19 35 49 92 62 119l40 80c74 143 71 148 35 148h-14c-5 0 -1 8 3 8c17 0 66 -1 75 -1s64 1 86 1
c81 0 158 -45 121 -128c-27 -56 -107 -69 -180 -72c43 -8 78 -36 79 -120c0 -84 4 -123 55 -123c64 0 175 102 175 271c0 177 -137 294 -321 294c-195 0 -364 -155 -364 -366c0 -197 138 -321 318 -321c68 0 139 12 192 47c5 4 8 0 3 -4z" />
    <glyph glyph-name="overscore" unicode="&#xaf;" 
d="M399 679h1c33 0 63 0 99 1c37 1 39 2 39 -1c0 -7 -19 -26 -51 -57c-9 0 -47 2 -86 2c-34 0 -48 -3 -83 -3c-37 -1 -39 0 -39 3c0 7 19 25 51 56c9 0 32 -1 69 -1z" />
    <glyph glyph-name="degree" unicode="&#xb0;" horiz-adv-x="376" 
d="M142 577c0 -63 52 -116 115 -116s115 53 115 116s-52 116 -115 116s-115 -53 -115 -116zM127 577c0 72 58 130 130 130s130 -58 130 -130s-58 -130 -130 -130s-130 58 -130 130z" />
    <glyph glyph-name="plusminus" unicode="&#xb1;" horiz-adv-x="558" 
d="M272 126c82 0 110 3 159 6c7 -5 7 -20 0 -24c-54 3 -78 7 -158 7s-104 -4 -158 -7c-7 4 -7 19 0 24c49 -3 77 -6 157 -6zM263 526c5 7 20 7 24 0c-5 -53 -7 -80 -7 -155c76 0 105 3 153 6c7 -5 7 -20 0 -24c-54 3 -78 7 -153 7c0 -76 2 -103 7 -154c-4 -7 -19 -7 -24 0
c3 48 3 76 3 154c-74 0 -102 -4 -153 -7c-7 4 -7 19 0 24c48 -3 77 -6 153 -6c0 76 0 107 -3 155z" />
    <glyph glyph-name="twosuperior" unicode="&#xb2;" horiz-adv-x="373" 
d="M246 359c-77 0 -178 -2 -184 -2c-3 0 -4 7 -1 8c194 98 328 186 352 244c23 51 1 89 -51 89c-54 0 -74 -23 -98 -106c-7 -21 -20 -37 -45 -37c-23 0 -32 17 -17 44c35 64 130 115 198 115c73 0 107 -41 84 -98c-24 -51 -160 -110 -312 -201h77c123 0 150 16 189 71
c4 7 11 4 7 -3c-8 -13 -60 -88 -79 -112c-5 -8 -14 -10 -19 -11c-11 0 -70 -1 -101 -1z" />
    <glyph glyph-name="threesuperior" unicode="&#xb3;" horiz-adv-x="349" 
d="M184 346c-55 0 -89 18 -77 61c11 36 60 47 95 55c7 1 7 -6 2 -7c-15 -4 -28 -12 -32 -27c-8 -29 27 -48 70 -48c31 0 47 0 66 9c19 13 24 20 36 43c29 55 6 113 -49 113c-37 0 -49 -41 -73 -41c-11 0 -19 5 -19 16c0 12 9 20 27 23c105 17 149 38 165 67
c24 42 2 87 -45 87c-40 0 -63 -20 -79 -71c-7 -21 -18 -35 -39 -35c-19 0 -30 15 -19 35c24 51 125 86 182 86c60 0 99 -46 70 -97c-21 -32 -95 -46 -168 -65c20 3 37 6 52 6c65 0 94 -48 59 -104c-15 -25 -57 -49 -96 -70c-37 -20 -84 -36 -128 -36z" />
    <glyph glyph-name="acute" unicode="&#xb4;" 
d="M309 529c-1 -1 -3 -2 -4 -2c-3 0 -4 1 -4 4c0 1 1 3 3 5c57 54 119 151 132 164c5 5 15 6 26 6c9 0 17 0 20 -3s3 -10 3 -21c0 -7 -6 -12 -13 -19c-14 -14 -108 -76 -163 -134z" />
    <glyph glyph-name="paragraph" unicode="&#xb6;" horiz-adv-x="644" 
d="M334 -149v502h-81c-123 0 -197 61 -197 161c0 99 61 158 193 158c14 0 207 -1 221 -1c16 0 82 2 111 2c8 0 8 -9 0 -9h-18c-49 0 -54 -5 -54 -250v-563c0 -11 -11 -11 -11 0v563c0 245 -2 247 -39 247h-113v-810c0 -11 -12 -11 -12 0z" />
    <glyph glyph-name="middot" unicode="&#xb7;" horiz-adv-x="247" 
d="M70 214c-11 16 8 76 29 87c7 4 26 7 42 7s35 -5 38 -10c3 -31 -13 -74 -31 -86c-6 -4 -18 -6 -37 -6s-34 1 -41 8z" />
    <glyph glyph-name="cedilla" unicode="&#xb8;" 
d="M283 -276c0 25 17 47 41 47c39 0 59 -50 107 -50c31 0 51 30 51 61c0 41 -41 77 -177 77c-7 0 -9 4 -5 11c29 40 83 111 107 145c5 7 13 3 9 -2c-24 -35 -48 -70 -65 -95c-5 -4 1 -3 5 -3c108 0 153 -43 153 -79c0 -60 -57 -153 -134 -153c-49 0 -92 17 -92 41z" />
    <glyph glyph-name="onesuperior" unicode="&#xb9;" horiz-adv-x="221" 
d="M212 630c45 21 103 51 130 70c7 5 9 7 18 7c7 0 10 -7 7 -10c-8 -19 -130 -229 -159 -284c-17 -31 -4 -47 29 -47c5 0 4 -7 -1 -7c-13 0 -78 1 -89 1c-9 0 -72 -1 -81 -1c-5 0 -3 7 2 7c31 0 55 10 76 43c12 20 117 209 125 220c5 8 3 12 -6 12c-7 0 -19 -3 -48 -18
c-7 -3 -8 4 -3 7z" />
    <glyph glyph-name="ordmasculine" unicode="&#xba;" horiz-adv-x="330" 
d="M188 429c19 -5 39 0 62 9c33 16 72 117 69 180c-2 25 -12 40 -30 47c-13 5 -39 5 -56 0c-37 -24 -94 -115 -86 -198c7 -23 26 -34 41 -38zM340 515c-23 -40 -65 -72 -105 -93c-19 -11 -55 -27 -76 -27c-27 0 -60 20 -69 45c-4 29 8 82 40 134c24 39 55 70 93 92
c25 11 67 31 89 31h1c27 0 51 -21 59 -46c7 -20 7 -69 -32 -136z" />
    <glyph glyph-name="guillemotright" unicode="&#xbb;" horiz-adv-x="683" 
d="M631 238c-25 46 -147 190 -167 218c-7 11 -23 26 -15 39c7 11 12 12 23 12s22 -8 31 -23l136 -246c3 -3 1 -7 -3 -10c-82 -47 -227 -164 -296 -207c-28 -17 -42 -23 -53 -23c-13 0 -18 9 -11 21s15 22 38 34c45 24 238 134 313 177c5 2 6 5 4 8zM405 262
c-24 44 -158 168 -180 194c-8 9 -23 26 -15 39c7 11 12 12 23 12s20 -6 31 -23c29 -45 122 -174 149 -222c3 -3 1 -7 -3 -10c-83 -47 -293 -182 -360 -222c-27 -15 -41 -23 -52 -23c-13 0 -22 9 -15 21s13 22 36 34c42 23 308 147 382 192c5 2 6 5 4 8z" />
    <glyph glyph-name="onequarter" unicode="&#xbc;" horiz-adv-x="636" 
d="M83 58l-1 -2c1 1 1 1 1 2zM358 348c50 0 213 3 261 6c7 -5 0 -20 -7 -24c-54 3 -211 7 -259 7c-47 0 -207 -4 -261 -7c-7 4 0 19 7 24c49 -3 208 -6 259 -6zM237 78l63 108c5 9 6 16 3 16s-5 -1 -20 -10l-169 -110l-5 -4h128zM455 700c45 21 103 51 130 70c7 5 9 7 18 7
c7 0 10 -7 7 -10c-8 -19 -130 -229 -159 -284c-17 -31 -4 -47 29 -47c5 0 4 -7 -1 -7c-13 0 -78 1 -89 1c-9 0 -72 -1 -81 -1c-5 0 -3 7 2 7c31 0 55 10 76 43c12 20 117 209 125 220c5 8 3 12 -6 12c-7 0 -19 -3 -48 -18c-7 -3 -8 4 -3 7zM175 -91c-20 0 -78 -2 -87 -2
c-5 0 -3 7 2 7c41 0 64 22 83 54c8 15 23 38 39 66h-118c-19 0 -38 0 -55 1c-7 0 -9 7 -2 10c84 52 269 169 351 227c5 4 9 5 12 3c4 -2 5 -5 2 -10c-8 -13 -62 -105 -107 -187h49c46 0 57 9 87 47c4 7 12 3 7 -4c-11 -15 -25 -35 -37 -52c-7 -10 -15 -20 -22 -30
c-3 -3 -8 -5 -16 -5h-93c-17 -29 -31 -54 -39 -69c-19 -31 -12 -51 27 -51c4 0 3 -7 -2 -7c-14 0 -60 2 -81 2z" />
    <glyph glyph-name="onehalf" unicode="&#xbd;" horiz-adv-x="636" 
d="M359 348c50 0 213 3 261 6c7 -5 0 -20 -7 -24c-54 3 -211 7 -259 7c-47 0 -207 -4 -261 -7c-7 4 0 19 7 24c49 -3 208 -6 259 -6zM456 700c45 21 103 51 130 70c7 5 9 7 18 7c7 0 10 -7 7 -10c-8 -19 -130 -229 -159 -284c-17 -31 -4 -47 29 -47c5 0 4 -7 -1 -7
c-13 0 -78 1 -89 1c-9 0 -72 -1 -81 -1c-5 0 -3 7 2 7c31 0 55 10 76 43c12 20 117 209 125 220c5 8 3 12 -6 12c-7 0 -19 -3 -48 -18c-7 -3 -8 4 -3 7zM171 -96c-77 0 -178 -2 -184 -2c-3 0 -4 7 -1 8c194 98 328 186 352 244c23 51 1 89 -51 89c-54 0 -74 -23 -98 -106
c-7 -21 -20 -37 -45 -37c-23 0 -32 17 -17 44c35 64 130 115 198 115c73 0 107 -41 84 -98c-24 -51 -160 -110 -312 -201h77c123 0 150 16 189 71c4 7 11 4 7 -3c-8 -13 -60 -88 -79 -112c-5 -8 -14 -10 -19 -11c-11 0 -70 -1 -101 -1z" />
    <glyph glyph-name="threequarters" unicode="&#xbe;" horiz-adv-x="636" 
d="M83 58l-1 -2c1 1 1 1 1 2zM358 348c50 0 213 3 261 6c7 -5 0 -20 -7 -24c-54 3 -211 7 -259 7c-47 0 -207 -4 -261 -7c-7 4 0 19 7 24c49 -3 208 -6 259 -6zM237 78l63 108c5 9 6 16 3 16s-5 -1 -20 -10l-169 -110l-5 -4h128zM367 419c-55 0 -89 18 -77 61
c11 36 60 47 95 55c7 1 7 -6 2 -7c-15 -4 -28 -12 -32 -27c-8 -29 27 -48 70 -48c31 0 47 0 66 9c19 13 24 20 36 43c29 55 6 113 -49 113c-37 0 -49 -41 -73 -41c-11 0 -19 5 -19 16c0 12 9 20 27 23c105 17 149 38 165 67c24 42 2 87 -45 87c-40 0 -63 -20 -79 -71
c-7 -21 -18 -35 -39 -35c-19 0 -30 15 -19 35c24 51 125 86 182 86c60 0 99 -46 70 -97c-21 -32 -95 -46 -168 -65c20 3 37 6 52 6c65 0 94 -48 59 -104c-15 -25 -57 -49 -96 -70c-37 -20 -84 -36 -128 -36zM175 -91c-20 0 -78 -2 -87 -2c-5 0 -3 7 2 7c41 0 64 22 83 54
c8 15 23 38 39 66h-118c-19 0 -38 0 -55 1c-7 0 -9 7 -2 10c84 52 269 169 351 227c5 4 9 5 12 3c4 -2 5 -5 2 -10c-8 -13 -62 -105 -107 -187h49c46 0 57 9 87 47c4 7 12 3 7 -4c-11 -15 -25 -35 -37 -52c-7 -10 -15 -20 -22 -30c-3 -3 -8 -5 -16 -5h-93
c-17 -29 -31 -54 -39 -69c-19 -31 -12 -51 27 -51c4 0 3 -7 -2 -7c-14 0 -60 2 -81 2z" />
    <glyph glyph-name="questiondown" unicode="&#xbf;" horiz-adv-x="551" 
d="M413 510c19 0 34 -1 41 -8c11 -16 -8 -76 -29 -87c-7 -4 -26 -7 -42 -7s-35 5 -38 10c-5 32 15 73 31 86c6 4 18 6 37 6zM327 242c-1 17 -11 35 -32 42c-28 -7 -78 -38 -117 -81l-7 7c38 35 101 90 162 125c48 27 75 -55 78 -87c1 -35 -11 -63 -28 -90
c-75 -119 -388 -161 -445 -291c-42 -95 27 -194 181 -194c101 0 179 32 198 105c14 70 -27 124 -97 124c-29 0 -71 -16 -98 -31l-5 6c47 24 108 56 167 56c79 0 126 -55 107 -132c-29 -93 -166 -137 -272 -134c-206 0 -302 107 -249 231c52 129 370 175 438 283
c13 21 19 38 19 61z" />
    <glyph glyph-name="Agrave" unicode="&#xc0;" horiz-adv-x="1349" 
d="M1114 897c-55 58 -149 120 -163 134c-7 7 -13 12 -13 19c0 11 0 18 3 21s11 3 20 3c11 0 21 -1 26 -6c11 -13 75 -110 132 -164c2 -2 3 -4 3 -5c0 -3 -1 -4 -4 -4c-1 0 -3 1 -4 2zM1062 782l-324 -387l249 -3c24 140 57 306 75 390zM338 373c-112 0 -173 -45 -216 -145
c-45 -98 25 -251 169 -251c58 0 72 -3 249 198c31 33 84 102 153 183c-141 8 -271 15 -355 15zM1133 783h-15c-21 -104 -49 -263 -70 -391c76 -1 141 -1 188 -1s97 -1 121 -2c19 0 -36 -49 -60 -52c-28 -5 -47 -3 -88 -3c-45 0 -103 2 -170 5l-19 -128
c-11 -71 -1 -115 2 -130c4 -17 21 -26 40 -33c30 11 127 79 161 116l6 -7c-37 -34 -134 -118 -194 -154c-11 -5 -42 -4 -47 1c-24 19 -34 51 -35 70c-3 39 -9 64 2 131c5 33 12 81 23 137c-85 4 -177 10 -269 15c-77 -95 -135 -166 -150 -181c-175 -197 -226 -236 -325 -236
c-166 0 -238 191 -180 275c56 85 183 183 343 183c68 0 188 0 324 -3l324 389c-52 0 -115 -2 -171 -7c-107 -13 -193 -32 -214 -32c-19 0 48 59 55 71c16 8 120 8 163 8h182c192 0 335 7 381 7c7 0 23 0 32 -3c0 -15 -18 -47 -43 -63c-33 -8 -242 18 -297 18z" />
    <glyph glyph-name="Aacute" unicode="&#xc1;" horiz-adv-x="1349" 
d="M1120 896c-1 -1 -3 -2 -4 -2c-3 0 -4 1 -4 4c0 1 1 3 3 5c57 54 119 151 132 164c5 5 15 6 26 6c9 0 17 0 20 -3s3 -10 3 -21c0 -7 -6 -12 -13 -19c-14 -14 -108 -76 -163 -134zM1062 782l-324 -387l249 -3c24 140 57 306 75 390zM338 373c-112 0 -173 -45 -216 -145
c-45 -98 25 -251 169 -251c58 0 72 -3 249 198c31 33 84 102 153 183c-141 8 -271 15 -355 15zM1133 783h-15c-21 -104 -49 -263 -70 -391c76 -1 141 -1 188 -1s97 -1 121 -2c19 0 -36 -49 -60 -52c-28 -5 -47 -3 -88 -3c-45 0 -103 2 -170 5l-19 -128
c-11 -71 -1 -115 2 -130c4 -17 21 -26 40 -33c30 11 127 79 161 116l6 -7c-37 -34 -134 -118 -194 -154c-11 -5 -42 -4 -47 1c-24 19 -34 51 -35 70c-3 39 -9 64 2 131c5 33 12 81 23 137c-85 4 -177 10 -269 15c-77 -95 -135 -166 -150 -181c-175 -197 -226 -236 -325 -236
c-166 0 -238 191 -180 275c56 85 183 183 343 183c68 0 188 0 324 -3l324 389c-52 0 -115 -2 -171 -7c-107 -13 -193 -32 -214 -32c-19 0 48 59 55 71c16 8 120 8 163 8h182c192 0 335 7 381 7c7 0 23 0 32 -3c0 -15 -18 -47 -43 -63c-33 -8 -242 18 -297 18z" />
    <glyph glyph-name="Acircumflex" unicode="&#xc2;" horiz-adv-x="1349" 
d="M1176 1042c-1 3 -3 3 -6 0c-38 -43 -102 -98 -134 -122c-12 -8 -24 -18 -39 -17c-15 3 -21 11 -20 18c0 4 0 15 23 30c40 24 119 67 169 101c4 4 8 4 11 -1c43 -56 58 -75 90 -107c19 -17 21 -26 20 -33c0 -12 -11 -22 -22 -21c-15 1 -28 10 -37 27
c-16 31 -31 74 -55 125zM1062 782l-324 -387l249 -3c24 140 57 306 75 390zM338 373c-112 0 -173 -45 -216 -145c-45 -98 25 -251 169 -251c58 0 72 -3 249 198c31 33 84 102 153 183c-141 8 -271 15 -355 15zM1133 783h-15c-21 -104 -49 -263 -70 -391c76 -1 141 -1 188 -1
s97 -1 121 -2c19 0 -36 -49 -60 -52c-28 -5 -47 -3 -88 -3c-45 0 -103 2 -170 5l-19 -128c-11 -71 -1 -115 2 -130c4 -17 21 -26 40 -33c30 11 127 79 161 116l6 -7c-37 -34 -134 -118 -194 -154c-11 -5 -42 -4 -47 1c-24 19 -34 51 -35 70c-3 39 -9 64 2 131
c5 33 12 81 23 137c-85 4 -177 10 -269 15c-77 -95 -135 -166 -150 -181c-175 -197 -226 -236 -325 -236c-166 0 -238 191 -180 275c56 85 183 183 343 183c68 0 188 0 324 -3l324 389c-52 0 -115 -2 -171 -7c-107 -13 -193 -32 -214 -32c-19 0 48 59 55 71
c16 8 120 8 163 8h182c192 0 335 7 381 7c7 0 23 0 32 -3c0 -15 -18 -47 -43 -63c-33 -8 -242 18 -297 18z" />
    <glyph glyph-name="Atilde" unicode="&#xc3;" horiz-adv-x="1349" 
d="M980 916c59 75 79 102 106 102c47 0 125 -64 165 -64c20 0 23 2 65 60c7 8 15 4 8 -5c-48 -71 -80 -110 -115 -110c-45 0 -121 69 -163 69c-14 0 -15 -6 -58 -57c-9 -11 -13 -6 -8 5zM1062 782l-324 -387l249 -3c24 140 57 306 75 390zM338 373
c-112 0 -173 -45 -216 -145c-45 -98 25 -251 169 -251c58 0 72 -3 249 198c31 33 84 102 153 183c-141 8 -271 15 -355 15zM1133 783h-15c-21 -104 -49 -263 -70 -391c76 -1 141 -1 188 -1s97 -1 121 -2c19 0 -36 -49 -60 -52c-28 -5 -47 -3 -88 -3c-45 0 -103 2 -170 5
l-19 -128c-11 -71 -1 -115 2 -130c4 -17 21 -26 40 -33c30 11 127 79 161 116l6 -7c-37 -34 -134 -118 -194 -154c-11 -5 -42 -4 -47 1c-24 19 -34 51 -35 70c-3 39 -9 64 2 131c5 33 12 81 23 137c-85 4 -177 10 -269 15c-77 -95 -135 -166 -150 -181
c-175 -197 -226 -236 -325 -236c-166 0 -238 191 -180 275c56 85 183 183 343 183c68 0 188 0 324 -3l324 389c-52 0 -115 -2 -171 -7c-107 -13 -193 -32 -214 -32c-19 0 48 59 55 71c16 8 120 8 163 8h182c192 0 335 7 381 7c7 0 23 0 32 -3c0 -15 -18 -47 -43 -63
c-33 -8 -242 18 -297 18z" />
    <glyph glyph-name="Adieresis" unicode="&#xc4;" horiz-adv-x="1349" 
d="M984 958c0 31 23 55 54 55s55 -24 55 -55s-24 -54 -55 -54s-54 23 -54 54zM1202 958c0 31 23 55 54 55s55 -24 55 -55s-24 -54 -55 -54s-54 23 -54 54zM1062 782l-324 -387l249 -3c24 140 57 306 75 390zM338 373c-112 0 -173 -45 -216 -145c-45 -98 25 -251 169 -251
c58 0 72 -3 249 198c31 33 84 102 153 183c-141 8 -271 15 -355 15zM1133 783h-15c-21 -104 -49 -263 -70 -391c76 -1 141 -1 188 -1s97 -1 121 -2c19 0 -36 -49 -60 -52c-28 -5 -47 -3 -88 -3c-45 0 -103 2 -170 5l-19 -128c-11 -71 -1 -115 2 -130c4 -17 21 -26 40 -33
c30 11 127 79 161 116l6 -7c-37 -34 -134 -118 -194 -154c-11 -5 -42 -4 -47 1c-24 19 -34 51 -35 70c-3 39 -9 64 2 131c5 33 12 81 23 137c-85 4 -177 10 -269 15c-77 -95 -135 -166 -150 -181c-175 -197 -226 -236 -325 -236c-166 0 -238 191 -180 275
c56 85 183 183 343 183c68 0 188 0 324 -3l324 389c-52 0 -115 -2 -171 -7c-107 -13 -193 -32 -214 -32c-19 0 48 59 55 71c16 8 120 8 163 8h182c192 0 335 7 381 7c7 0 23 0 32 -3c0 -15 -18 -47 -43 -63c-33 -8 -242 18 -297 18z" />
    <glyph glyph-name="Aring" unicode="&#xc5;" horiz-adv-x="1349" 
d="M1037 892c0 -37 31 -68 68 -68s68 31 68 68s-31 68 -68 68s-68 -31 -68 -68zM1062 782l-324 -387l249 -3c24 140 57 306 75 390zM338 373c-112 0 -173 -45 -216 -145c-45 -98 25 -251 169 -251c58 0 72 -3 249 198c31 33 84 102 153 183c-141 8 -271 15 -355 15z
M1024 892c0 45 36 81 81 81s81 -36 81 -81c0 -29 -13 -53 -36 -68c147 3 252 7 291 7c7 0 23 0 32 -3c0 -15 -18 -47 -43 -63c-33 -8 -242 18 -297 18h-15c-21 -104 -49 -263 -70 -391c76 -1 141 -1 188 -1s97 -1 121 -2c19 0 -36 -49 -60 -52c-28 -5 -47 -3 -88 -3
c-45 0 -103 2 -170 5l-19 -128c-11 -71 -1 -115 2 -130c4 -17 21 -26 40 -33c30 11 127 79 161 116l6 -7c-37 -34 -134 -118 -194 -154c-11 -5 -42 -4 -47 1c-24 19 -34 51 -35 70c-3 39 -9 64 2 131c5 33 12 81 23 137c-85 4 -177 10 -269 15c-77 -95 -135 -166 -150 -181
c-175 -197 -226 -236 -325 -236c-166 0 -238 191 -180 275c56 85 183 183 343 183c68 0 188 0 324 -3l324 389c-52 0 -115 -2 -171 -7c-107 -13 -193 -32 -214 -32c-19 0 48 59 55 71c16 8 120 8 163 8h182c-23 15 -36 39 -36 68z" />
    <glyph glyph-name="AE" unicode="&#xc6;" horiz-adv-x="1572" 
d="M1169 442l2 6l95 333h-2l-342 -337c87 -1 171 -2 247 -2zM338 423c-113 0 -181 -66 -216 -170s35 -276 179 -276c107 0 167 23 357 213c29 29 138 135 215 212c-216 11 -434 21 -535 21zM1246 782c-9 0 -17 1 -24 1c-43 0 -125 2 -207 -6c-107 -13 -193 -32 -214 -32
c-19 0 48 59 55 71c16 8 120 8 163 8h170c192 0 538 7 584 7c7 0 23 0 32 -3c0 -15 -18 -47 -43 -63c-23 -8 -285 6 -441 14c-13 -50 -57 -220 -89 -338h170c47 0 97 -1 121 -2c19 0 -36 -49 -60 -52c-28 -5 -47 -3 -88 -3c-39 0 -95 0 -160 3c-61 -170 -188 -302 -273 -337
c56 0 249 -4 340 7c107 11 202 27 224 27c18 0 -48 -58 -56 -72c-13 -8 -132 -7 -173 -7h-82c-192 0 -402 -8 -423 -8c-31 0 -51 5 -60 15c-4 24 24 56 49 72c51 -12 92 -16 128 -16c141 0 201 108 265 322c-81 3 -172 7 -265 12c-88 -91 -196 -199 -212 -212
c-184 -187 -279 -250 -424 -250c-193 0 -249 207 -205 300c45 93 188 208 349 208c83 0 295 -1 507 -4c128 133 255 247 342 338z" />
    <glyph glyph-name="Ccedilla" unicode="&#xc7;" horiz-adv-x="760" 
d="M702 111c-77 -93 -215 -202 -336 -202c-56 0 -105 12 -145 33c-15 -20 -25 -39 -36 -54c-5 -4 1 -3 5 -3c108 0 153 -43 153 -79c0 -60 -57 -153 -134 -153c-49 0 -92 17 -92 41c0 25 17 47 41 47c39 0 59 -50 107 -50c31 0 51 30 51 61c0 41 -41 77 -177 77
c-7 0 -9 4 -5 11c21 27 52 71 79 106c-169 94 -196 347 -53 557c97 140 308 325 555 325c136 0 223 -66 243 -80c14 -11 -42 -46 -58 -46c-44 0 -134 92 -282 92c-160 0 -298 -121 -387 -258c-160 -252 -87 -573 190 -573c103 0 215 82 274 155c3 4 14 0 7 -7z" />
    <glyph glyph-name="Egrave" unicode="&#xc8;" horiz-adv-x="1066" 
d="M1007 886c-55 58 -149 120 -163 134c-7 7 -13 12 -13 19c0 11 0 18 3 21s11 3 20 3c11 0 21 -1 26 -6c11 -13 75 -110 132 -164c2 -2 3 -4 3 -5c0 -3 -1 -4 -4 -4c-1 0 -3 1 -4 2zM342 445c68 0 156 1 247 2c68 165 148 266 232 313c-73 19 -150 34 -217 34
c-185 0 -304 -93 -400 -322c-9 -40 -38 -56 -73 -56c-40 0 -44 24 -20 61c121 188 321 351 592 351c96 0 206 -22 331 -53c132 -32 167 -45 173 -56c5 -11 -24 -47 -37 -50c-14 0 -103 23 -199 50c-39 11 -89 25 -141 38c-45 -32 -110 -181 -166 -308c97 1 185 3 232 3
s94 -2 115 -7c16 -3 -25 -58 -49 -61c-28 -5 -50 -4 -93 -1c-47 3 -129 14 -222 25c-77 -179 -165 -307 -249 -358c46 0 216 -4 308 7c107 11 211 27 233 27c18 0 -48 -58 -56 -72c-12 -7 -140 -7 -182 -7h-182c-192 0 -392 -8 -413 -8c-31 0 -51 5 -60 15
c-4 24 24 56 49 72c36 8 236 -68 307 -16c70 47 110 182 174 349c-80 9 -163 17 -238 20c-22 0 -5 8 4 8z" />
    <glyph glyph-name="Eacute" unicode="&#xc9;" horiz-adv-x="1066" 
d="M950 888c-1 -1 -3 -2 -4 -2c-3 0 -4 1 -4 4c0 1 1 3 3 5c57 54 119 151 132 164c5 5 15 6 26 6c9 0 17 0 20 -3s3 -10 3 -21c0 -7 -6 -12 -13 -19c-14 -14 -108 -76 -163 -134zM342 445c68 0 156 1 247 2c68 165 148 266 232 313c-73 19 -150 34 -217 34
c-185 0 -304 -93 -400 -322c-9 -40 -38 -56 -73 -56c-40 0 -44 24 -20 61c121 188 321 351 592 351c96 0 206 -22 331 -53c132 -32 167 -45 173 -56c5 -11 -24 -47 -37 -50c-14 0 -103 23 -199 50c-39 11 -89 25 -141 38c-45 -32 -110 -181 -166 -308c97 1 185 3 232 3
s94 -2 115 -7c16 -3 -25 -58 -49 -61c-28 -5 -50 -4 -93 -1c-47 3 -129 14 -222 25c-77 -179 -165 -307 -249 -358c46 0 216 -4 308 7c107 11 211 27 233 27c18 0 -48 -58 -56 -72c-12 -7 -140 -7 -182 -7h-182c-192 0 -392 -8 -413 -8c-31 0 -51 5 -60 15
c-4 24 24 56 49 72c36 8 236 -68 307 -16c70 47 110 182 174 349c-80 9 -163 17 -238 20c-22 0 -5 8 4 8z" />
    <glyph glyph-name="Ecircumflex" unicode="&#xca;" horiz-adv-x="1066" 
d="M995 1022c-1 3 -3 3 -6 0c-38 -43 -102 -98 -134 -122c-12 -8 -24 -18 -39 -17c-15 3 -21 11 -20 18c0 4 0 15 23 30c40 24 119 67 169 101c4 4 8 4 11 -1c43 -56 58 -75 90 -107c19 -17 21 -26 20 -33c0 -12 -11 -22 -22 -21c-15 1 -28 10 -37 27c-16 31 -31 74 -55 125
zM342 445c68 0 156 1 247 2c68 165 148 266 232 313c-73 19 -150 34 -217 34c-185 0 -304 -93 -400 -322c-9 -40 -38 -56 -73 -56c-40 0 -44 24 -20 61c121 188 321 351 592 351c96 0 206 -22 331 -53c132 -32 167 -45 173 -56c5 -11 -24 -47 -37 -50c-14 0 -103 23 -199 50
c-39 11 -89 25 -141 38c-45 -32 -110 -181 -166 -308c97 1 185 3 232 3s94 -2 115 -7c16 -3 -25 -58 -49 -61c-28 -5 -50 -4 -93 -1c-47 3 -129 14 -222 25c-77 -179 -165 -307 -249 -358c46 0 216 -4 308 7c107 11 211 27 233 27c18 0 -48 -58 -56 -72
c-12 -7 -140 -7 -182 -7h-182c-192 0 -392 -8 -413 -8c-31 0 -51 5 -60 15c-4 24 24 56 49 72c36 8 236 -68 307 -16c70 47 110 182 174 349c-80 9 -163 17 -238 20c-22 0 -5 8 4 8z" />
    <glyph glyph-name="Edieresis" unicode="&#xcb;" horiz-adv-x="1066" 
d="M851 987c5 31 33 50 62 45c31 -5 50 -33 45 -64c-5 -29 -33 -50 -64 -43c-29 5 -50 33 -43 62zM1065 949c5 29 34 51 63 44c31 -5 51 -34 44 -63c-5 -31 -34 -49 -63 -44c-31 5 -49 32 -44 63zM342 445c68 0 156 1 247 2c68 165 148 266 232 313c-73 19 -150 34 -217 34
c-185 0 -304 -93 -400 -322c-9 -40 -38 -56 -73 -56c-40 0 -44 24 -20 61c121 188 321 351 592 351c96 0 206 -22 331 -53c132 -32 167 -45 173 -56c5 -11 -24 -47 -37 -50c-14 0 -103 23 -199 50c-39 11 -89 25 -141 38c-45 -32 -110 -181 -166 -308c97 1 185 3 232 3
s94 -2 115 -7c16 -3 -25 -58 -49 -61c-28 -5 -50 -4 -93 -1c-47 3 -129 14 -222 25c-77 -179 -165 -307 -249 -358c46 0 216 -4 308 7c107 11 211 27 233 27c18 0 -48 -58 -56 -72c-12 -7 -140 -7 -182 -7h-182c-192 0 -392 -8 -413 -8c-31 0 -51 5 -60 15
c-4 24 24 56 49 72c36 8 236 -68 307 -16c70 47 110 182 174 349c-80 9 -163 17 -238 20c-22 0 -5 8 4 8z" />
    <glyph glyph-name="Igrave" unicode="&#xcc;" horiz-adv-x="732" 
d="M837 896c-55 58 -149 120 -163 134c-7 7 -13 12 -13 19c0 11 0 18 3 21s11 3 20 3c11 0 21 -1 26 -6c11 -13 75 -110 132 -164c2 -2 3 -4 3 -5c0 -3 -1 -4 -4 -4c-1 0 -3 1 -4 2zM464 421c90 194 163 319 271 367c-97 8 -316 -39 -344 -39c-19 0 30 54 56 65
c16 8 119 6 164 6c126 0 335 9 355 9c32 0 52 -5 59 -14c3 -13 -20 -36 -45 -52c-37 -11 -200 51 -272 0c-74 -50 -87 -175 -164 -350c-88 -196 -192 -325 -283 -373c39 -15 293 40 362 36c26 0 -9 -74 -72 -74l-139 3c-192 0 -368 -8 -390 -8c-31 0 -50 5 -59 15
c0 15 29 42 49 48c24 8 101 -19 174 -19c43 0 77 4 105 27c70 56 96 177 173 353z" />
    <glyph glyph-name="Iacute" unicode="&#xcd;" horiz-adv-x="732" 
d="M812 895c-1 -1 -3 -2 -4 -2c-3 0 -4 1 -4 4c0 1 1 3 3 5c57 54 119 151 132 164c5 5 15 6 26 6c9 0 17 0 20 -3s3 -10 3 -21c0 -7 -6 -12 -13 -19c-14 -14 -108 -76 -163 -134zM464 421c90 194 163 319 271 367c-97 8 -316 -39 -344 -39c-19 0 30 54 56 65
c16 8 119 6 164 6c126 0 335 9 355 9c32 0 52 -5 59 -14c3 -13 -20 -36 -45 -52c-37 -11 -200 51 -272 0c-74 -50 -87 -175 -164 -350c-88 -196 -192 -325 -283 -373c39 -15 293 40 362 36c26 0 -9 -74 -72 -74l-139 3c-192 0 -368 -8 -390 -8c-31 0 -50 5 -59 15
c0 15 29 42 49 48c24 8 101 -19 174 -19c43 0 77 4 105 27c70 56 96 177 173 353z" />
    <glyph glyph-name="Icircumflex" unicode="&#xce;" horiz-adv-x="732" 
d="M823 1042c-1 3 -3 3 -6 0c-38 -43 -102 -98 -134 -122c-12 -8 -24 -18 -39 -17c-15 3 -21 11 -20 18c0 4 0 15 23 30c40 24 119 67 169 101c4 4 8 4 11 -1c43 -56 58 -75 90 -107c19 -17 21 -26 20 -33c0 -12 -11 -22 -22 -21c-15 1 -28 10 -37 27c-16 31 -31 74 -55 125
zM464 421c90 194 163 319 271 367c-97 8 -316 -39 -344 -39c-19 0 30 54 56 65c16 8 119 6 164 6c126 0 335 9 355 9c32 0 52 -5 59 -14c3 -13 -20 -36 -45 -52c-37 -11 -200 51 -272 0c-74 -50 -87 -175 -164 -350c-88 -196 -192 -325 -283 -373c39 -15 293 40 362 36
c26 0 -9 -74 -72 -74l-139 3c-192 0 -368 -8 -390 -8c-31 0 -50 5 -59 15c0 15 29 42 49 48c24 8 101 -19 174 -19c43 0 77 4 105 27c70 56 96 177 173 353z" />
    <glyph glyph-name="Idieresis" unicode="&#xcf;" horiz-adv-x="732" 
d="M636 962c0 31 23 55 54 55s55 -24 55 -55s-24 -54 -55 -54s-54 23 -54 54zM854 962c0 31 23 55 54 55s55 -24 55 -55s-24 -54 -55 -54s-54 23 -54 54zM464 421c90 194 163 319 271 367c-97 8 -316 -39 -344 -39c-19 0 30 54 56 65c16 8 119 6 164 6c126 0 335 9 355 9
c32 0 52 -5 59 -14c3 -13 -20 -36 -45 -52c-37 -11 -200 51 -272 0c-74 -50 -87 -175 -164 -350c-88 -196 -192 -325 -283 -373c39 -15 293 40 362 36c26 0 -9 -74 -72 -74l-139 3c-192 0 -368 -8 -390 -8c-31 0 -50 5 -59 15c0 15 29 42 49 48c24 8 101 -19 174 -19
c43 0 77 4 105 27c70 56 96 177 173 353z" />
    <glyph glyph-name="Eth" unicode="&#xd0;" horiz-adv-x="1138" 
d="M636 -2l-195 2c-192 3 -320 -3 -342 -3c-31 0 -51 5 -60 15c-3 24 24 64 49 81c37 12 226 -78 298 -26c58 40 88 125 133 247c-15 -1 -28 -1 -43 -1c-33 -1 -35 -1 -35 2c0 7 17 23 46 51c11 0 28 -1 51 -1l19 48c70 177 158 313 246 358l7 -2
c-47 -23 -123 -226 -182 -365c-7 -15 -12 -26 -17 -39c35 0 73 0 110 1c33 1 35 2 35 -1c0 -7 -17 -23 -46 -51c-18 0 -75 1 -118 1h-4c-68 -141 -140 -231 -215 -270c35 -3 220 -4 333 4c169 11 252 61 321 204c112 239 -1 539 -363 539c-219 0 -347 -70 -430 -270
c-9 -40 -38 -56 -74 -56c-39 0 -43 24 -19 61c104 161 359 309 573 304c381 0 498 -331 387 -546c-72 -131 -288 -287 -465 -287z" />
    <glyph glyph-name="Ntilde" unicode="&#xd1;" horiz-adv-x="947" 
d="M747 906c59 75 79 102 106 102c47 0 125 -64 165 -64c20 0 23 2 65 60c7 8 15 4 8 -5c-48 -71 -80 -110 -115 -110c-45 0 -121 69 -163 69c-14 0 -15 -6 -58 -57c-9 -11 -13 -6 -8 5zM673 57c-17 -28 -34 -59 -41 -66s-18 -5 -19 2l-47 382c-16 135 -29 231 -42 300
l-254 -379c-182 -270 -282 -452 -539 -452c-82 0 -199 36 -207 44c-9 11 43 61 66 69c20 6 135 -57 263 -57c132 0 224 130 406 400l263 390c-17 87 -36 126 -65 145c-10 6 -21 9 -34 9s-26 -3 -41 -8c-33 -11 -178 -118 -222 -153l-6 7c43 35 199 156 267 193
c20 12 78 19 104 8c55 -24 84 -158 121 -495l35 -302c97 160 198 322 291 455c168 243 266 296 394 296c79 0 206 -22 225 -27c3 -1 4 -2 4 -4c0 -12 -51 -62 -69 -62c-4 0 -8 0 -16 1c-45 5 -161 36 -252 36c-81 0 -149 -65 -280 -252c-112 -159 -208 -319 -305 -480z" />
    <glyph glyph-name="Ograve" unicode="&#xd2;" horiz-adv-x="972" 
d="M778 896c-55 58 -149 120 -163 134c-7 7 -13 12 -13 19c0 11 0 18 3 21s11 3 20 3c11 0 21 -1 26 -6c11 -13 75 -110 132 -164c2 -2 3 -4 3 -5c0 -3 -1 -4 -4 -4c-1 0 -3 1 -4 2zM408 -2c-328 0 -372 331 -221 546c99 150 315 287 475 287c335 0 379 -331 228 -546
c-99 -149 -309 -287 -482 -287zM466 36c152 -3 272 81 349 211c145 229 107 548 -200 548c-156 0 -265 -79 -348 -215c-143 -230 -111 -540 199 -544z" />
    <glyph glyph-name="Oacute" unicode="&#xd3;" horiz-adv-x="972" 
d="M753 886c-1 -1 -3 -2 -4 -2c-3 0 -4 1 -4 4c0 1 1 3 3 5c57 54 119 151 132 164c5 5 15 6 26 6c9 0 17 0 20 -3s3 -10 3 -21c0 -7 -6 -12 -13 -19c-14 -14 -108 -76 -163 -134zM408 -2c-328 0 -372 331 -221 546c99 150 315 287 475 287c335 0 379 -331 228 -546
c-99 -149 -309 -287 -482 -287zM466 36c152 -3 272 81 349 211c145 229 107 548 -200 548c-156 0 -265 -79 -348 -215c-143 -230 -111 -540 199 -544z" />
    <glyph glyph-name="Ocircumflex" unicode="&#xd4;" horiz-adv-x="972" 
d="M785 1042c-1 3 -3 3 -6 0c-38 -43 -102 -98 -134 -122c-12 -8 -24 -18 -39 -17c-15 3 -21 11 -20 18c0 4 0 15 23 30c40 24 119 67 169 101c4 4 8 4 11 -1c43 -56 58 -75 90 -107c19 -17 21 -26 20 -33c0 -12 -11 -22 -22 -21c-15 1 -28 10 -37 27c-16 31 -31 74 -55 125
zM408 -2c-328 0 -372 331 -221 546c99 150 315 287 475 287c335 0 379 -331 228 -546c-99 -149 -309 -287 -482 -287zM466 36c152 -3 272 81 349 211c145 229 107 548 -200 548c-156 0 -265 -79 -348 -215c-143 -230 -111 -540 199 -544z" />
    <glyph glyph-name="Otilde" unicode="&#xd5;" horiz-adv-x="972" 
d="M600 926c59 75 79 102 106 102c47 0 125 -64 165 -64c20 0 23 2 65 60c7 8 15 4 8 -5c-48 -71 -80 -110 -115 -110c-45 0 -121 69 -163 69c-14 0 -15 -6 -58 -57c-9 -11 -13 -6 -8 5zM408 -2c-328 0 -372 331 -221 546c99 150 315 287 475 287c335 0 379 -331 228 -546
c-99 -149 -309 -287 -482 -287zM466 36c152 -3 272 81 349 211c145 229 107 548 -200 548c-156 0 -265 -79 -348 -215c-143 -230 -111 -540 199 -544z" />
    <glyph glyph-name="Odieresis" unicode="&#xd6;" horiz-adv-x="972" 
d="M598 959c0 31 23 55 54 55s55 -24 55 -55s-24 -54 -55 -54s-54 23 -54 54zM816 959c0 31 23 55 54 55s55 -24 55 -55s-24 -54 -55 -54s-54 23 -54 54zM408 -2c-328 0 -372 331 -221 546c99 150 315 287 475 287c335 0 379 -331 228 -546c-99 -149 -309 -287 -482 -287z
M466 36c152 -3 272 81 349 211c145 229 107 548 -200 548c-156 0 -265 -79 -348 -215c-143 -230 -111 -540 199 -544z" />
    <glyph glyph-name="multiply" unicode="&#xd7;" horiz-adv-x="603" 
d="M156 93c-11 1 -19 12 -23 19c48 39 96 83 152 139c-55 55 -99 92 -144 131c-1 7 9 17 16 21c39 -49 81 -89 136 -144l1 1c59 59 104 111 137 147c9 0 16 -8 20 -15c-45 -32 -89 -81 -148 -140l-1 -1c59 -59 107 -101 146 -132c0 -9 -11 -16 -18 -20
c-32 44 -79 85 -136 144c-55 -55 -103 -103 -138 -150z" />
    <glyph glyph-name="Oslash" unicode="&#xd8;" horiz-adv-x="972" 
d="M523 428l249 329c-43 24 -93 38 -157 38c-156 0 -265 -79 -348 -215c-104 -165 -115 -372 0 -476c88 109 176 223 256 324zM466 36c152 -3 272 81 349 211c112 176 114 401 -27 500c-85 -106 -181 -229 -253 -325c-80 -103 -169 -218 -253 -330c45 -35 105 -55 184 -56z
M408 -2c-68 0 -123 14 -167 38l-43 -59c-19 -1 -19 -3 -28 8l51 62c-152 102 -148 332 -34 497c99 150 315 287 475 287c57 0 105 -10 146 -27l60 81c17 0 15 -1 26 -12c-21 -24 -43 -50 -66 -78c179 -92 182 -337 62 -510c-99 -149 -309 -287 -482 -287z" />
    <glyph glyph-name="Ugrave" unicode="&#xd9;" horiz-adv-x="928" 
d="M707 886c-55 58 -149 120 -163 134c-7 7 -13 12 -13 19c0 11 0 18 3 21s11 3 20 3c11 0 21 -1 26 -6c11 -13 75 -110 132 -164c2 -2 3 -4 3 -5c0 -3 -1 -4 -4 -4c-1 0 -3 1 -4 2zM836 424c-125 -205 -189 -299 -186 -362c3 -20 23 -53 38 -55c32 8 160 112 200 147l5 -7
c-39 -34 -170 -150 -234 -185c-8 -5 -39 -2 -43 2c-21 17 -44 45 -48 84c-3 45 16 92 53 157c-93 -104 -271 -253 -368 -253c-100 0 -179 97 -184 209s77 219 176 353c91 120 157 202 154 254c-3 20 -12 36 -27 55c-32 -8 -173 -110 -213 -144l-6 8c39 33 182 144 245 178
c11 6 38 0 44 -3c20 -17 28 -46 35 -85c8 -61 -76 -161 -175 -298c-93 -125 -161 -229 -156 -312c5 -76 52 -178 159 -178c79 0 260 164 333 245c35 57 79 125 135 217c147 237 166 252 163 315c-3 20 -12 36 -28 55c-32 -8 -173 -108 -212 -142l-6 8c39 33 182 143 244 178
c11 6 38 0 44 -3c21 -17 28 -46 36 -85c3 -62 -28 -109 -178 -353z" />
    <glyph glyph-name="Uacute" unicode="&#xda;" horiz-adv-x="928" 
d="M649 886c-1 -1 -3 -2 -4 -2c-3 0 -4 1 -4 4c0 1 1 3 3 5c57 54 119 151 132 164c5 5 15 6 26 6c9 0 17 0 20 -3s3 -10 3 -21c0 -7 -6 -12 -13 -19c-14 -14 -108 -76 -163 -134zM836 424c-125 -205 -189 -299 -186 -362c3 -20 23 -53 38 -55c32 8 160 112 200 147l5 -7
c-39 -34 -170 -150 -234 -185c-8 -5 -39 -2 -43 2c-21 17 -44 45 -48 84c-3 45 16 92 53 157c-93 -104 -271 -253 -368 -253c-100 0 -179 97 -184 209s77 219 176 353c91 120 157 202 154 254c-3 20 -12 36 -27 55c-32 -8 -173 -110 -213 -144l-6 8c39 33 182 144 245 178
c11 6 38 0 44 -3c20 -17 28 -46 35 -85c8 -61 -76 -161 -175 -298c-93 -125 -161 -229 -156 -312c5 -76 52 -178 159 -178c79 0 260 164 333 245c35 57 79 125 135 217c147 237 166 252 163 315c-3 20 -12 36 -28 55c-32 -8 -173 -108 -212 -142l-6 8c39 33 182 143 244 178
c11 6 38 0 44 -3c21 -17 28 -46 36 -85c3 -62 -28 -109 -178 -353z" />
    <glyph glyph-name="Ucircumflex" unicode="&#xdb;" horiz-adv-x="928" 
d="M728 1042c-1 3 -3 3 -6 0c-38 -43 -102 -98 -134 -122c-12 -8 -24 -18 -39 -17c-15 3 -21 11 -20 18c0 4 0 15 23 30c40 24 119 67 169 101c4 4 8 4 11 -1c43 -56 58 -75 90 -107c19 -17 21 -26 20 -33c0 -12 -11 -22 -22 -21c-15 1 -28 10 -37 27c-16 31 -31 74 -55 125
zM836 424c-125 -205 -189 -299 -186 -362c3 -20 23 -53 38 -55c32 8 160 112 200 147l5 -7c-39 -34 -170 -150 -234 -185c-8 -5 -39 -2 -43 2c-21 17 -44 45 -48 84c-3 45 16 92 53 157c-93 -104 -271 -253 -368 -253c-100 0 -179 97 -184 209s77 219 176 353
c91 120 157 202 154 254c-3 20 -12 36 -27 55c-32 -8 -173 -110 -213 -144l-6 8c39 33 182 144 245 178c11 6 38 0 44 -3c20 -17 28 -46 35 -85c8 -61 -76 -161 -175 -298c-93 -125 -161 -229 -156 -312c5 -76 52 -178 159 -178c79 0 260 164 333 245c35 57 79 125 135 217
c147 237 166 252 163 315c-3 20 -12 36 -28 55c-32 -8 -173 -108 -212 -142l-6 8c39 33 182 143 244 178c11 6 38 0 44 -3c21 -17 28 -46 36 -85c3 -62 -28 -109 -178 -353z" />
    <glyph glyph-name="Udieresis" unicode="&#xdc;" horiz-adv-x="928" 
d="M745 948c0 31 23 55 54 55s55 -24 55 -55s-24 -54 -55 -54s-54 23 -54 54zM527 948c0 31 23 55 54 55s55 -24 55 -55s-24 -54 -55 -54s-54 23 -54 54zM836 424c-125 -205 -189 -299 -186 -362c3 -20 23 -53 38 -55c32 8 160 112 200 147l5 -7
c-39 -34 -170 -150 -234 -185c-8 -5 -39 -2 -43 2c-21 17 -44 45 -48 84c-3 45 16 92 53 157c-93 -104 -271 -253 -368 -253c-100 0 -179 97 -184 209s77 219 176 353c91 120 157 202 154 254c-3 20 -12 36 -27 55c-32 -8 -173 -110 -213 -144l-6 8c39 33 182 144 245 178
c11 6 38 0 44 -3c20 -17 28 -46 35 -85c8 -61 -76 -161 -175 -298c-93 -125 -161 -229 -156 -312c5 -76 52 -178 159 -178c79 0 260 164 333 245c35 57 79 125 135 217c147 237 166 252 163 315c-3 20 -12 36 -28 55c-32 -8 -173 -108 -212 -142l-6 8c39 33 182 143 244 178
c11 6 38 0 44 -3c21 -17 28 -46 36 -85c3 -62 -28 -109 -178 -353z" />
    <glyph glyph-name="Yacute" unicode="&#xdd;" horiz-adv-x="599" 
d="M631 871c-1 -1 -3 -2 -4 -2c-3 0 -4 1 -4 4c0 1 1 3 3 5c57 54 119 151 132 164c5 5 15 6 26 6c9 0 17 0 20 -3s3 -10 3 -21c0 -7 -6 -12 -13 -19c-14 -14 -108 -76 -163 -134zM257 3c-123 0 -254 -3 -307 -3c-19 0 33 55 54 55c255 0 273 110 421 374
c-21 127 -52 242 -95 302c-15 20 -44 31 -63 38c-35 -11 -145 -81 -188 -116l-5 7c43 35 170 128 241 165c11 5 26 3 33 -1c17 -11 43 -38 51 -53c61 -109 89 -247 97 -330c121 101 239 195 320 267c99 88 175 152 218 193c32 32 61 -9 28 -34c-56 -37 -154 -107 -236 -170
c-101 -80 -230 -182 -337 -287c-119 -222 -140 -273 -354 -360c107 0 289 23 339 23c21 0 -22 -60 -49 -68c-16 -8 -40 -2 -168 -2z" />
    <glyph glyph-name="Thorn" unicode="&#xde;" horiz-adv-x="925" 
d="M631 211c63 0 136 75 167 130c47 84 68 233 23 265c-32 -12 -228 -174 -342 -338c39 -31 93 -57 152 -57zM464 421c90 194 163 319 271 367c-97 8 -316 -39 -344 -39c-19 0 30 54 56 65c16 8 119 6 164 6c126 0 335 9 355 9c32 0 52 -5 59 -14c3 -13 -20 -36 -45 -52
c-37 -11 -200 51 -272 0c-74 -50 -87 -175 -164 -350c-17 -37 -34 -71 -51 -103c113 133 324 336 393 348c77 -24 32 -216 -24 -288c-61 -79 -180 -182 -292 -182c-51 0 -93 12 -130 35c-60 -91 -123 -152 -179 -183c39 -15 293 40 362 36c26 0 -9 -74 -72 -74l-139 3
c-192 0 -368 -8 -390 -8c-31 0 -50 5 -59 15c0 15 29 42 49 48c24 8 101 -19 174 -19c43 0 77 4 105 27c70 56 96 177 173 353z" />
    <glyph glyph-name="germandbls" unicode="&#xdf;" horiz-adv-x="635" 
d="M341 -8c-43 -1 -87 16 -107 49c-22 36 -2 102 56 118l4 -3c-3 -41 14 -80 43 -105c35 -31 74 -38 116 -21c61 28 26 103 -25 231c-17 44 -14 90 -1 134c18 63 85 103 151 140c64 36 119 68 142 117c32 72 -17 138 -110 138c-88 0 -166 -54 -292 -274
c-122 -221 -179 -346 -283 -533c-90 -165 -221 -230 -293 -230c-65 0 -101 33 -101 80c0 40 29 75 68 82c-3 -19 0 -47 4 -66c8 -36 33 -75 69 -75c49 0 76 12 182 203c56 104 174 340 246 474h-62c-8 3 -8 9 -3 12l110 64c112 171 282 287 413 287c102 0 151 -76 119 -148
c-33 -70 -123 -91 -204 -137c-55 -31 -92 -53 -107 -98s3 -98 26 -146c52 -113 54 -205 -25 -254c-43 -27 -83 -39 -136 -39z" />
    <glyph glyph-name="agrave" unicode="&#xe0;" horiz-adv-x="579" 
d="M544 580c-55 58 -149 120 -163 134c-7 7 -13 12 -13 19c0 11 0 18 3 21s11 3 20 3c11 0 21 -1 26 -6c11 -13 75 -110 132 -164c2 -2 3 -4 3 -5c0 -3 -1 -4 -4 -4c-1 0 -3 1 -4 2zM131 53c49 14 235 199 347 333c-63 82 -101 102 -140 102c-70 0 -162 -99 -202 -221
c-32 -99 -32 -183 -5 -214zM303 84c-5 62 64 144 98 199c-88 -93 -210 -208 -293 -280c-9 -7 -35 -4 -40 0c-47 37 -47 154 -6 251c64 159 247 258 334 258c49 0 77 -9 136 -73c15 12 47 44 70 68c4 4 7 5 8 3c1 -1 1 -3 1 -5c-65 -82 -228 -328 -224 -412
c1 -17 16 -35 36 -42c25 11 81 46 120 88l6 -7c-37 -36 -94 -90 -158 -129c-9 -5 -53 -5 -56 1c-21 24 -31 60 -32 80z" />
    <glyph glyph-name="aacute" unicode="&#xe1;" horiz-adv-x="579" 
d="M493 590c-1 -1 -3 -2 -4 -2c-3 0 -4 1 -4 4c0 1 1 3 3 5c57 54 119 151 132 164c5 5 15 6 26 6c9 0 17 0 20 -3s3 -10 3 -21c0 -7 -6 -12 -13 -19c-14 -14 -108 -76 -163 -134zM131 53c49 14 235 199 347 333c-63 82 -101 102 -140 102c-70 0 -162 -99 -202 -221
c-32 -99 -32 -183 -5 -214zM303 84c-5 62 64 144 98 199c-88 -93 -210 -208 -293 -280c-9 -7 -35 -4 -40 0c-47 37 -47 154 -6 251c64 159 247 258 334 258c49 0 77 -9 136 -73c15 12 47 44 70 68c4 4 7 5 8 3c1 -1 1 -3 1 -5c-65 -82 -228 -328 -224 -412
c1 -17 16 -35 36 -42c25 11 81 46 120 88l6 -7c-37 -36 -94 -90 -158 -129c-9 -5 -53 -5 -56 1c-21 24 -31 60 -32 80z" />
    <glyph glyph-name="acircumflex" unicode="&#xe2;" horiz-adv-x="579" 
d="M560 722c-1 3 -3 3 -6 0c-38 -43 -102 -98 -134 -122c-12 -8 -24 -18 -39 -17c-15 3 -21 11 -20 18c0 4 0 15 23 30c40 24 119 67 169 101c4 4 8 4 11 -1c43 -56 58 -75 90 -107c19 -17 21 -26 20 -33c0 -12 -11 -22 -22 -21c-15 1 -28 10 -37 27c-16 31 -31 74 -55 125z
M131 53c49 14 235 199 347 333c-63 82 -101 102 -140 102c-70 0 -162 -99 -202 -221c-32 -99 -32 -183 -5 -214zM303 84c-5 62 64 144 98 199c-88 -93 -210 -208 -293 -280c-9 -7 -35 -4 -40 0c-47 37 -47 154 -6 251c64 159 247 258 334 258c49 0 77 -9 136 -73
c15 12 47 44 70 68c4 4 7 5 8 3c1 -1 1 -3 1 -5c-65 -82 -228 -328 -224 -412c1 -17 16 -35 36 -42c25 11 81 46 120 88l6 -7c-37 -36 -94 -90 -158 -129c-9 -5 -53 -5 -56 1c-21 24 -31 60 -32 80z" />
    <glyph glyph-name="atilde" unicode="&#xe3;" horiz-adv-x="579" 
d="M358 600c59 75 79 102 106 102c47 0 125 -64 165 -64c20 0 23 2 65 60c7 8 15 4 8 -5c-48 -71 -80 -110 -115 -110c-45 0 -121 69 -163 69c-14 0 -15 -6 -58 -57c-9 -11 -13 -6 -8 5zM131 53c49 14 235 199 347 333c-63 82 -101 102 -140 102c-70 0 -162 -99 -202 -221
c-32 -99 -32 -183 -5 -214zM303 84c-5 62 64 144 98 199c-88 -93 -210 -208 -293 -280c-9 -7 -35 -4 -40 0c-47 37 -47 154 -6 251c64 159 247 258 334 258c49 0 77 -9 136 -73c15 12 47 44 70 68c4 4 7 5 8 3c1 -1 1 -3 1 -5c-65 -82 -228 -328 -224 -412
c1 -17 16 -35 36 -42c25 11 81 46 120 88l6 -7c-37 -36 -94 -90 -158 -129c-9 -5 -53 -5 -56 1c-21 24 -31 60 -32 80z" />
    <glyph glyph-name="adieresis" unicode="&#xe4;" horiz-adv-x="579" 
d="M370 648c0 31 23 55 54 55s55 -24 55 -55s-24 -54 -55 -54s-54 23 -54 54zM588 648c0 31 23 55 54 55s55 -24 55 -55s-24 -54 -55 -54s-54 23 -54 54zM131 53c49 14 235 199 347 333c-63 82 -101 102 -140 102c-70 0 -162 -99 -202 -221c-32 -99 -32 -183 -5 -214z
M303 84c-5 62 64 144 98 199c-88 -93 -210 -208 -293 -280c-9 -7 -35 -4 -40 0c-47 37 -47 154 -6 251c64 159 247 258 334 258c49 0 77 -9 136 -73c15 12 47 44 70 68c4 4 7 5 8 3c1 -1 1 -3 1 -5c-65 -82 -228 -328 -224 -412c1 -17 16 -35 36 -42c25 11 81 46 120 88
l6 -7c-37 -36 -94 -90 -158 -129c-9 -5 -53 -5 -56 1c-21 24 -31 60 -32 80z" />
    <glyph glyph-name="aring" unicode="&#xe5;" horiz-adv-x="579" 
d="M472 660c0 -37 31 -68 68 -68s68 31 68 68s-31 68 -68 68s-68 -31 -68 -68zM459 660c0 45 36 81 81 81s81 -36 81 -81s-36 -81 -81 -81s-81 36 -81 81zM131 53c49 14 235 199 347 333c-63 82 -101 102 -140 102c-70 0 -162 -99 -202 -221c-32 -99 -32 -183 -5 -214z
M303 84c-5 62 64 144 98 199c-88 -93 -210 -208 -293 -280c-9 -7 -35 -4 -40 0c-47 37 -47 154 -6 251c64 159 247 258 334 258c49 0 77 -9 136 -73c15 12 47 44 70 68c4 4 7 5 8 3c1 -1 1 -3 1 -5c-65 -82 -228 -328 -224 -412c1 -17 16 -35 36 -42c25 11 81 46 120 88
l6 -7c-37 -36 -94 -90 -158 -129c-9 -5 -53 -5 -56 1c-21 24 -31 60 -32 80z" />
    <glyph glyph-name="ae" unicode="&#xe6;" horiz-adv-x="816" 
d="M738 383c24 62 -55 115 -115 96c-58 -39 -162 -181 -178 -312c198 118 277 167 293 216zM131 53c49 14 235 199 347 333c-63 82 -101 102 -140 102c-70 0 -162 -99 -202 -221c-32 -99 -32 -183 -5 -214zM108 3c-9 -7 -35 -4 -40 0c-47 37 -47 154 -6 251
c64 159 247 258 334 258c47 0 76 -8 142 -79c23 19 45 33 66 45c39 21 84 36 124 36c45 0 84 -15 89 -47c11 -65 -90 -147 -373 -310c-1 -16 -1 -31 0 -46c11 -39 31 -59 58 -66c32 -9 83 3 120 20c27 11 91 62 123 101l9 -5c-41 -49 -102 -95 -155 -124
c-35 -19 -81 -43 -129 -43c-40 0 -85 35 -101 79c-11 40 -22 107 50 227l5 9c-86 -99 -225 -225 -316 -306z" />
    <glyph glyph-name="ccedilla" unicode="&#xe7;" horiz-adv-x="493" 
d="M23 -242c0 25 17 47 41 47c39 0 59 -50 107 -50c31 0 51 30 51 61c0 41 -41 77 -177 77c-7 0 -9 4 -5 11l73 97c-31 12 -57 36 -68 69c-11 40 -29 110 43 230c39 68 119 137 210 186c39 21 77 31 121 31c64 0 94 -28 94 -64c0 -34 -37 -55 -58 -58c-12 48 -43 91 -108 91
c-19 0 -29 -2 -44 -6c-49 -35 -92 -81 -125 -137c-43 -71 -66 -152 -59 -232c11 -39 35 -59 62 -66c32 -9 81 1 118 18c25 10 84 54 115 93l9 -5c-41 -49 -89 -85 -142 -114c-35 -19 -79 -43 -127 -43c-10 0 -21 2 -32 5l-31 -47c-5 -4 1 -3 5 -3c108 0 153 -43 153 -79
c0 -60 -57 -153 -134 -153c-49 0 -92 17 -92 41z" />
    <glyph glyph-name="egrave" unicode="&#xe8;" horiz-adv-x="486" 
d="M437 585c-55 58 -149 120 -163 134c-7 7 -13 12 -13 19c0 11 0 18 3 21s11 3 20 3c11 0 21 -1 26 -6c11 -13 75 -110 132 -164c2 -2 3 -4 3 -5c0 -3 -1 -4 -4 -4c-1 0 -3 1 -4 2zM409 383c24 62 -55 115 -115 96c-58 -39 -162 -181 -178 -312c198 118 277 167 293 216z
M488 467c11 -65 -90 -147 -373 -310c-1 -16 -1 -31 0 -46c11 -39 31 -59 58 -66c32 -9 83 3 120 20c27 11 91 62 123 101l9 -5c-41 -49 -102 -95 -155 -124c-35 -19 -81 -43 -129 -43c-40 0 -85 35 -101 79c-11 40 -22 107 50 227c38 68 118 140 185 178c39 21 84 36 124 36
c45 0 84 -15 89 -47z" />
    <glyph glyph-name="eacute" unicode="&#xe9;" horiz-adv-x="486" 
d="M419 590c-1 -1 -3 -2 -4 -2c-3 0 -4 1 -4 4c0 1 1 3 3 5c57 54 119 151 132 164c5 5 15 6 26 6c9 0 17 0 20 -3s3 -10 3 -21c0 -7 -6 -12 -13 -19c-14 -14 -108 -76 -163 -134zM409 383c24 62 -55 115 -115 96c-58 -39 -162 -181 -178 -312c198 118 277 167 293 216z
M488 467c11 -65 -90 -147 -373 -310c-1 -16 -1 -31 0 -46c11 -39 31 -59 58 -66c32 -9 83 3 120 20c27 11 91 62 123 101l9 -5c-41 -49 -102 -95 -155 -124c-35 -19 -81 -43 -129 -43c-40 0 -85 35 -101 79c-11 40 -22 107 50 227c38 68 118 140 185 178c39 21 84 36 124 36
c45 0 84 -15 89 -47z" />
    <glyph glyph-name="ecircumflex" unicode="&#xea;" horiz-adv-x="486" 
d="M449 731c-1 3 -3 3 -6 0c-38 -43 -102 -98 -134 -122c-12 -8 -24 -18 -39 -17c-15 3 -21 11 -20 18c0 4 0 15 23 30c40 24 119 67 169 101c4 4 8 4 11 -1c43 -56 58 -75 90 -107c19 -17 21 -26 20 -33c0 -12 -11 -22 -22 -21c-15 1 -28 10 -37 27c-16 31 -31 74 -55 125z
M409 383c24 62 -55 115 -115 96c-58 -39 -162 -181 -178 -312c198 118 277 167 293 216zM488 467c11 -65 -90 -147 -373 -310c-1 -16 -1 -31 0 -46c11 -39 31 -59 58 -66c32 -9 83 3 120 20c27 11 91 62 123 101l9 -5c-41 -49 -102 -95 -155 -124c-35 -19 -81 -43 -129 -43
c-40 0 -85 35 -101 79c-11 40 -22 107 50 227c38 68 118 140 185 178c39 21 84 36 124 36c45 0 84 -15 89 -47z" />
    <glyph glyph-name="edieresis" unicode="&#xeb;" horiz-adv-x="486" 
d="M263 648c0 31 23 55 54 55s55 -24 55 -55s-24 -54 -55 -54s-54 23 -54 54zM481 648c0 31 23 55 54 55s55 -24 55 -55s-24 -54 -55 -54s-54 23 -54 54zM409 383c24 62 -55 115 -115 96c-58 -39 -162 -181 -178 -312c198 118 277 167 293 216zM488 467
c11 -65 -90 -147 -373 -310c-1 -16 -1 -31 0 -46c11 -39 31 -59 58 -66c32 -9 83 3 120 20c27 11 91 62 123 101l9 -5c-41 -49 -102 -95 -155 -124c-35 -19 -81 -43 -129 -43c-40 0 -85 35 -101 79c-11 40 -22 107 50 227c38 68 118 140 185 178c39 21 84 36 124 36
c45 0 84 -15 89 -47z" />
    <glyph glyph-name="igrave" unicode="&#xec;" horiz-adv-x="309" 
d="M319 579c-55 58 -149 120 -163 134c-7 7 -13 12 -13 19c0 11 0 18 3 21s11 3 20 3c11 0 21 -1 26 -6c11 -13 75 -110 132 -164c2 -2 3 -4 3 -5c0 -3 -1 -4 -4 -4c-1 0 -3 1 -4 2zM292 430c0 -40 -73 -126 -108 -183c-39 -63 -84 -125 -81 -162c1 -17 23 -30 43 -37
c32 11 83 50 120 87l6 -7c-37 -36 -91 -86 -155 -125c-10 -5 -49 -5 -55 1c-25 19 -40 54 -41 74c-3 41 54 124 91 185c52 87 87 127 95 160c5 19 -15 41 -30 44c-25 -8 -87 -52 -124 -84l-7 5c35 35 115 93 165 125c11 7 22 8 33 3c23 -10 48 -62 48 -86z" />
    <glyph glyph-name="iacute" unicode="&#xed;" horiz-adv-x="309" 
d="M302 586c-1 -1 -3 -2 -4 -2c-3 0 -4 1 -4 4c0 1 1 3 3 5c57 54 119 151 132 164c5 5 15 6 26 6c9 0 17 0 20 -3s3 -10 3 -21c0 -7 -6 -12 -13 -19c-14 -14 -108 -76 -163 -134zM292 430c0 -40 -73 -126 -108 -183c-39 -63 -84 -125 -81 -162c1 -17 23 -30 43 -37
c32 11 83 50 120 87l6 -7c-37 -36 -91 -86 -155 -125c-10 -5 -49 -5 -55 1c-25 19 -40 54 -41 74c-3 41 54 124 91 185c52 87 87 127 95 160c5 19 -15 41 -30 44c-25 -8 -87 -52 -124 -84l-7 5c35 35 115 93 165 125c11 7 22 8 33 3c23 -10 48 -62 48 -86z" />
    <glyph glyph-name="icircumflex" unicode="&#xee;" horiz-adv-x="309" 
d="M347 716c-1 3 -3 3 -6 0c-38 -43 -102 -98 -134 -122c-12 -8 -24 -18 -39 -17c-15 3 -21 11 -20 18c0 4 0 15 23 30c40 24 119 67 169 101c4 4 8 4 11 -1c43 -56 58 -75 90 -107c19 -17 21 -26 20 -33c0 -12 -11 -22 -22 -21c-15 1 -28 10 -37 27c-16 31 -31 74 -55 125z
M292 430c0 -40 -73 -126 -108 -183c-39 -63 -84 -125 -81 -162c1 -17 23 -30 43 -37c32 11 83 50 120 87l6 -7c-37 -36 -91 -86 -155 -125c-10 -5 -49 -5 -55 1c-25 19 -40 54 -41 74c-3 41 54 124 91 185c52 87 87 127 95 160c5 19 -15 41 -30 44c-25 -8 -87 -52 -124 -84
l-7 5c35 35 115 93 165 125c11 7 22 8 33 3c23 -10 48 -62 48 -86z" />
    <glyph glyph-name="idieresis" unicode="&#xef;" horiz-adv-x="309" 
d="M135 638c0 31 23 55 54 55s55 -24 55 -55s-24 -54 -55 -54s-54 23 -54 54zM353 638c0 31 23 55 54 55s55 -24 55 -55s-24 -54 -55 -54s-54 23 -54 54zM292 430c0 -40 -73 -126 -108 -183c-39 -63 -84 -125 -81 -162c1 -17 23 -30 43 -37c32 11 83 50 120 87l6 -7
c-37 -36 -91 -86 -155 -125c-10 -5 -49 -5 -55 1c-25 19 -40 54 -41 74c-3 41 54 124 91 185c52 87 87 127 95 160c5 19 -15 41 -30 44c-25 -8 -87 -52 -124 -84l-7 5c35 35 115 93 165 125c11 7 22 8 33 3c23 -10 48 -62 48 -86z" />
    <glyph glyph-name="eth" unicode="&#xf0;" horiz-adv-x="534" 
d="M171 45c32 -9 74 -1 114 15c36 19 87 111 119 200c17 47 33 102 40 134c-11 52 -41 77 -74 88c-24 8 -53 7 -80 -1c-66 -40 -190 -224 -177 -370c11 -39 31 -59 58 -66zM150 -6c-48 0 -96 35 -112 79c-11 40 -22 107 50 227c38 68 119 143 186 181c39 21 85 36 112 36
c36 0 62 -8 77 -24c7 68 7 134 3 193c-63 -23 -115 -42 -158 -61c-8 1 -13 16 -8 23c43 12 98 27 166 48c-4 56 -11 102 -19 129c-5 13 2 17 7 1c15 -41 28 -82 39 -121c72 23 130 52 173 68c8 -3 16 -16 9 -23c-51 -15 -108 -30 -180 -53c47 -179 43 -334 -41 -470
c-56 -100 -126 -154 -195 -193c-35 -19 -70 -40 -109 -40z" />
    <glyph glyph-name="ntilde" unicode="&#xf1;" horiz-adv-x="620" 
d="M273 585c59 75 79 102 106 102c47 0 125 -64 165 -64c20 0 23 2 65 60c7 8 15 4 8 -5c-48 -71 -80 -110 -115 -110c-45 0 -121 69 -163 69c-14 0 -15 -6 -58 -57c-9 -11 -13 -6 -8 5zM60 4c-20 0 -81 -15 -60 41c60 80 189 286 185 368c-1 17 -11 35 -32 42
c-28 -7 -78 -38 -117 -81l-7 7c38 35 101 90 162 125c47 26 70 -59 73 -92c3 -52 -47 -141 -85 -206c115 147 289 284 358 305c63 -14 60 -86 -44 -261c-37 -63 -78 -125 -75 -162c1 -17 9 -33 29 -40c32 11 84 48 121 85l6 -7c-37 -36 -91 -86 -155 -125
c-11 -7 -40 -3 -45 1c-24 19 -38 59 -38 79c-3 41 56 123 90 184c83 144 82 173 57 195c-59 -19 -214 -140 -329 -306c-35 -51 -72 -117 -94 -152z" />
    <glyph glyph-name="ograve" unicode="&#xf2;" horiz-adv-x="532" 
d="M441 586c-55 58 -149 120 -163 134c-7 7 -13 12 -13 19c0 11 0 18 3 21s11 3 20 3c11 0 21 -1 26 -6c11 -13 75 -110 132 -164c2 -2 3 -4 3 -5c0 -3 -1 -4 -4 -4c-1 0 -3 1 -4 2zM171 45c32 -9 74 -1 114 15c54 27 145 223 137 330c-4 47 -22 75 -53 86
c-11 3 -39 16 -79 5c-66 -40 -190 -224 -177 -370c11 -39 31 -59 58 -66zM441 200c-40 -70 -113 -128 -183 -166c-35 -19 -69 -40 -108 -40c-48 0 -96 35 -112 79c-11 40 -22 107 50 227c38 68 119 143 186 181c39 21 81 36 118 36h1c45 0 88 -36 103 -80
c11 -35 12 -122 -55 -237z" />
    <glyph glyph-name="oacute" unicode="&#xf3;" horiz-adv-x="532" 
d="M428 590c-1 -1 -3 -2 -4 -2c-3 0 -4 1 -4 4c0 1 1 3 3 5c57 54 119 151 132 164c5 5 15 6 26 6c9 0 17 0 20 -3s3 -10 3 -21c0 -7 -6 -12 -13 -19c-14 -14 -108 -76 -163 -134zM171 45c32 -9 74 -1 114 15c54 27 145 223 137 330c-4 47 -22 75 -53 86c-11 3 -39 16 -79 5
c-66 -40 -190 -224 -177 -370c11 -39 31 -59 58 -66zM441 200c-40 -70 -113 -128 -183 -166c-35 -19 -69 -40 -108 -40c-48 0 -96 35 -112 79c-11 40 -22 107 50 227c38 68 119 143 186 181c39 21 81 36 118 36h1c45 0 88 -36 103 -80c11 -35 12 -122 -55 -237z" />
    <glyph glyph-name="ocircumflex" unicode="&#xf4;" horiz-adv-x="532" 
d="M478 722c-1 3 -3 3 -6 0c-38 -43 -102 -98 -134 -122c-12 -8 -24 -18 -39 -17c-15 3 -21 11 -20 18c0 4 0 15 23 30c40 24 119 67 169 101c4 4 8 4 11 -1c43 -56 58 -75 90 -107c19 -17 21 -26 20 -33c0 -12 -11 -22 -22 -21c-15 1 -28 10 -37 27c-16 31 -31 74 -55 125z
M171 45c32 -9 74 -1 114 15c54 27 145 223 137 330c-4 47 -22 75 -53 86c-11 3 -39 16 -79 5c-66 -40 -190 -224 -177 -370c11 -39 31 -59 58 -66zM441 200c-40 -70 -113 -128 -183 -166c-35 -19 -69 -40 -108 -40c-48 0 -96 35 -112 79c-11 40 -22 107 50 227
c38 68 119 143 186 181c39 21 81 36 118 36h1c45 0 88 -36 103 -80c11 -35 12 -122 -55 -237z" />
    <glyph glyph-name="otilde" unicode="&#xf5;" horiz-adv-x="532" 
d="M291 595c59 75 79 102 106 102c47 0 125 -64 165 -64c20 0 23 2 65 60c7 8 15 4 8 -5c-48 -71 -80 -110 -115 -110c-45 0 -121 69 -163 69c-14 0 -15 -6 -58 -57c-9 -11 -13 -6 -8 5zM171 45c32 -9 74 -1 114 15c54 27 145 223 137 330c-4 47 -22 75 -53 86
c-11 3 -39 16 -79 5c-66 -40 -190 -224 -177 -370c11 -39 31 -59 58 -66zM441 200c-40 -70 -113 -128 -183 -166c-35 -19 -69 -40 -108 -40c-48 0 -96 35 -112 79c-11 40 -22 107 50 227c38 68 119 143 186 181c39 21 81 36 118 36h1c45 0 88 -36 103 -80
c11 -35 12 -122 -55 -237z" />
    <glyph glyph-name="odieresis" unicode="&#xf6;" horiz-adv-x="532" 
d="M289 638c0 31 23 55 54 55s55 -24 55 -55s-24 -54 -55 -54s-54 23 -54 54zM507 638c0 31 23 55 54 55s55 -24 55 -55s-24 -54 -55 -54s-54 23 -54 54zM171 45c32 -9 74 -1 114 15c54 27 145 223 137 330c-4 47 -22 75 -53 86c-11 3 -39 16 -79 5
c-66 -40 -190 -224 -177 -370c11 -39 31 -59 58 -66zM441 200c-40 -70 -113 -128 -183 -166c-35 -19 -69 -40 -108 -40c-48 0 -96 35 -112 79c-11 40 -22 107 50 227c38 68 119 143 186 181c39 21 81 36 118 36h1c45 0 88 -36 103 -80c11 -35 12 -122 -55 -237z" />
    <glyph glyph-name="divide" unicode="&#xf7;" horiz-adv-x="558" 
d="M237 383c0 21 15 38 38 38c20 0 38 -17 38 -38s-18 -38 -38 -38c-23 0 -38 17 -38 38zM237 109c0 21 15 38 38 38c20 0 38 -17 38 -38s-18 -38 -38 -38c-23 0 -38 17 -38 38zM272 251c82 0 123 3 171 6c7 -5 7 -20 0 -24c-54 3 -89 7 -170 7s-116 -4 -170 -7
c-7 4 -7 19 0 24c48 -3 89 -6 169 -6z" />
    <glyph glyph-name="oslash" unicode="&#xf8;" horiz-adv-x="532" 
d="M252 253c55 88 94 152 131 216c-3 2 -7 4 -14 7c-11 3 -39 16 -79 5c-66 -40 -190 -224 -177 -370c5 -20 13 -35 22 -44c34 53 66 106 117 186zM171 45c32 -9 74 -1 114 15c54 27 145 223 137 330c-3 32 -12 55 -26 69c-41 -64 -78 -125 -131 -213
c-53 -82 -83 -134 -118 -190c8 -5 16 -9 24 -11zM441 200c-40 -70 -113 -128 -183 -166c-35 -19 -69 -40 -108 -40c-12 0 -24 2 -36 6l-61 -104c-17 -3 -17 -5 -28 6c28 43 52 74 72 105c-28 15 -50 38 -59 66c-11 40 -22 107 50 227c38 68 119 143 186 181
c39 21 81 36 118 36h1c4 0 9 -1 14 -1l57 95c17 1 16 0 27 -8l-65 -93c32 -12 59 -40 70 -73c11 -35 12 -122 -55 -237z" />
    <glyph glyph-name="ugrave" unicode="&#xf9;" horiz-adv-x="607" 
d="M428 565c-55 58 -149 120 -163 134c-7 7 -13 12 -13 19c0 11 0 18 3 21s11 3 20 3c11 0 21 -1 26 -6c11 -13 75 -110 132 -164c2 -2 3 -4 3 -5c0 -3 -1 -4 -4 -4c-1 0 -3 1 -4 2zM266 414c0 -27 -43 -103 -77 -164c-41 -75 -75 -125 -87 -160c-3 -24 21 -37 40 -42
c50 0 196 142 313 308c35 51 65 114 83 142c32 8 92 25 70 -32c-55 -75 -196 -303 -200 -376c-1 -17 20 -33 40 -40c32 11 84 48 121 85l6 -7c-37 -36 -91 -86 -155 -125c-11 -5 -51 -4 -56 1c-25 19 -35 58 -38 79c-5 40 60 146 102 218c-115 -147 -263 -290 -331 -304
c-19 2 -69 21 -80 66c-5 32 53 108 103 200c35 64 67 118 64 155c-1 16 -12 30 -33 37c-28 -7 -78 -38 -117 -81l-7 7c38 35 101 90 162 125c48 27 74 -59 77 -92z" />
    <glyph glyph-name="uacute" unicode="&#xfa;" horiz-adv-x="607" 
d="M387 565c-1 -1 -3 -2 -4 -2c-3 0 -4 1 -4 4c0 1 1 3 3 5c57 54 119 151 132 164c5 5 15 6 26 6c9 0 17 0 20 -3s3 -10 3 -21c0 -7 -6 -12 -13 -19c-14 -14 -108 -76 -163 -134zM266 414c0 -27 -43 -103 -77 -164c-41 -75 -75 -125 -87 -160c-3 -24 21 -37 40 -42
c50 0 196 142 313 308c35 51 65 114 83 142c32 8 92 25 70 -32c-55 -75 -196 -303 -200 -376c-1 -17 20 -33 40 -40c32 11 84 48 121 85l6 -7c-37 -36 -91 -86 -155 -125c-11 -5 -51 -4 -56 1c-25 19 -35 58 -38 79c-5 40 60 146 102 218c-115 -147 -263 -290 -331 -304
c-19 2 -69 21 -80 66c-5 32 53 108 103 200c35 64 67 118 64 155c-1 16 -12 30 -33 37c-28 -7 -78 -38 -117 -81l-7 7c38 35 101 90 162 125c48 27 74 -59 77 -92z" />
    <glyph glyph-name="ucircumflex" unicode="&#xfb;" horiz-adv-x="607" 
d="M457 716c-1 3 -3 3 -6 0c-38 -43 -102 -98 -134 -122c-12 -8 -24 -18 -39 -17c-15 3 -21 11 -20 18c0 4 0 15 23 30c40 24 119 67 169 101c4 4 8 4 11 -1c43 -56 58 -75 90 -107c19 -17 21 -26 20 -33c0 -12 -11 -22 -22 -21c-15 1 -28 10 -37 27c-16 31 -31 74 -55 125z
M266 414c0 -27 -43 -103 -77 -164c-41 -75 -75 -125 -87 -160c-3 -24 21 -37 40 -42c50 0 196 142 313 308c35 51 65 114 83 142c32 8 92 25 70 -32c-55 -75 -196 -303 -200 -376c-1 -17 20 -33 40 -40c32 11 84 48 121 85l6 -7c-37 -36 -91 -86 -155 -125
c-11 -5 -51 -4 -56 1c-25 19 -35 58 -38 79c-5 40 60 146 102 218c-115 -147 -263 -290 -331 -304c-19 2 -69 21 -80 66c-5 32 53 108 103 200c35 64 67 118 64 155c-1 16 -12 30 -33 37c-28 -7 -78 -38 -117 -81l-7 7c38 35 101 90 162 125c48 27 74 -59 77 -92z" />
    <glyph glyph-name="udieresis" unicode="&#xfc;" horiz-adv-x="607" 
d="M481 638c0 31 23 55 54 55s55 -24 55 -55s-24 -54 -55 -54s-54 23 -54 54zM263 638c0 31 23 55 54 55s55 -24 55 -55s-24 -54 -55 -54s-54 23 -54 54zM266 414c0 -27 -43 -103 -77 -164c-41 -75 -75 -125 -87 -160c-3 -24 21 -37 40 -42c50 0 196 142 313 308
c35 51 65 114 83 142c32 8 92 25 70 -32c-55 -75 -196 -303 -200 -376c-1 -17 20 -33 40 -40c32 11 84 48 121 85l6 -7c-37 -36 -91 -86 -155 -125c-11 -5 -51 -4 -56 1c-25 19 -35 58 -38 79c-5 40 60 146 102 218c-115 -147 -263 -290 -331 -304c-19 2 -69 21 -80 66
c-5 32 53 108 103 200c35 64 67 118 64 155c-1 16 -12 30 -33 37c-28 -7 -78 -38 -117 -81l-7 7c38 35 101 90 162 125c48 27 74 -59 77 -92z" />
    <glyph glyph-name="yacute" unicode="&#xfd;" horiz-adv-x="575" 
d="M366 586c-1 -1 -3 -2 -4 -2c-3 0 -4 1 -4 4c0 1 1 3 3 5c57 54 119 151 132 164c5 5 15 6 26 6c9 0 17 0 20 -3s3 -10 3 -21c0 -7 -6 -12 -13 -19c-14 -14 -108 -76 -163 -134zM263 365c0 -83 -14 -245 -44 -321l105 109c113 117 184 196 188 244c-1 35 -22 54 -41 61
c-24 -7 -56 -29 -97 -65l-6 6c29 29 122 101 164 114c19 3 56 -31 45 -69c-34 -74 -136 -182 -246 -297c-81 -83 -159 -169 -270 -269c-89 -81 -219 -164 -368 -164c-17 0 -32 5 -39 17c-8 13 18 46 38 61h111c117 0 182 29 252 91c35 31 48 43 65 62c53 98 66 315 66 408
c0 39 -3 77 -20 98c-7 7 -16 11 -29 10c-13 -5 -63 -37 -95 -66l-6 6c36 33 95 79 143 105c7 4 15 6 22 6c11 0 23 -5 31 -14c21 -23 31 -67 31 -133z" />
    <glyph glyph-name="thorn" unicode="&#xfe;" horiz-adv-x="610" 
d="M263 36c25 0 42 3 73 19c40 35 88 69 128 163c43 93 48 169 40 204c-7 31 -16 37 -31 44c-36 -4 -245 -199 -337 -331c44 -72 76 -99 127 -99zM-146 -330c-32 0 -171 -9 -188 -9c-12 0 -14 11 -3 12c143 16 146 18 342 362c96 171 355 664 387 728l15 34
c-61 -51 -129 -93 -217 -144l-5 6c115 72 196 126 265 203c12 13 18 17 22 17c40 0 19 -64 -13 -133c-44 -99 -145 -280 -306 -569c129 149 312 335 374 339c25 -4 50 -42 58 -74c15 -57 -12 -143 -41 -194c-50 -92 -136 -159 -205 -201c-63 -35 -101 -52 -145 -52
c-37 0 -72 34 -96 77c-5 -5 -57 -101 -110 -194c-31 -55 -66 -116 -105 -184c7 -12 94 -18 118 -18c11 0 10 -11 -5 -11c-22 0 -110 5 -142 5z" />
    <glyph glyph-name="ydieresis" unicode="&#xff;" horiz-adv-x="575" 
d="M460 638c0 31 23 55 54 55s55 -24 55 -55s-24 -54 -55 -54s-54 23 -54 54zM242 638c0 31 23 55 54 55s55 -24 55 -55s-24 -54 -55 -54s-54 23 -54 54zM263 365c0 -83 -14 -245 -44 -321l105 109c113 117 184 196 188 244c-1 35 -22 54 -41 61c-24 -7 -56 -29 -97 -65
l-6 6c29 29 122 101 164 114c19 3 56 -31 45 -69c-34 -74 -136 -182 -246 -297c-81 -83 -159 -169 -270 -269c-89 -81 -219 -164 -368 -164c-17 0 -32 5 -39 17c-8 13 18 46 38 61h111c117 0 182 29 252 91c35 31 48 43 65 62c53 98 66 315 66 408c0 39 -3 77 -20 98
c-7 7 -16 11 -29 10c-13 -5 -63 -37 -95 -66l-6 6c36 33 95 79 143 105c7 4 15 6 22 6c11 0 23 -5 31 -14c21 -23 31 -67 31 -133z" />
    <glyph glyph-name="Amacron" unicode="&#x100;" horiz-adv-x="1349" 
d="M1141 976h1c33 0 63 0 99 1c37 1 39 2 39 -1c0 -7 -19 -26 -51 -57c-9 0 -47 2 -86 2c-34 0 -48 -3 -83 -3c-37 -1 -39 0 -39 3c0 7 19 25 51 56c9 0 32 -1 69 -1zM1062 782l-324 -387l249 -3c24 140 57 306 75 390zM338 373c-112 0 -173 -45 -216 -145
c-45 -98 25 -251 169 -251c58 0 72 -3 249 198c31 33 84 102 153 183c-141 8 -271 15 -355 15zM1133 783h-15c-21 -104 -49 -263 -70 -391c76 -1 141 -1 188 -1s97 -1 121 -2c19 0 -36 -49 -60 -52c-28 -5 -47 -3 -88 -3c-45 0 -103 2 -170 5l-19 -128
c-11 -71 -1 -115 2 -130c4 -17 21 -26 40 -33c30 11 127 79 161 116l6 -7c-37 -34 -134 -118 -194 -154c-11 -5 -42 -4 -47 1c-24 19 -34 51 -35 70c-3 39 -9 64 2 131c5 33 12 81 23 137c-85 4 -177 10 -269 15c-77 -95 -135 -166 -150 -181c-175 -197 -226 -236 -325 -236
c-166 0 -238 191 -180 275c56 85 183 183 343 183c68 0 188 0 324 -3l324 389c-52 0 -115 -2 -171 -7c-107 -13 -193 -32 -214 -32c-19 0 48 59 55 71c16 8 120 8 163 8h182c192 0 335 7 381 7c7 0 23 0 32 -3c0 -15 -18 -47 -43 -63c-33 -8 -242 18 -297 18z" />
    <glyph glyph-name="amacron" unicode="&#x101;" horiz-adv-x="579" 
d="M528 660h1c33 0 63 0 99 1c37 1 39 2 39 -1c0 -7 -19 -26 -51 -57c-9 0 -47 2 -86 2c-34 0 -48 -3 -83 -3c-37 -1 -39 0 -39 3c0 7 19 25 51 56c9 0 32 -1 69 -1zM131 53c49 14 235 199 347 333c-63 82 -101 102 -140 102c-70 0 -162 -99 -202 -221
c-32 -99 -32 -183 -5 -214zM303 84c-5 62 64 144 98 199c-88 -93 -210 -208 -293 -280c-9 -7 -35 -4 -40 0c-47 37 -47 154 -6 251c64 159 247 258 334 258c49 0 77 -9 136 -73c15 12 47 44 70 68c4 4 7 5 8 3c1 -1 1 -3 1 -5c-65 -82 -228 -328 -224 -412
c1 -17 16 -35 36 -42c25 11 81 46 120 88l6 -7c-37 -36 -94 -90 -158 -129c-9 -5 -53 -5 -56 1c-21 24 -31 60 -32 80z" />
    <glyph glyph-name="Abreve" unicode="&#x102;" horiz-adv-x="1349" 
d="M1141 910c-55 0 -96 32 -131 79c-4 7 -7 9 -7 13c0 5 9 11 26 16c23 7 27 7 35 -4c39 -51 69 -81 112 -81c31 0 58 27 83 82c2 5 6 8 12 8c7 0 13 -5 8 -12c-30 -52 -84 -98 -138 -101zM1062 782l-324 -387l249 -3c24 140 57 306 75 390zM338 373
c-112 0 -173 -45 -216 -145c-45 -98 25 -251 169 -251c58 0 72 -3 249 198c31 33 84 102 153 183c-141 8 -271 15 -355 15zM1133 783h-15c-21 -104 -49 -263 -70 -391c76 -1 141 -1 188 -1s97 -1 121 -2c19 0 -36 -49 -60 -52c-28 -5 -47 -3 -88 -3c-45 0 -103 2 -170 5
l-19 -128c-11 -71 -1 -115 2 -130c4 -17 21 -26 40 -33c30 11 127 79 161 116l6 -7c-37 -34 -134 -118 -194 -154c-11 -5 -42 -4 -47 1c-24 19 -34 51 -35 70c-3 39 -9 64 2 131c5 33 12 81 23 137c-85 4 -177 10 -269 15c-77 -95 -135 -166 -150 -181
c-175 -197 -226 -236 -325 -236c-166 0 -238 191 -180 275c56 85 183 183 343 183c68 0 188 0 324 -3l324 389c-52 0 -115 -2 -171 -7c-107 -13 -193 -32 -214 -32c-19 0 48 59 55 71c16 8 120 8 163 8h182c192 0 335 7 381 7c7 0 23 0 32 -3c0 -15 -18 -47 -43 -63
c-33 -8 -242 18 -297 18z" />
    <glyph glyph-name="abreve" unicode="&#x103;" horiz-adv-x="579" 
d="M538 594c-55 0 -96 32 -131 79c-4 7 -7 9 -7 13c0 5 9 11 26 16c23 7 27 7 35 -4c39 -51 69 -81 112 -81c31 0 58 27 83 82c2 5 6 8 12 8c7 0 13 -5 8 -12c-30 -52 -84 -98 -138 -101zM131 53c49 14 235 199 347 333c-63 82 -101 102 -140 102c-70 0 -162 -99 -202 -221
c-32 -99 -32 -183 -5 -214zM303 84c-5 62 64 144 98 199c-88 -93 -210 -208 -293 -280c-9 -7 -35 -4 -40 0c-47 37 -47 154 -6 251c64 159 247 258 334 258c49 0 77 -9 136 -73c15 12 47 44 70 68c4 4 7 5 8 3c1 -1 1 -3 1 -5c-65 -82 -228 -328 -224 -412
c1 -17 16 -35 36 -42c25 11 81 46 120 88l6 -7c-37 -36 -94 -90 -158 -129c-9 -5 -53 -5 -56 1c-21 24 -31 60 -32 80z" />
    <glyph glyph-name="Aogonek" unicode="&#x104;" horiz-adv-x="1349" 
d="M736 395l249 -3c24 140 57 306 75 390zM336 373c-112 0 -173 -45 -216 -145c-45 -98 25 -251 169 -251c58 0 72 -3 249 198c31 33 84 102 153 183c-141 8 -271 15 -355 15zM1131 783h-15c-21 -104 -49 -263 -70 -391c76 -1 141 -1 188 -1s97 -1 121 -2
c19 0 -36 -49 -60 -52c-28 -5 -47 -3 -88 -3c-45 0 -103 2 -170 5l-19 -128c-11 -71 -1 -115 2 -130c4 -17 21 -26 40 -33c32 11 124 79 161 116l6 -7c-60 -49 -180 -152 -196 -233c-5 -27 14 -48 57 -48c35 0 65 14 82 23c5 3 -29 -71 -40 -79c-15 -7 -44 -15 -75 -15
c-47 0 -76 30 -69 81c4 35 40 86 101 154c-19 -15 -37 -28 -54 -37c-11 -5 -42 -4 -47 1c-24 19 -34 51 -35 70c-3 39 -9 64 2 131c5 33 12 81 23 137c-85 4 -177 10 -269 15c-77 -95 -135 -166 -150 -181c-175 -197 -226 -236 -325 -236c-166 0 -238 191 -180 275
c56 85 183 183 343 183c68 0 188 0 323 -3l325 389c-52 0 -115 -2 -171 -7c-107 -13 -193 -32 -214 -32c-19 0 48 59 55 71c16 8 120 8 163 8h182c192 0 335 7 381 7c7 0 23 0 32 -3c0 -15 -18 -47 -43 -63c-33 -8 -242 18 -297 18z" />
    <glyph glyph-name="aogonek" unicode="&#x105;" horiz-adv-x="579" 
d="M131 53c49 14 235 199 347 333c-63 82 -101 102 -140 102c-70 0 -162 -99 -202 -221c-32 -99 -32 -183 -5 -214zM444 -124c35 0 65 14 82 23c5 3 -29 -71 -40 -79c-15 -7 -44 -15 -75 -15c-47 0 -76 30 -69 81c4 36 39 80 107 157c-19 -15 -38 -28 -58 -40
c-9 -5 -53 -5 -56 1c-21 24 -31 60 -32 80c-5 62 64 144 98 199c-88 -93 -210 -208 -293 -280c-9 -7 -35 -4 -40 0c-47 37 -47 154 -6 251c64 159 247 258 334 258c49 0 77 -9 136 -73c15 12 47 44 70 68c4 4 7 5 8 3c1 -1 1 -3 1 -5c-65 -82 -228 -328 -224 -412
c1 -17 16 -35 36 -42c25 11 81 46 120 88l6 -7c-17 -16 -37 -36 -61 -57c-83 -97 -98 -126 -101 -151c-4 -27 14 -48 57 -48z" />
    <glyph glyph-name="Cacute" unicode="&#x106;" horiz-adv-x="760" 
d="M800 896c-1 -1 -3 -2 -4 -2c-3 0 -4 1 -4 4c0 1 1 3 3 5c57 54 119 151 132 164c5 5 15 6 26 6c9 0 17 0 20 -3s3 -10 3 -21c0 -7 -6 -12 -13 -19c-14 -14 -108 -76 -163 -134zM702 111c-77 -93 -215 -202 -336 -202c-297 0 -386 334 -206 594c97 140 308 325 555 325
c136 0 223 -66 243 -80c14 -11 -42 -46 -58 -46c-44 0 -134 92 -282 92c-160 0 -298 -121 -387 -258c-160 -252 -87 -573 190 -573c103 0 215 82 274 155c3 4 14 0 7 -7z" />
    <glyph glyph-name="cacute" unicode="&#x107;" horiz-adv-x="493" 
d="M443 590c-1 -1 -3 -2 -4 -2c-3 0 -4 1 -4 4c0 1 1 3 3 5c57 54 119 151 132 164c5 5 15 6 26 6c9 0 17 0 20 -3s3 -10 3 -21c0 -7 -6 -12 -13 -19c-14 -14 -108 -76 -163 -134zM154 -6c-47 0 -93 29 -109 76c-11 40 -29 110 43 230c39 68 119 137 210 186
c39 21 77 31 121 31c64 0 94 -28 94 -64c0 -34 -37 -55 -58 -58c-12 48 -43 91 -108 91c-19 0 -29 -2 -44 -6c-49 -35 -92 -81 -125 -137c-43 -71 -66 -152 -59 -232c11 -39 35 -59 62 -66c32 -9 81 1 118 18c25 10 84 54 115 93l9 -5c-41 -49 -89 -85 -142 -114
c-35 -19 -79 -43 -127 -43z" />
    <glyph glyph-name="Ccircumflex" unicode="&#x108;" horiz-adv-x="760" 
d="M804 1042c-1 3 -3 3 -6 0c-38 -43 -102 -98 -134 -122c-12 -8 -24 -18 -39 -17c-15 3 -21 11 -20 18c0 4 0 15 23 30c40 24 119 67 169 101c4 4 8 4 11 -1c43 -56 58 -75 90 -107c19 -17 21 -26 20 -33c0 -12 -11 -22 -22 -21c-15 1 -28 10 -37 27c-16 31 -31 74 -55 125
zM702 111c-77 -93 -215 -202 -336 -202c-297 0 -386 334 -206 594c97 140 308 325 555 325c136 0 223 -66 243 -80c14 -11 -42 -46 -58 -46c-44 0 -134 92 -282 92c-160 0 -298 -121 -387 -258c-160 -252 -87 -573 190 -573c103 0 215 82 274 155c3 4 14 0 7 -7z" />
    <glyph glyph-name="ccircumflex" unicode="&#x109;" horiz-adv-x="493" 
d="M486 731c-1 3 -3 3 -6 0c-38 -43 -102 -98 -134 -122c-12 -8 -24 -18 -39 -17c-15 3 -21 11 -20 18c0 4 0 15 23 30c40 24 119 67 169 101c4 4 8 4 11 -1c43 -56 58 -75 90 -107c19 -17 21 -26 20 -33c0 -12 -11 -22 -22 -21c-15 1 -28 10 -37 27c-16 31 -31 74 -55 125z
M154 -6c-47 0 -93 29 -109 76c-11 40 -29 110 43 230c39 68 119 137 210 186c39 21 77 31 121 31c64 0 94 -28 94 -64c0 -34 -37 -55 -58 -58c-12 48 -43 91 -108 91c-19 0 -29 -2 -44 -6c-49 -35 -92 -81 -125 -137c-43 -71 -66 -152 -59 -232c11 -39 35 -59 62 -66
c32 -9 81 1 118 18c25 10 84 54 115 93l9 -5c-41 -49 -89 -85 -142 -114c-35 -19 -79 -43 -127 -43z" />
    <glyph glyph-name="Cdotaccent" unicode="&#x10a;" horiz-adv-x="760" 
d="M757 961c0 32 25 58 57 58s58 -26 58 -58s-26 -57 -58 -57s-57 25 -57 57zM702 111c-77 -93 -215 -202 -336 -202c-297 0 -386 334 -206 594c97 140 308 325 555 325c136 0 223 -66 243 -80c14 -11 -42 -46 -58 -46c-44 0 -134 92 -282 92c-160 0 -298 -121 -387 -258
c-160 -252 -87 -573 190 -573c103 0 215 82 274 155c3 4 14 0 7 -7z" />
    <glyph glyph-name="cdotaccent" unicode="&#x10b;" horiz-adv-x="493" 
d="M444 640c0 32 25 58 57 58s58 -26 58 -58s-26 -57 -58 -57s-57 25 -57 57zM154 -6c-47 0 -93 29 -109 76c-11 40 -29 110 43 230c39 68 119 137 210 186c39 21 77 31 121 31c64 0 94 -28 94 -64c0 -34 -37 -55 -58 -58c-12 48 -43 91 -108 91c-19 0 -29 -2 -44 -6
c-49 -35 -92 -81 -125 -137c-43 -71 -66 -152 -59 -232c11 -39 35 -59 62 -66c32 -9 81 1 118 18c25 10 84 54 115 93l9 -5c-41 -49 -89 -85 -142 -114c-35 -19 -79 -43 -127 -43z" />
    <glyph glyph-name="Ccaron" unicode="&#x10c;" horiz-adv-x="760" 
d="M755 902c1 -3 3 -3 6 0c35 43 103 99 134 122c12 8 24 18 39 17c15 -3 21 -11 20 -18c0 -4 0 -15 -23 -30c-40 -24 -119 -67 -169 -101c-5 -3 -9 -3 -12 1c-44 55 -57 75 -89 107c-19 17 -21 26 -20 33c0 12 11 22 22 21c15 -1 28 -10 37 -27c16 -31 31 -74 55 -125z
M702 111c-77 -93 -215 -202 -336 -202c-297 0 -386 334 -206 594c97 140 308 325 555 325c136 0 223 -66 243 -80c14 -11 -42 -46 -58 -46c-44 0 -134 92 -282 92c-160 0 -298 -121 -387 -258c-160 -252 -87 -573 190 -573c103 0 215 82 274 155c3 4 14 0 7 -7z" />
    <glyph glyph-name="ccaron" unicode="&#x10d;" horiz-adv-x="493" 
d="M445 591c1 -3 3 -3 6 0c35 43 103 99 134 122c12 8 24 18 39 17c15 -3 21 -11 20 -18c0 -4 0 -15 -23 -30c-40 -24 -119 -67 -169 -101c-5 -3 -9 -3 -12 1c-44 55 -57 75 -89 107c-19 17 -21 26 -20 33c0 12 11 22 22 21c15 -1 28 -10 37 -27c16 -31 31 -74 55 -125z
M154 -6c-47 0 -93 29 -109 76c-11 40 -29 110 43 230c39 68 119 137 210 186c39 21 77 31 121 31c64 0 94 -28 94 -64c0 -34 -37 -55 -58 -58c-12 48 -43 91 -108 91c-19 0 -29 -2 -44 -6c-49 -35 -92 -81 -125 -137c-43 -71 -66 -152 -59 -232c11 -39 35 -59 62 -66
c32 -9 81 1 118 18c25 10 84 54 115 93l9 -5c-41 -49 -89 -85 -142 -114c-35 -19 -79 -43 -127 -43z" />
    <glyph glyph-name="Dcaron" unicode="&#x10e;" horiz-adv-x="1138" 
d="M913 882c1 -3 3 -3 6 0c35 43 103 99 134 122c12 8 24 18 39 17c15 -3 21 -11 20 -18c0 -4 0 -15 -23 -30c-40 -24 -119 -67 -169 -101c-5 -3 -9 -3 -12 1c-44 55 -57 75 -89 107c-19 17 -21 26 -20 33c0 12 11 22 22 21c15 -1 28 -10 37 -27c16 -31 31 -74 55 -125z
M636 -2l-195 2c-192 3 -320 -3 -342 -3c-31 0 -51 5 -60 15c-3 24 24 64 49 81c37 12 226 -78 298 -26c75 51 99 171 171 346c70 177 158 313 246 358l7 -2c-47 -23 -123 -226 -182 -365c-83 -196 -163 -311 -255 -359c35 -3 220 -4 333 4c169 11 252 61 321 204
c112 239 -1 539 -363 539c-219 0 -347 -70 -430 -270c-9 -40 -38 -56 -74 -56c-39 0 -43 24 -19 61c104 161 359 309 573 304c381 0 498 -331 387 -546c-72 -131 -288 -287 -465 -287z" />
    <glyph glyph-name="dcaron" unicode="&#x10f;" horiz-adv-x="594" 
d="M924 704h-2c-9 -15 -35 -33 -51 -33c-11 0 -19 4 -25 13c-8 17 10 61 27 75c7 5 29 9 45 9c15 0 34 -4 41 -13c8 -9 6 -37 -5 -56c-32 -60 -106 -94 -149 -110c-3 -1 -5 2 -2 3c42 18 95 65 121 112zM131 53c48 13 227 204 339 337c-63 82 -92 98 -132 98
c-70 0 -162 -99 -202 -221c-32 -99 -32 -183 -5 -214zM611 618c81 116 225 208 374 256c77 19 118 18 169 18c43 0 91 -1 115 -5c32 -5 -17 -70 -41 -70c-64 0 -154 18 -251 18c-125 0 -181 -36 -376 -338c-55 -87 -212 -339 -212 -399c0 -17 9 -48 33 -51
c25 10 85 46 124 88l6 -7c-39 -36 -94 -86 -158 -125c-9 -5 -51 -5 -54 1c-20 20 -35 66 -32 84c3 53 80 176 125 244l8 10c-83 -101 -232 -251 -333 -339c-9 -7 -35 -4 -40 0c-47 37 -47 154 -6 251c64 159 247 258 334 258c43 0 72 -15 108 -54c43 67 90 138 107 160z" />
    <glyph glyph-name="Dcroat" unicode="&#x110;" horiz-adv-x="1138" 
d="M636 -2l-195 2c-192 3 -320 -3 -342 -3c-31 0 -51 5 -60 15c-3 24 24 64 49 81c37 12 226 -78 298 -26c58 40 88 125 133 247c-15 -1 -28 -1 -43 -1c-33 -1 -35 -1 -35 2c0 7 17 23 46 51c11 0 28 -1 51 -1l19 48c70 177 158 313 246 358l7 -2
c-47 -23 -123 -226 -182 -365c-7 -15 -12 -26 -17 -39c35 0 73 0 110 1c33 1 35 2 35 -1c0 -7 -17 -23 -46 -51c-18 0 -75 1 -118 1h-4c-68 -141 -140 -231 -215 -270c35 -3 220 -4 333 4c169 11 252 61 321 204c112 239 -1 539 -363 539c-219 0 -347 -70 -430 -270
c-9 -40 -38 -56 -74 -56c-39 0 -43 24 -19 61c104 161 359 309 573 304c381 0 498 -331 387 -546c-72 -131 -288 -287 -465 -287z" />
    <glyph glyph-name="dslash" unicode="&#x111;" horiz-adv-x="594" 
d="M131 53c48 13 227 204 339 337c-63 82 -92 98 -132 98c-70 0 -162 -99 -202 -221c-32 -99 -32 -183 -5 -214zM636 673h19c84 91 205 161 330 201c77 19 118 18 169 18c43 0 91 -1 115 -5c32 -5 -17 -70 -41 -70c-64 0 -154 18 -251 18s-148 -21 -255 -162c15 0 30 0 45 1
c33 1 35 2 35 -1c0 -7 -17 -23 -46 -51c-12 0 -39 0 -70 1c-25 -36 -53 -77 -85 -126c-55 -87 -212 -339 -212 -399c0 -17 9 -48 33 -51c25 10 85 46 124 88l6 -7c-39 -36 -94 -86 -158 -125c-9 -5 -51 -5 -54 1c-20 20 -35 66 -32 84c3 53 80 176 125 244l8 10
c-83 -101 -232 -251 -333 -339c-9 -7 -35 -4 -40 0c-47 37 -47 154 -6 251c64 159 247 258 334 258c43 0 72 -15 108 -54c43 67 90 138 107 160l3 5l-92 -2c-33 -1 -35 -1 -35 2c0 7 17 23 46 51c19 0 59 -1 103 -1z" />
    <glyph glyph-name="Emacron" unicode="&#x112;" horiz-adv-x="1066" 
d="M1042 944h1c32 -7 62 -12 97 -17c37 -5 39 -4 39 -7c-3 -7 -24 -23 -60 -48c-9 3 -47 10 -84 17c-34 5 -48 6 -83 11c-37 5 -39 6 -38 9c1 7 23 22 59 47c9 -1 32 -5 69 -12zM342 445c68 0 156 1 247 2c68 165 148 266 232 313c-73 19 -150 34 -217 34
c-185 0 -304 -93 -400 -322c-9 -40 -38 -56 -73 -56c-40 0 -44 24 -20 61c121 188 321 351 592 351c96 0 206 -22 331 -53c132 -32 167 -45 173 -56c5 -11 -24 -47 -37 -50c-14 0 -103 23 -199 50c-39 11 -89 25 -141 38c-45 -32 -110 -181 -166 -308c97 1 185 3 232 3
s94 -2 115 -7c16 -3 -25 -58 -49 -61c-28 -5 -50 -4 -93 -1c-47 3 -129 14 -222 25c-77 -179 -165 -307 -249 -358c46 0 216 -4 308 7c107 11 211 27 233 27c18 0 -48 -58 -56 -72c-12 -7 -140 -7 -182 -7h-182c-192 0 -392 -8 -413 -8c-31 0 -51 5 -60 15
c-4 24 24 56 49 72c36 8 236 -68 307 -16c70 47 110 182 174 349c-80 9 -163 17 -238 20c-22 0 -5 8 4 8z" />
    <glyph glyph-name="emacron" unicode="&#x113;" horiz-adv-x="486" 
d="M434 660h1c33 0 63 0 99 1c37 1 39 2 39 -1c0 -7 -19 -26 -51 -57c-9 0 -47 2 -86 2c-34 0 -48 -3 -83 -3c-37 -1 -39 0 -39 3c0 7 19 25 51 56c9 0 32 -1 69 -1zM409 383c24 62 -55 115 -115 96c-58 -39 -162 -181 -178 -312c198 118 277 167 293 216zM488 467
c11 -65 -90 -147 -373 -310c-1 -16 -1 -31 0 -46c11 -39 31 -59 58 -66c32 -9 83 3 120 20c27 11 91 62 123 101l9 -5c-41 -49 -102 -95 -155 -124c-35 -19 -81 -43 -129 -43c-40 0 -85 35 -101 79c-11 40 -22 107 50 227c38 68 118 140 185 178c39 21 84 36 124 36
c45 0 84 -15 89 -47z" />
    <glyph glyph-name="Ebreve" unicode="&#x114;" horiz-adv-x="1066" 
d="M965 890c-55 0 -96 32 -131 79c-4 7 -7 9 -7 13c0 5 9 11 26 16c23 7 27 7 35 -4c39 -51 69 -81 112 -81c31 0 58 27 83 82c2 5 6 8 12 8c7 0 13 -5 8 -12c-30 -52 -84 -98 -138 -101zM342 445c68 0 156 1 247 2c68 165 148 266 232 313c-73 19 -150 34 -217 34
c-185 0 -304 -93 -400 -322c-9 -40 -38 -56 -73 -56c-40 0 -44 24 -20 61c121 188 321 351 592 351c96 0 206 -22 331 -53c132 -32 167 -45 173 -56c5 -11 -24 -47 -37 -50c-14 0 -103 23 -199 50c-39 11 -89 25 -141 38c-45 -32 -110 -181 -166 -308c97 1 185 3 232 3
s94 -2 115 -7c16 -3 -25 -58 -49 -61c-28 -5 -50 -4 -93 -1c-47 3 -129 14 -222 25c-77 -179 -165 -307 -249 -358c46 0 216 -4 308 7c107 11 211 27 233 27c18 0 -48 -58 -56 -72c-12 -7 -140 -7 -182 -7h-182c-192 0 -392 -8 -413 -8c-31 0 -51 5 -60 15
c-4 24 24 56 49 72c36 8 236 -68 307 -16c70 47 110 182 174 349c-80 9 -163 17 -238 20c-22 0 -5 8 4 8z" />
    <glyph glyph-name="ebreve" unicode="&#x115;" horiz-adv-x="486" 
d="M449 598c-55 0 -96 32 -131 79c-4 7 -7 9 -7 13c0 5 9 11 26 16c23 7 27 7 35 -4c39 -51 69 -81 112 -81c31 0 58 27 83 82c2 5 6 8 12 8c7 0 13 -5 8 -12c-30 -52 -84 -98 -138 -101zM409 383c24 62 -55 115 -115 96c-58 -39 -162 -181 -178 -312
c198 118 277 167 293 216zM488 467c11 -65 -90 -147 -373 -310c-1 -16 -1 -31 0 -46c11 -39 31 -59 58 -66c32 -9 83 3 120 20c27 11 91 62 123 101l9 -5c-41 -49 -102 -95 -155 -124c-35 -19 -81 -43 -129 -43c-40 0 -85 35 -101 79c-11 40 -22 107 50 227
c38 68 118 140 185 178c39 21 84 36 124 36c45 0 84 -15 89 -47z" />
    <glyph glyph-name="Edotaccent" unicode="&#x116;" horiz-adv-x="1066" 
d="M939 941c0 32 25 58 57 58s58 -26 58 -58s-26 -57 -58 -57s-57 25 -57 57zM342 445c68 0 156 1 247 2c68 165 148 266 232 313c-73 19 -150 34 -217 34c-185 0 -304 -93 -400 -322c-9 -40 -38 -56 -73 -56c-40 0 -44 24 -20 61c121 188 321 351 592 351
c96 0 206 -22 331 -53c132 -32 167 -45 173 -56c5 -11 -24 -47 -37 -50c-14 0 -103 23 -199 50c-39 11 -89 25 -141 38c-45 -32 -110 -181 -166 -308c97 1 185 3 232 3s94 -2 115 -7c16 -3 -25 -58 -49 -61c-28 -5 -50 -4 -93 -1c-47 3 -129 14 -222 25
c-77 -179 -165 -307 -249 -358c46 0 216 -4 308 7c107 11 211 27 233 27c18 0 -48 -58 -56 -72c-12 -7 -140 -7 -182 -7h-182c-192 0 -392 -8 -413 -8c-31 0 -51 5 -60 15c-4 24 24 56 49 72c36 8 236 -68 307 -16c70 47 110 182 174 349c-80 9 -163 17 -238 20
c-22 0 -5 8 4 8z" />
    <glyph glyph-name="edotaccent" unicode="&#x117;" horiz-adv-x="486" 
d="M396 650c0 32 25 58 57 58s58 -26 58 -58s-26 -57 -58 -57s-57 25 -57 57zM409 383c24 62 -55 115 -115 96c-58 -39 -162 -181 -178 -312c198 118 277 167 293 216zM488 467c11 -65 -90 -147 -373 -310c-1 -16 -1 -31 0 -46c11 -39 31 -59 58 -66c32 -9 83 3 120 20
c27 11 91 62 123 101l9 -5c-41 -49 -102 -95 -155 -124c-35 -19 -81 -43 -129 -43c-40 0 -85 35 -101 79c-11 40 -22 107 50 227c38 68 118 140 185 178c39 21 84 36 124 36c45 0 84 -15 89 -47z" />
    <glyph glyph-name="Eogonek" unicode="&#x118;" horiz-adv-x="1066" 
d="M342 445c68 0 156 1 247 2c68 165 148 266 232 313c-73 19 -150 34 -217 34c-185 0 -304 -93 -400 -322c-9 -40 -38 -56 -73 -56c-40 0 -44 24 -20 61c121 188 321 351 592 351c96 0 206 -22 331 -53c132 -32 167 -45 173 -56c5 -11 -24 -47 -37 -50
c-14 0 -103 23 -199 50c-39 11 -89 25 -141 38c-45 -32 -110 -181 -166 -308c97 1 185 3 232 3s94 -2 115 -7c16 -3 -25 -58 -49 -61c-28 -5 -50 -4 -93 -1c-47 3 -129 14 -222 25c-77 -179 -165 -307 -249 -358c46 0 216 -4 308 7c107 11 211 27 233 27h8l2 -5
c-84 -97 -102 -130 -105 -155c-4 -27 14 -48 57 -48c35 0 65 14 82 23c5 3 -29 -71 -40 -79c-15 -7 -44 -15 -75 -15c-47 0 -76 30 -69 81c4 31 30 68 78 124c-31 -5 -138 -5 -176 -5h-182c-192 0 -392 -8 -413 -8c-31 0 -51 5 -60 15c-4 24 24 56 49 72
c36 8 236 -68 307 -16c70 47 110 182 174 349c-80 9 -163 17 -238 20c-22 0 -5 8 4 8z" />
    <glyph glyph-name="eogonek" unicode="&#x119;" horiz-adv-x="486" 
d="M409 383c24 62 -55 115 -115 96c-58 -39 -162 -181 -178 -312c198 118 277 167 293 216zM286 -124c35 0 65 14 82 23c5 3 -29 -71 -40 -79c-15 -7 -44 -15 -75 -15c-47 0 -76 30 -69 81c4 39 43 85 119 170c-11 -7 -22 -12 -33 -19c-35 -19 -81 -43 -129 -43
c-40 0 -85 35 -101 79c-11 40 -22 107 50 227c38 68 118 140 185 178c39 21 84 36 124 36c45 0 84 -15 89 -47c11 -65 -90 -147 -373 -310c-1 -16 -1 -31 0 -46c11 -39 31 -59 58 -66c32 -9 83 3 120 20c27 11 91 62 123 101l9 -5c-27 -31 -60 -62 -95 -87
c-83 -96 -98 -125 -101 -150c-4 -27 14 -48 57 -48z" />
    <glyph glyph-name="Ecaron" unicode="&#x11a;" horiz-adv-x="1066" 
d="M956 882c1 -3 3 -3 6 0c35 43 103 99 134 122c12 8 24 18 39 17c15 -3 21 -11 20 -18c0 -4 0 -15 -23 -30c-40 -24 -119 -67 -169 -101c-5 -3 -9 -3 -12 1c-44 55 -57 75 -89 107c-19 17 -21 26 -20 33c0 12 11 22 22 21c15 -1 28 -10 37 -27c16 -31 31 -74 55 -125z
M342 445c68 0 156 1 247 2c68 165 148 266 232 313c-73 19 -150 34 -217 34c-185 0 -304 -93 -400 -322c-9 -40 -38 -56 -73 -56c-40 0 -44 24 -20 61c121 188 321 351 592 351c96 0 206 -22 331 -53c132 -32 167 -45 173 -56c5 -11 -24 -47 -37 -50c-14 0 -103 23 -199 50
c-39 11 -89 25 -141 38c-45 -32 -110 -181 -166 -308c97 1 185 3 232 3s94 -2 115 -7c16 -3 -25 -58 -49 -61c-28 -5 -50 -4 -93 -1c-47 3 -129 14 -222 25c-77 -179 -165 -307 -249 -358c46 0 216 -4 308 7c107 11 211 27 233 27c18 0 -48 -58 -56 -72
c-12 -7 -140 -7 -182 -7h-182c-192 0 -392 -8 -413 -8c-31 0 -51 5 -60 15c-4 24 24 56 49 72c36 8 236 -68 307 -16c70 47 110 182 174 349c-80 9 -163 17 -238 20c-22 0 -5 8 4 8z" />
    <glyph glyph-name="ecaron" unicode="&#x11b;" horiz-adv-x="486" 
d="M403 591c1 -3 3 -3 6 0c35 43 103 99 134 122c12 8 24 18 39 17c15 -3 21 -11 20 -18c0 -4 0 -15 -23 -30c-40 -24 -119 -67 -169 -101c-5 -3 -9 -3 -12 1c-44 55 -57 75 -89 107c-19 17 -21 26 -20 33c0 12 11 22 22 21c15 -1 28 -10 37 -27c16 -31 31 -74 55 -125z
M409 383c24 62 -55 115 -115 96c-58 -39 -162 -181 -178 -312c198 118 277 167 293 216zM488 467c11 -65 -90 -147 -373 -310c-1 -16 -1 -31 0 -46c11 -39 31 -59 58 -66c32 -9 83 3 120 20c27 11 91 62 123 101l9 -5c-41 -49 -102 -95 -155 -124c-35 -19 -81 -43 -129 -43
c-40 0 -85 35 -101 79c-11 40 -22 107 50 227c38 68 118 140 185 178c39 21 84 36 124 36c45 0 84 -15 89 -47z" />
    <glyph glyph-name="Gcircumflex" unicode="&#x11c;" horiz-adv-x="1016" 
d="M851 1042c-1 3 -3 3 -6 0c-38 -43 -102 -98 -134 -122c-12 -8 -24 -18 -39 -17c-15 3 -21 11 -20 18c0 4 0 15 23 30c40 24 119 67 169 101c4 4 8 4 11 -1c43 -56 58 -75 90 -107c19 -17 21 -26 20 -33c0 -12 -11 -22 -22 -21c-15 1 -28 10 -37 27c-16 31 -31 74 -55 125
zM397 -2c-316 0 -359 331 -211 548c88 128 283 282 552 282c96 0 181 -14 306 -54c3 -1 5 -3 5 -6c0 -16 -50 -56 -66 -56c-7 0 -16 2 -29 6c-94 30 -207 76 -315 76c-183 0 -311 -110 -377 -216c-143 -231 -105 -533 204 -537c153 -3 314 85 410 330c-27 4 -72 11 -140 12
c-128 0 -275 -30 -303 -30c-19 0 32 56 57 66c12 7 121 5 163 5c128 0 232 5 253 5c25 0 66 -43 63 -64c-97 -137 -217 -374 -262 -476c-23 -50 -183 -99 -227 -115c-11 -3 -12 5 -3 9c45 17 92 35 127 86c24 37 120 188 178 297c-120 -99 -272 -168 -385 -168z" />
    <glyph glyph-name="gcircumflex" unicode="&#x11d;" horiz-adv-x="571" 
d="M559 732c-1 3 -3 3 -6 0c-38 -43 -102 -98 -134 -122c-12 -8 -24 -18 -39 -17c-15 3 -21 11 -20 18c0 4 0 15 23 30c40 24 119 67 169 101c4 4 8 4 11 -1c43 -56 58 -75 90 -107c19 -17 21 -26 20 -33c0 -12 -11 -22 -22 -21c-15 1 -28 10 -37 27c-16 31 -31 74 -55 125z
M124 51c55 37 241 200 342 332c-67 83 -90 106 -130 106c-69 0 -172 -100 -209 -223c-31 -100 -34 -180 -3 -215zM99 5c-161 -115 -306 -212 -265 -312c24 -57 91 -79 163 -79s145 38 197 113c64 100 35 289 207 564c-93 -93 -227 -222 -302 -286zM-53 -396
c-75 0 -173 20 -199 81c-40 98 165 197 331 315c-9 0 -17 0 -20 3c-48 38 -47 153 -6 250c64 159 253 260 339 260c49 0 65 -12 126 -84c20 17 57 49 86 76l7 -4c-32 -39 -63 -79 -88 -118c-231 -371 -181 -540 -242 -642c-53 -88 -206 -140 -334 -137z" />
    <glyph glyph-name="Gbreve" unicode="&#x11e;" horiz-adv-x="1016" 
d="M807 900c-55 0 -96 32 -131 79c-4 7 -7 9 -7 13c0 5 9 11 26 16c23 7 27 7 35 -4c39 -51 69 -81 112 -81c31 0 58 27 83 82c2 5 6 8 12 8c7 0 13 -5 8 -12c-30 -52 -84 -98 -138 -101zM397 -2c-316 0 -359 331 -211 548c88 128 283 282 552 282c96 0 181 -14 306 -54
c3 -1 5 -3 5 -6c0 -16 -50 -56 -66 -56c-7 0 -16 2 -29 6c-94 30 -207 76 -315 76c-183 0 -311 -110 -377 -216c-143 -231 -105 -533 204 -537c153 -3 314 85 410 330c-27 4 -72 11 -140 12c-128 0 -275 -30 -303 -30c-19 0 32 56 57 66c12 7 121 5 163 5c128 0 232 5 253 5
c25 0 66 -43 63 -64c-97 -137 -217 -374 -262 -476c-23 -50 -183 -99 -227 -115c-11 -3 -12 5 -3 9c45 17 92 35 127 86c24 37 120 188 178 297c-120 -99 -272 -168 -385 -168z" />
    <glyph glyph-name="gbreve" unicode="&#x11f;" horiz-adv-x="571" 
d="M516 593c-55 0 -96 32 -131 79c-4 7 -7 9 -7 13c0 5 9 11 26 16c23 7 27 7 35 -4c39 -51 69 -81 112 -81c31 0 58 27 83 82c2 5 6 8 12 8c7 0 13 -5 8 -12c-30 -52 -84 -98 -138 -101zM124 51c55 37 241 200 342 332c-67 83 -90 106 -130 106c-69 0 -172 -100 -209 -223
c-31 -100 -34 -180 -3 -215zM99 5c-161 -115 -306 -212 -265 -312c24 -57 91 -79 163 -79s145 38 197 113c64 100 35 289 207 564c-93 -93 -227 -222 -302 -286zM-53 -396c-75 0 -173 20 -199 81c-40 98 165 197 331 315c-9 0 -17 0 -20 3c-48 38 -47 153 -6 250
c64 159 253 260 339 260c49 0 65 -12 126 -84c20 17 57 49 86 76l7 -4c-32 -39 -63 -79 -88 -118c-231 -371 -181 -540 -242 -642c-53 -88 -206 -140 -334 -137z" />
    <glyph glyph-name="Gdotaccent" unicode="&#x120;" horiz-adv-x="1016" 
d="M789 966c0 32 25 58 57 58s58 -26 58 -58s-26 -57 -58 -57s-57 25 -57 57zM397 -2c-316 0 -359 331 -211 548c88 128 283 282 552 282c96 0 181 -14 306 -54c3 -1 5 -3 5 -6c0 -16 -50 -56 -66 -56c-7 0 -16 2 -29 6c-94 30 -207 76 -315 76c-183 0 -311 -110 -377 -216
c-143 -231 -105 -533 204 -537c153 -3 314 85 410 330c-27 4 -72 11 -140 12c-128 0 -275 -30 -303 -30c-19 0 32 56 57 66c12 7 121 5 163 5c128 0 232 5 253 5c25 0 66 -43 63 -64c-97 -137 -217 -374 -262 -476c-23 -50 -183 -99 -227 -115c-11 -3 -12 5 -3 9
c45 17 92 35 127 86c24 37 120 188 178 297c-120 -99 -272 -168 -385 -168z" />
    <glyph glyph-name="gdotaccent" unicode="&#x121;" horiz-adv-x="571" 
d="M479 640c0 32 25 58 57 58s58 -26 58 -58s-26 -57 -58 -57s-57 25 -57 57zM124 51c55 37 241 200 342 332c-67 83 -90 106 -130 106c-69 0 -172 -100 -209 -223c-31 -100 -34 -180 -3 -215zM99 5c-161 -115 -306 -212 -265 -312c24 -57 91 -79 163 -79s145 38 197 113
c64 100 35 289 207 564c-93 -93 -227 -222 -302 -286zM-53 -396c-75 0 -173 20 -199 81c-40 98 165 197 331 315c-9 0 -17 0 -20 3c-48 38 -47 153 -6 250c64 159 253 260 339 260c49 0 65 -12 126 -84c20 17 57 49 86 76l7 -4c-32 -39 -63 -79 -88 -118
c-231 -371 -181 -540 -242 -642c-53 -88 -206 -140 -334 -137z" />
    <glyph glyph-name="Gcommaaccent" unicode="&#x122;" horiz-adv-x="1016" 
d="M273 -137h-2c-11 -15 -36 -34 -53 -34c-11 0 -18 2 -26 13c-8 16 11 64 28 78c7 5 30 9 46 9s36 -4 43 -13c8 -11 6 -39 -5 -58c-33 -62 -109 -96 -154 -114c-3 -1 -5 2 -2 3c43 21 97 65 125 116zM397 -2c-316 0 -359 331 -211 548c88 128 283 282 552 282
c96 0 181 -14 306 -54c3 -1 5 -3 5 -6c0 -16 -50 -56 -66 -56c-7 0 -16 2 -29 6c-94 30 -207 76 -315 76c-183 0 -311 -110 -377 -216c-143 -231 -105 -533 204 -537c153 -3 314 85 410 330c-27 4 -72 11 -140 12c-128 0 -275 -30 -303 -30c-19 0 32 56 57 66
c12 7 121 5 163 5c128 0 232 5 253 5c25 0 66 -43 63 -64c-97 -137 -217 -374 -262 -476c-23 -50 -183 -99 -227 -115c-11 -3 -12 5 -3 9c45 17 92 35 127 86c24 37 120 188 178 297c-120 -99 -272 -168 -385 -168z" />
    <glyph glyph-name="gcommaaccent" unicode="&#x123;" horiz-adv-x="571" 
d="M532 647h2c9 15 35 33 51 33c11 0 19 -4 25 -13c8 -17 -10 -61 -27 -75c-7 -5 -29 -9 -45 -9c-15 0 -34 4 -41 13c-8 9 -6 37 5 56c32 59 105 94 149 110c3 1 5 -2 2 -3c-42 -21 -94 -63 -121 -112zM124 51c55 37 241 200 342 332c-67 83 -90 106 -130 106
c-69 0 -172 -100 -209 -223c-31 -100 -34 -180 -3 -215zM99 5c-161 -115 -306 -212 -265 -312c24 -57 91 -79 163 -79s145 38 197 113c64 100 35 289 207 564c-93 -93 -227 -222 -302 -286zM-53 -396c-75 0 -173 20 -199 81c-40 98 165 197 331 315c-9 0 -17 0 -20 3
c-48 38 -47 153 -6 250c64 159 253 260 339 260c49 0 65 -12 126 -84c20 17 57 49 86 76l7 -4c-32 -39 -63 -79 -88 -118c-231 -371 -181 -540 -242 -642c-53 -88 -206 -140 -334 -137z" />
    <glyph glyph-name="Hcircumflex" unicode="&#x124;" horiz-adv-x="1337" 
d="M1252 1012c-1 3 -3 3 -6 0c-38 -43 -102 -98 -134 -122c-12 -8 -24 -18 -39 -17c-15 3 -21 11 -20 18c0 4 0 15 23 30c40 24 119 67 169 101c4 4 8 4 11 -1c43 -56 58 -75 90 -107c19 -17 21 -26 20 -33c0 -12 -11 -22 -22 -21c-15 1 -28 10 -37 27
c-16 31 -31 74 -55 125zM383 417c-113 0 -193 -57 -237 -158c-58 -124 40 -313 199 -313c56 0 115 27 237 229c36 60 87 142 134 225c-125 9 -245 17 -333 17zM78 247c57 84 203 195 365 195c68 0 177 -2 296 -3c31 53 59 103 82 144c35 64 58 116 55 151
c0 17 -12 32 -31 39c-31 -10 -126 -81 -161 -116l-6 6c35 35 134 118 194 155c9 6 40 2 47 -1c23 -18 36 -57 36 -76c3 -38 -34 -111 -69 -169c-23 -39 -49 -86 -78 -134c119 -3 236 -4 325 -4c37 63 68 112 83 135c120 181 315 278 458 286c64 4 289 -36 313 -44
c29 -8 -25 -55 -52 -55c-53 0 -251 59 -344 59s-184 -37 -309 -245c-28 -45 -55 -91 -82 -136c115 0 187 -1 210 -2c22 0 -38 -50 -62 -53c-26 -5 -71 -3 -181 -3c-27 -47 -52 -92 -77 -139c-35 -64 -57 -115 -54 -151c1 -16 12 -31 32 -38c30 11 125 80 161 116l6 -7
c-37 -34 -134 -118 -194 -154c-9 -5 -44 -5 -47 1c-24 19 -36 56 -37 76c-3 40 37 107 69 169c23 41 48 84 73 127c-91 3 -203 11 -316 19c-58 -98 -118 -194 -134 -218c-121 -182 -300 -267 -350 -267c-175 0 -317 197 -221 337z" />
    <glyph glyph-name="hcircumflex" unicode="&#x125;" horiz-adv-x="600" 
d="M685 1094c-1 3 -3 3 -6 0c-38 -43 -102 -98 -134 -122c-12 -8 -24 -18 -39 -17c-15 3 -21 11 -20 18c0 4 0 15 23 30c40 24 119 67 169 101c4 4 8 4 11 -1c43 -56 58 -75 90 -107c19 -17 21 -26 20 -33c0 -12 -11 -22 -22 -21c-15 1 -28 10 -37 27c-16 31 -31 74 -55 125
zM517 513c63 -14 60 -86 -44 -261c-37 -63 -78 -125 -75 -162c1 -17 9 -33 29 -40c32 11 87 48 124 85l6 -7c-37 -36 -94 -86 -158 -125c-11 -7 -40 -3 -45 1c-24 19 -38 59 -38 79c-3 41 56 123 90 184c83 144 82 180 57 202c-61 -13 -230 -148 -342 -313
c-35 -51 -65 -113 -86 -148c-22 0 -77 -15 -56 41c52 80 265 474 312 549c72 120 274 294 526 294c43 0 92 -1 116 -5c32 -5 -10 -70 -34 -70c-64 0 -155 17 -252 17s-155 -19 -283 -238c-56 -92 -130 -230 -214 -382c120 146 301 288 367 299z" />
    <glyph glyph-name="Hbar" unicode="&#x126;" horiz-adv-x="1337" 
d="M876 734c0 17 -12 32 -31 39c-31 -10 -90 -50 -126 -86c-44 -44 -36 -83 32 -83h81c28 55 47 99 44 130zM1057 596c-16 -1 -33 -1 -50 -1h-108l-13 -23c-23 -39 -49 -86 -78 -134c119 -3 236 -4 325 -4c37 63 68 112 83 135c4 7 9 14 14 21c-64 3 -125 6 -173 6zM383 417
c-113 0 -193 -57 -237 -158c-58 -124 40 -313 199 -313c56 0 115 27 237 229c37 61 88 144 136 228c-127 7 -247 14 -335 14zM1041 3c-9 -5 -44 -5 -47 1c-24 19 -36 56 -37 76c-3 40 37 107 69 169c25 44 50 90 77 134c-91 3 -202 9 -318 16c-61 -101 -120 -195 -136 -222
c-121 -182 -300 -267 -350 -267c-175 0 -317 197 -221 337c57 84 203 195 365 195c68 0 177 -2 296 -3c31 53 59 103 82 144l6 12h-76c-77 0 -91 46 -40 97c35 35 100 89 161 126c9 6 40 2 47 -1c23 -18 36 -57 36 -76c3 -32 -23 -85 -50 -136c59 1 118 2 157 2
c51 0 117 2 185 5c120 155 296 235 427 243c64 4 289 -36 313 -44c29 -8 -25 -55 -52 -55c-53 0 -251 59 -344 59c-87 0 -168 -32 -280 -200l241 14c17 0 -14 -48 -47 -51c-22 -5 -114 3 -213 8l-10 -16c-28 -45 -55 -91 -82 -136c115 0 187 -1 210 -2c22 0 -32 -43 -56 -46
c-26 -5 -72 -3 -183 -3c-28 -49 -54 -98 -81 -146c-35 -64 -57 -115 -54 -151c1 -16 12 -31 32 -38c30 11 125 80 161 116l6 -7c-37 -34 -134 -118 -194 -154z" />
    <glyph glyph-name="hbar" unicode="&#x127;" horiz-adv-x="600" 
d="M519 674c33 1 35 2 35 -1c0 -7 -17 -23 -46 -51c-18 0 -75 1 -118 1h-10l-16 -27c-56 -92 -130 -230 -214 -382c120 146 301 288 367 299c63 -14 60 -86 -44 -261c-37 -63 -78 -125 -75 -162c1 -17 9 -33 29 -40c32 11 87 48 124 85l6 -7c-37 -36 -94 -86 -158 -125
c-11 -7 -40 -3 -45 1c-24 19 -38 59 -38 79c-3 41 56 123 90 184c83 144 82 180 57 202c-61 -13 -230 -148 -342 -313c-35 -51 -65 -113 -86 -148c-22 0 -77 -15 -56 41c52 80 265 474 312 549l15 24c-11 0 -21 -1 -32 -1c-33 -1 -35 -1 -35 2c0 7 17 23 46 51
c12 0 35 -1 63 -1c95 106 265 219 469 219c43 0 92 -1 116 -5c32 -5 -10 -70 -34 -70c-64 0 -155 17 -252 17c-84 0 -140 -14 -236 -161c35 0 72 0 108 1z" />
    <glyph glyph-name="Itilde" unicode="&#x128;" horiz-adv-x="732" 
d="M634 916c59 75 79 102 106 102c47 0 125 -64 165 -64c20 0 23 2 65 60c7 8 15 4 8 -5c-48 -71 -80 -110 -115 -110c-45 0 -121 69 -163 69c-14 0 -15 -6 -58 -57c-9 -11 -13 -6 -8 5zM464 421c90 194 163 319 271 367c-97 8 -316 -39 -344 -39c-19 0 30 54 56 65
c16 8 119 6 164 6c126 0 335 9 355 9c32 0 52 -5 59 -14c3 -13 -20 -36 -45 -52c-37 -11 -200 51 -272 0c-74 -50 -87 -175 -164 -350c-88 -196 -192 -325 -283 -373c39 -15 293 40 362 36c26 0 -9 -74 -72 -74l-139 3c-192 0 -368 -8 -390 -8c-31 0 -50 5 -59 15
c0 15 29 42 49 48c24 8 101 -19 174 -19c43 0 77 4 105 27c70 56 96 177 173 353z" />
    <glyph glyph-name="itilde" unicode="&#x129;" horiz-adv-x="309" 
d="M158 600c59 75 79 102 106 102c47 0 125 -64 165 -64c20 0 23 2 65 60c7 8 15 4 8 -5c-48 -71 -80 -110 -115 -110c-45 0 -121 69 -163 69c-14 0 -15 -6 -58 -57c-9 -11 -13 -6 -8 5zM292 430c0 -40 -73 -126 -108 -183c-39 -63 -84 -125 -81 -162c1 -17 23 -30 43 -37
c32 11 83 50 120 87l6 -7c-37 -36 -91 -86 -155 -125c-10 -5 -49 -5 -55 1c-25 19 -40 54 -41 74c-3 41 54 124 91 185c52 87 87 127 95 160c5 19 -15 41 -30 44c-25 -8 -87 -52 -124 -84l-7 5c35 35 115 93 165 125c11 7 22 8 33 3c23 -10 48 -62 48 -86z" />
    <glyph glyph-name="Imacron" unicode="&#x12a;" horiz-adv-x="732" 
d="M801 976h1c33 0 63 0 99 1c37 1 39 2 39 -1c0 -7 -19 -26 -51 -57c-9 0 -47 2 -86 2c-34 0 -48 -3 -83 -3c-37 -1 -39 0 -39 3c0 7 19 25 51 56c9 0 32 -1 69 -1zM464 421c90 194 163 319 271 367c-97 8 -316 -39 -344 -39c-19 0 30 54 56 65c16 8 119 6 164 6
c126 0 335 9 355 9c32 0 52 -5 59 -14c3 -13 -20 -36 -45 -52c-37 -11 -200 51 -272 0c-74 -50 -87 -175 -164 -350c-88 -196 -192 -325 -283 -373c39 -15 293 40 362 36c26 0 -9 -74 -72 -74l-139 3c-192 0 -368 -8 -390 -8c-31 0 -50 5 -59 15c0 15 29 42 49 48
c24 8 101 -19 174 -19c43 0 77 4 105 27c70 56 96 177 173 353z" />
    <glyph glyph-name="imacron" unicode="&#x12b;" horiz-adv-x="309" 
d="M314 650h1c33 0 63 0 99 1c37 1 39 2 39 -1c0 -7 -19 -26 -51 -57c-9 0 -47 2 -86 2c-34 0 -48 -3 -83 -3c-37 -1 -39 0 -39 3c0 7 19 25 51 56c9 0 32 -1 69 -1zM292 430c0 -40 -73 -126 -108 -183c-39 -63 -84 -125 -81 -162c1 -17 23 -30 43 -37c32 11 83 50 120 87
l6 -7c-37 -36 -91 -86 -155 -125c-10 -5 -49 -5 -55 1c-25 19 -40 54 -41 74c-3 41 54 124 91 185c52 87 87 127 95 160c5 19 -15 41 -30 44c-25 -8 -87 -52 -124 -84l-7 5c35 35 115 93 165 125c11 7 22 8 33 3c23 -10 48 -62 48 -86z" />
    <glyph glyph-name="Ibreve" unicode="&#x12c;" horiz-adv-x="732" 
d="M765 910c-55 0 -96 32 -131 79c-4 7 -7 9 -7 13c0 5 9 11 26 16c23 7 27 7 35 -4c39 -51 69 -81 112 -81c31 0 58 27 83 82c2 5 6 8 12 8c7 0 13 -5 8 -12c-30 -52 -84 -98 -138 -101zM464 421c90 194 163 319 271 367c-97 8 -316 -39 -344 -39c-19 0 30 54 56 65
c16 8 119 6 164 6c126 0 335 9 355 9c32 0 52 -5 59 -14c3 -13 -20 -36 -45 -52c-37 -11 -200 51 -272 0c-74 -50 -87 -175 -164 -350c-88 -196 -192 -325 -283 -373c39 -15 293 40 362 36c26 0 -9 -74 -72 -74l-139 3c-192 0 -368 -8 -390 -8c-31 0 -50 5 -59 15
c0 15 29 42 49 48c24 8 101 -19 174 -19c43 0 77 4 105 27c70 56 96 177 173 353z" />
    <glyph glyph-name="ibreve" unicode="&#x12d;" horiz-adv-x="309" 
d="M339 594c-55 0 -96 32 -131 79c-4 7 -7 9 -7 13c0 5 9 11 26 16c23 7 27 7 35 -4c39 -51 69 -81 112 -81c31 0 58 27 83 82c2 5 6 8 12 8c7 0 13 -5 8 -12c-30 -52 -84 -98 -138 -101zM292 430c0 -40 -73 -126 -108 -183c-39 -63 -84 -125 -81 -162c1 -17 23 -30 43 -37
c32 11 83 50 120 87l6 -7c-37 -36 -91 -86 -155 -125c-10 -5 -49 -5 -55 1c-25 19 -40 54 -41 74c-3 41 54 124 91 185c52 87 87 127 95 160c5 19 -15 41 -30 44c-25 -8 -87 -52 -124 -84l-7 5c35 35 115 93 165 125c11 7 22 8 33 3c23 -10 48 -62 48 -86z" />
    <glyph glyph-name="Iogonek" unicode="&#x12e;" horiz-adv-x="732" 
d="M464 421c90 194 163 319 271 367c-97 8 -316 -39 -344 -39c-19 0 30 54 56 65c16 8 119 6 164 6c126 0 335 9 355 9c32 0 52 -5 59 -14c3 -13 -20 -36 -45 -52c-37 -11 -200 51 -272 0c-74 -50 -87 -175 -164 -350c-88 -196 -192 -325 -283 -373c39 -15 293 40 362 36
c15 -1 10 -25 -9 -45c-50 -61 -61 -87 -64 -107c-4 -27 14 -48 57 -48c35 0 65 14 82 23c5 3 -29 -71 -40 -79c-15 -7 -44 -15 -75 -15c-47 0 -76 30 -69 81c3 31 29 66 77 122c-10 -4 -20 -6 -31 -6l-139 3c-192 0 -368 -8 -390 -8c-31 0 -50 5 -59 15c0 15 29 42 49 48
c24 8 101 -19 174 -19c43 0 77 4 105 27c70 56 96 177 173 353z" />
    <glyph glyph-name="iogonek" unicode="&#x12f;" horiz-adv-x="309" 
d="M302 586l-6 6c96 99 191 206 241 277c14 16 39 -1 23 -17c-60 -68 -158 -165 -258 -266zM171 -124c35 0 65 14 82 23c5 3 -29 -71 -40 -79c-15 -7 -44 -15 -75 -15c-47 0 -76 30 -69 81c4 36 40 81 108 158c-19 -15 -39 -28 -60 -41c-10 -5 -49 -5 -55 1
c-25 19 -40 54 -41 74c-3 41 54 124 91 185c52 87 87 127 95 160c5 19 -15 41 -30 44c-25 -8 -87 -52 -124 -84l-7 5c35 35 115 93 165 125c11 7 22 8 33 3c23 -10 48 -62 48 -86c0 -40 -73 -126 -108 -183c-39 -63 -84 -125 -81 -162c1 -17 23 -30 43 -37
c32 11 83 50 120 87l6 -7c-16 -16 -35 -33 -56 -52c-84 -97 -99 -127 -102 -152c-4 -27 14 -48 57 -48z" />
    <glyph glyph-name="Idot" unicode="&#x130;" horiz-adv-x="732" 
d="M752 966c0 32 25 58 57 58s58 -26 58 -58s-26 -57 -58 -57s-57 25 -57 57zM464 421c90 194 163 319 271 367c-97 8 -316 -39 -344 -39c-19 0 30 54 56 65c16 8 119 6 164 6c126 0 335 9 355 9c32 0 52 -5 59 -14c3 -13 -20 -36 -45 -52c-37 -11 -200 51 -272 0
c-74 -50 -87 -175 -164 -350c-88 -196 -192 -325 -283 -373c39 -15 293 40 362 36c26 0 -9 -74 -72 -74l-139 3c-192 0 -368 -8 -390 -8c-31 0 -50 5 -59 15c0 15 29 42 49 48c24 8 101 -19 174 -19c43 0 77 4 105 27c70 56 96 177 173 353z" />
    <glyph glyph-name="dotlessi" unicode="&#x131;" horiz-adv-x="309" 
d="M292 430c0 -40 -73 -126 -108 -183c-39 -63 -84 -125 -81 -162c1 -17 23 -30 43 -37c32 11 83 50 120 87l6 -7c-37 -36 -91 -86 -155 -125c-10 -5 -49 -5 -55 1c-25 19 -40 54 -41 74c-3 41 54 124 91 185c52 87 87 127 95 160c5 19 -15 41 -30 44
c-25 -8 -87 -52 -124 -84l-7 5c35 35 115 93 165 125c11 7 22 8 33 3c23 -10 48 -62 48 -86z" />
    <glyph glyph-name="IJ" unicode="&#x132;" horiz-adv-x="1126" 
d="M686 823h397c122 0 176 10 230 10c17 0 -36 -66 -59 -66c-194 0 -244 -218 -324 -457c-145 -418 -163 -403 -480 -588c-27 -17 -37 -5 -6 12c260 148 302 255 418 608c81 229 183 364 319 423c-101 11 -205 19 -281 19c-104 0 -156 -11 -192 -35
c-74 -50 -87 -161 -164 -336c-88 -196 -192 -325 -283 -373c39 -15 293 40 362 36c26 0 -9 -74 -72 -74l-139 3c-192 0 -368 -8 -390 -8c-31 0 -50 5 -59 15c0 15 29 42 49 48c24 8 101 -19 174 -19c43 0 77 4 105 27c70 56 96 177 173 353c91 195 163 305 271 353
c-96 11 -317 -25 -344 -25c-19 0 30 54 56 65c15 8 92 9 239 9z" />
    <glyph glyph-name="ij" unicode="&#x133;" horiz-adv-x="616" 
d="M600 586l-6 6c96 99 191 206 241 277c14 16 39 -1 23 -17c-60 -68 -158 -165 -258 -266zM487 470c-32 -8 -99 -56 -133 -90l-7 6c36 38 122 99 173 131c12 7 28 5 37 1c23 -10 29 -66 24 -105c0 -26 -66 -133 -153 -286c-112 -197 -191 -253 -288 -304
c-88 -47 -173 -61 -246 -61c-72 0 -101 5 -112 17c-8 22 23 56 41 69c40 12 250 -65 322 -13c72 53 136 167 224 319c53 94 133 225 138 265c3 25 -8 47 -20 51zM302 586l-6 6c96 99 191 206 241 277c14 16 39 -1 23 -17c-60 -68 -158 -165 -258 -266zM292 430
c0 -40 -73 -126 -108 -183c-39 -63 -84 -125 -81 -162c1 -17 23 -30 43 -37c32 11 83 50 120 87l6 -7c-37 -36 -91 -86 -155 -125c-10 -5 -49 -5 -55 1c-25 19 -40 54 -41 74c-3 41 54 124 91 185c52 87 87 127 95 160c5 19 -15 41 -30 44c-25 -8 -87 -52 -124 -84l-7 5
c35 35 115 93 165 125c11 7 22 8 33 3c23 -10 48 -62 48 -86z" />
    <glyph glyph-name="Jcircumflex" unicode="&#x134;" horiz-adv-x="394" 
d="M565 1042c-1 3 -3 3 -6 0c-38 -43 -102 -98 -134 -122c-12 -8 -24 -18 -39 -17c-15 3 -21 11 -20 18c0 4 0 15 23 30c40 24 119 67 169 101c4 4 8 4 11 -1c43 -56 58 -75 90 -107c19 -17 21 -26 20 -33c0 -12 -11 -22 -22 -21c-15 1 -28 10 -37 27c-16 31 -31 74 -55 125
zM563 780c-101 13 -290 -41 -341 -41c-17 0 32 62 59 70c15 7 33 12 161 12c122 0 176 10 230 10c17 0 -36 -59 -59 -59c-194 0 -244 -223 -324 -462c-145 -418 -163 -403 -480 -588c-27 -17 -37 -5 -6 12c260 148 302 255 418 608c80 231 164 361 342 438z" />
    <glyph glyph-name="jcircumflex" unicode="&#x135;" horiz-adv-x="303" 
d="M344 716c-1 3 -3 3 -6 0c-38 -43 -102 -98 -134 -122c-12 -8 -24 -18 -39 -17c-15 3 -21 11 -20 18c0 4 0 15 23 30c40 24 119 67 169 101c4 4 8 4 11 -1c43 -56 58 -75 90 -107c19 -17 21 -26 20 -33c0 -12 -11 -22 -22 -21c-15 1 -28 10 -37 27c-16 31 -31 74 -55 125z
M190 470c-32 -8 -99 -56 -133 -90l-7 6c36 38 122 99 173 131c12 7 28 5 37 1c23 -10 29 -66 24 -105c0 -26 -66 -133 -153 -286c-112 -197 -191 -253 -288 -304c-88 -47 -173 -61 -246 -61c-72 0 -101 5 -112 17c-8 22 23 56 41 69c40 12 250 -65 322 -13
c72 53 136 167 224 319c53 94 133 225 138 265c3 25 -8 47 -20 51z" />
    <glyph glyph-name="Kcommaaccent" unicode="&#x136;" horiz-adv-x="1116" 
d="M561 -110h-2c-9 -15 -35 -33 -51 -33c-11 0 -19 4 -25 13c-8 17 10 61 27 75c7 5 29 9 45 9c15 0 34 -4 41 -13c8 -9 6 -37 -5 -56c-32 -60 -106 -94 -149 -110c-3 -1 -5 2 -2 3c42 18 95 65 121 112zM755 463l11 8c27 -149 78 -301 115 -360c21 -34 43 -55 68 -64
c33 9 81 49 133 97l6 -4c-43 -40 -104 -103 -168 -137c-11 -5 -40 -4 -45 1c-24 19 -47 52 -58 71c-40 64 -88 212 -109 345c-83 -73 -161 -144 -217 -193c-52 -84 -111 -152 -175 -188c-84 -47 -166 -61 -231 -61c-69 0 -101 9 -109 17c0 10 14 49 42 66
c20 3 116 -34 196 -34c40 0 78 5 103 22c58 42 102 148 174 329c109 266 207 373 284 405c-101 13 -282 -37 -331 -37c-19 0 33 59 59 70c14 8 33 8 160 8c123 0 177 10 231 10c16 0 -38 -50 -60 -50c-108 0 -134 -92 -254 -380c-23 -53 -46 -105 -74 -152
c133 129 385 355 504 446c120 91 230 123 334 123c19 0 27 -6 27 -13c0 -17 -33 -63 -49 -63c-43 0 -99 8 -150 8c-39 0 -92 -21 -141 -57c-67 -48 -172 -139 -276 -233z" />
    <glyph glyph-name="kcommaaccent" unicode="&#x137;" horiz-adv-x="606" 
d="M172 -130h-2c-9 -15 -35 -33 -51 -33c-11 0 -19 4 -25 13c-8 17 10 61 27 75c7 5 29 9 45 9c15 0 34 -4 41 -13c8 -9 6 -37 -5 -56c-32 -60 -106 -94 -149 -110c-3 -1 -5 2 -2 3c42 18 95 65 121 112zM501 408c3 24 -22 75 -52 78c-60 -13 -206 -137 -280 -235l-5 -10
c280 37 334 111 337 167zM34 8c-22 0 -77 -15 -56 41c52 80 265 474 312 549c72 120 274 294 526 294c43 0 92 -1 116 -5c32 -5 -10 -70 -34 -70c-64 0 -155 17 -252 17s-155 -19 -283 -238c-41 -69 -104 -185 -172 -306c129 139 255 233 312 233c41 -8 87 -76 77 -118
c-8 -36 -43 -80 -78 -99c-48 -29 -110 -39 -246 -58c28 -4 60 -18 79 -45c22 -30 27 -103 49 -141c5 -9 19 -20 38 -20c32 11 92 58 130 96l6 -7c-37 -36 -92 -87 -156 -126c-8 -5 -73 -6 -86 15c-32 48 -31 135 -60 175c-23 29 -47 43 -96 39c-44 -80 -87 -158 -126 -226z
" />
    <glyph glyph-name="kgreenlandic" unicode="&#x138;" horiz-adv-x="606" 
d="M501 408c3 25 -19 73 -49 76c-60 -13 -198 -128 -276 -225l-8 -14c-1 -1 -2 -3 -2 -4c277 37 332 111 335 167zM252 429c0 -29 -26 -82 -53 -131c126 136 253 225 308 225c46 -8 83 -76 73 -118c-8 -36 -43 -80 -78 -99c-48 -29 -110 -39 -246 -58c28 -4 60 -18 79 -45
c22 -30 27 -103 49 -141c5 -9 19 -20 38 -20c32 11 92 58 130 96l6 -7c-37 -36 -92 -87 -156 -126c-8 -5 -73 -6 -86 15c-32 48 -31 135 -60 175c-23 29 -46 43 -94 39c-47 -79 -89 -158 -128 -226c-22 0 -77 -15 -56 41c16 29 194 315 194 369c0 17 -11 36 -24 39
c-28 -6 -86 -59 -123 -91l-6 6c35 35 115 110 165 136c48 27 68 -64 68 -79z" />
    <glyph glyph-name="Lacute" unicode="&#x139;" horiz-adv-x="1008" 
d="M916 915c-1 -1 -3 -2 -4 -2c-3 0 -4 1 -4 4c0 1 1 3 3 5c57 54 119 151 132 164c5 5 15 6 26 6c9 0 17 0 20 -3s3 -10 3 -21c0 -7 -6 -12 -13 -19c-14 -14 -108 -76 -163 -134zM117 116c-65 0 -114 -28 -138 -92c-27 -67 46 -173 142 -173c70 0 119 38 183 179
c-72 49 -139 86 -187 86zM991 12l8 -6c-24 -28 -50 -59 -69 -78c-75 -73 -131 -121 -230 -121c-96 0 -243 119 -373 207c-72 -115 -175 -214 -274 -214c-108 0 -174 107 -137 195c27 67 150 149 263 149c41 0 93 -23 150 -55c56 141 116 374 183 516c72 163 221 250 420 250
c70 0 187 -27 211 -38c29 -13 -31 -65 -48 -65c-57 0 -177 75 -275 75c-93 0 -135 -27 -226 -231c-71 -159 -143 -345 -221 -500c-4 -9 -9 -17 -13 -25c136 -80 295 -200 413 -200c99 0 160 75 218 141z" />
    <glyph glyph-name="lacute" unicode="&#x13a;" horiz-adv-x="303" 
d="M735 958c-1 -1 -3 -2 -4 -2c-3 0 -4 1 -4 4c0 1 1 3 3 5c57 54 119 151 132 164c5 5 15 6 26 6c9 0 17 0 20 -3s3 -10 3 -21c0 -7 -6 -12 -13 -19c-14 -14 -108 -76 -163 -134zM294 603c72 120 267 289 520 289c43 0 92 -1 116 -5c32 -5 -10 -70 -34 -70
c-64 0 -155 17 -252 17c-98 0 -154 -20 -282 -238c-71 -116 -135 -232 -199 -348c-36 -67 -65 -121 -62 -158c1 -17 13 -33 33 -40c32 11 84 48 121 85l6 -7c-37 -36 -91 -86 -155 -125c-11 -5 -44 -4 -49 1c-24 19 -34 60 -34 80c-3 41 35 114 70 176
c74 136 172 298 201 343z" />
    <glyph glyph-name="Lcommaaccent" unicode="&#x13b;" horiz-adv-x="1008" 
d="M375 -293h-2c-9 -15 -35 -33 -51 -33c-11 0 -19 4 -25 13c-8 17 10 61 27 75c7 5 29 9 45 9c15 0 34 -4 41 -13c8 -9 6 -37 -5 -56c-32 -60 -106 -94 -149 -110c-3 -1 -5 2 -2 3c42 18 95 65 121 112zM117 116c-65 0 -114 -28 -138 -92c-27 -67 46 -173 142 -173
c70 0 119 38 183 179c-72 49 -139 86 -187 86zM991 12l8 -6c-24 -28 -50 -59 -69 -78c-75 -73 -131 -121 -230 -121c-96 0 -243 119 -373 207c-72 -115 -175 -214 -274 -214c-108 0 -174 107 -137 195c27 67 150 149 263 149c41 0 93 -23 150 -55c56 141 116 374 183 516
c72 163 221 250 420 250c70 0 187 -27 211 -38c29 -13 -31 -65 -48 -65c-57 0 -177 75 -275 75c-93 0 -135 -27 -226 -231c-71 -159 -143 -345 -221 -500c-4 -9 -9 -17 -13 -25c136 -80 295 -200 413 -200c99 0 160 75 218 141z" />
    <glyph glyph-name="lcommaaccent" unicode="&#x13c;" horiz-adv-x="440" 
d="M620 674h-2c-9 -15 -35 -33 -51 -33c-11 0 -19 4 -25 13c-8 17 10 61 27 75c7 5 29 9 45 9c15 0 34 -4 41 -13c8 -9 6 -37 -5 -56c-32 -60 -106 -94 -149 -110c-3 -1 -5 2 -2 3c42 18 95 65 121 112zM294 603c72 120 267 289 520 289c43 0 92 -1 116 -5
c32 -5 -10 -70 -34 -70c-64 0 -155 17 -252 17c-98 0 -154 -20 -282 -238c-71 -116 -135 -232 -199 -348c-36 -67 -65 -121 -62 -158c1 -17 13 -33 33 -40c32 11 84 48 121 85l6 -7c-37 -36 -91 -86 -155 -125c-11 -5 -44 -4 -49 1c-24 19 -34 60 -34 80
c-3 41 35 114 70 176c74 136 172 298 201 343z" />
    <glyph glyph-name="Lcaron" unicode="&#x13d;" horiz-adv-x="1008" 
d="M998 932c1 -3 3 -3 6 0c35 43 103 99 134 122c12 8 24 18 39 17c15 -3 21 -11 20 -18c0 -4 0 -15 -23 -30c-40 -24 -119 -67 -169 -101c-5 -3 -9 -3 -12 1c-44 55 -57 75 -89 107c-19 17 -21 26 -20 33c0 12 11 22 22 21c15 -1 28 -10 37 -27c16 -31 31 -74 55 -125z
M117 116c-65 0 -114 -28 -138 -92c-27 -67 46 -173 142 -173c70 0 119 38 183 179c-72 49 -139 86 -187 86zM991 12l8 -6c-24 -28 -50 -59 -69 -78c-75 -73 -131 -121 -230 -121c-96 0 -243 119 -373 207c-72 -115 -175 -214 -274 -214c-108 0 -174 107 -137 195
c27 67 150 149 263 149c41 0 93 -23 150 -55c56 141 116 374 183 516c72 163 221 250 420 250c70 0 187 -27 211 -38c29 -13 -31 -65 -48 -65c-57 0 -177 75 -275 75c-93 0 -135 -27 -226 -231c-71 -159 -143 -345 -221 -500c-4 -9 -9 -17 -13 -25
c136 -80 295 -200 413 -200c99 0 160 75 218 141z" />
    <glyph glyph-name="lcaron" unicode="&#x13e;" horiz-adv-x="440" 
d="M814 963c1 -3 3 -3 6 0c35 43 103 99 134 122c12 8 24 18 39 17c15 -3 21 -11 20 -18c0 -4 0 -15 -23 -30c-40 -24 -119 -67 -169 -101c-5 -3 -9 -3 -12 1c-44 55 -57 75 -89 107c-19 17 -21 26 -20 33c0 12 11 22 22 21c15 -1 28 -10 37 -27c16 -31 31 -74 55 -125z
M294 603c72 120 267 289 520 289c43 0 92 -1 116 -5c32 -5 -10 -70 -34 -70c-64 0 -155 17 -252 17c-98 0 -154 -20 -282 -238c-71 -116 -135 -232 -199 -348c-36 -67 -65 -121 -62 -158c1 -17 13 -33 33 -40c32 11 84 48 121 85l6 -7c-37 -36 -91 -86 -155 -125
c-11 -5 -44 -4 -49 1c-24 19 -34 60 -34 80c-3 41 35 114 70 176c74 136 172 298 201 343z" />
    <glyph glyph-name="Ldot" unicode="&#x13f;" horiz-adv-x="1008" 
d="M746 360c0 32 25 58 57 58s58 -26 58 -58s-26 -57 -58 -57s-57 25 -57 57zM117 116c-65 0 -114 -28 -138 -92c-27 -67 46 -173 142 -173c70 0 119 38 183 179c-72 49 -139 86 -187 86zM991 12l8 -6c-24 -28 -50 -59 -69 -78c-75 -73 -131 -121 -230 -121
c-96 0 -243 119 -373 207c-72 -115 -175 -214 -274 -214c-108 0 -174 107 -137 195c27 67 150 149 263 149c41 0 93 -23 150 -55c56 141 116 374 183 516c72 163 221 250 420 250c70 0 187 -27 211 -38c29 -13 -31 -65 -48 -65c-57 0 -177 75 -275 75
c-93 0 -135 -27 -226 -231c-71 -159 -143 -345 -221 -500c-4 -9 -9 -17 -13 -25c136 -80 295 -200 413 -200c99 0 160 75 218 141z" />
    <glyph glyph-name="ldot" unicode="&#x140;" horiz-adv-x="540" 
d="M412 412c0 32 25 58 57 58s58 -26 58 -58s-26 -57 -58 -57s-57 25 -57 57zM294 603c72 120 267 289 520 289c43 0 92 -1 116 -5c32 -5 -10 -70 -34 -70c-64 0 -155 17 -252 17c-98 0 -154 -20 -282 -238c-71 -116 -135 -232 -199 -348c-36 -67 -65 -121 -62 -158
c1 -17 13 -33 33 -40c32 11 84 48 121 85l6 -7c-37 -36 -91 -86 -155 -125c-11 -5 -44 -4 -49 1c-24 19 -34 60 -34 80c-3 41 35 114 70 176c74 136 172 298 201 343z" />
    <glyph glyph-name="Lslash" unicode="&#x141;" horiz-adv-x="1008" 
d="M117 116c-65 0 -114 -28 -138 -92c-27 -67 46 -173 142 -173c70 0 119 38 183 179c-72 49 -139 86 -187 86zM991 12l8 -6c-24 -28 -50 -59 -69 -78c-75 -73 -131 -121 -230 -121c-96 0 -243 119 -373 207c-72 -115 -175 -214 -274 -214c-108 0 -174 107 -137 195
c27 67 150 149 263 149c41 0 93 -23 150 -55c33 84 68 199 105 311c-47 -23 -87 -40 -120 -59c-8 0 -14 15 -10 22c35 13 82 31 135 52c23 71 48 135 73 190c72 163 221 250 420 250c70 0 187 -27 211 -38c29 -13 -31 -65 -48 -65c-57 0 -177 75 -275 75
c-93 0 -135 -27 -226 -231c-23 -48 -42 -99 -65 -150c56 24 101 48 136 65c8 -3 17 -15 10 -22c-43 -16 -93 -34 -153 -59c-48 -115 -97 -230 -149 -334c-4 -9 -9 -17 -13 -25c136 -80 295 -200 413 -200c99 0 160 75 218 141z" />
    <glyph glyph-name="lslash" unicode="&#x142;" horiz-adv-x="440" 
d="M294 603c72 120 267 289 520 289c43 0 92 -1 116 -5c32 -5 -10 -70 -34 -70c-64 0 -155 17 -252 17c-98 0 -154 -20 -282 -238l-52 -86c56 24 100 49 135 65c8 -3 17 -15 10 -22c-43 -16 -94 -35 -154 -59c-48 -83 -94 -165 -138 -246c-36 -67 -65 -121 -62 -158
c1 -17 13 -33 33 -40c32 11 84 48 121 85l6 -7c-37 -36 -91 -86 -155 -125c-11 -5 -44 -4 -49 1c-24 19 -34 60 -34 80c-3 41 35 114 70 176c36 67 78 137 114 201c-43 -20 -81 -39 -113 -56c-8 0 -14 15 -10 22c35 13 81 30 134 51c35 59 61 104 76 125z" />
    <glyph glyph-name="Nacute" unicode="&#x143;" horiz-adv-x="947" 
d="M873 851c-1 -1 -3 -2 -4 -2c-3 0 -4 1 -4 4c0 1 1 3 3 5c57 54 119 151 132 164c5 5 15 6 26 6c9 0 17 0 20 -3s3 -10 3 -21c0 -7 -6 -12 -13 -19c-14 -14 -108 -76 -163 -134zM673 57c-17 -28 -34 -59 -41 -66s-18 -5 -19 2l-47 382c-16 135 -29 231 -42 300l-254 -379
c-182 -270 -282 -452 -539 -452c-82 0 -199 36 -207 44c-9 11 43 61 66 69c20 6 135 -57 263 -57c132 0 224 130 406 400l263 390c-17 87 -36 126 -65 145c-10 6 -21 9 -34 9s-26 -3 -41 -8c-33 -11 -178 -118 -222 -153l-6 7c43 35 199 156 267 193c20 12 78 19 104 8
c55 -24 84 -158 121 -495l35 -302c97 160 198 322 291 455c168 243 266 296 394 296c79 0 206 -22 225 -27c3 -1 4 -2 4 -4c0 -12 -51 -62 -69 -62c-4 0 -8 0 -16 1c-45 5 -161 36 -252 36c-81 0 -149 -65 -280 -252c-112 -159 -208 -319 -305 -480z" />
    <glyph glyph-name="nacute" unicode="&#x144;" horiz-adv-x="620" 
d="M375 570c-1 -1 -3 -2 -4 -2c-3 0 -4 1 -4 4c0 1 1 3 3 5c57 54 119 151 132 164c5 5 15 6 26 6c9 0 17 0 20 -3s3 -10 3 -21c0 -7 -6 -12 -13 -19c-14 -14 -108 -76 -163 -134zM60 4c-20 0 -81 -15 -60 41c60 80 189 286 185 368c-1 17 -11 35 -32 42
c-28 -7 -78 -38 -117 -81l-7 7c38 35 101 90 162 125c47 26 70 -59 73 -92c3 -52 -47 -141 -85 -206c115 147 289 284 358 305c63 -14 60 -86 -44 -261c-37 -63 -78 -125 -75 -162c1 -17 9 -33 29 -40c32 11 84 48 121 85l6 -7c-37 -36 -91 -86 -155 -125
c-11 -7 -40 -3 -45 1c-24 19 -38 59 -38 79c-3 41 56 123 90 184c83 144 82 173 57 195c-59 -19 -214 -140 -329 -306c-35 -51 -72 -117 -94 -152z" />
    <glyph glyph-name="Ncommaaccent" unicode="&#x145;" horiz-adv-x="947" 
d="M328 -110h-2c-9 -15 -35 -33 -51 -33c-11 0 -19 4 -25 13c-8 17 10 61 27 75c7 5 29 9 45 9c15 0 34 -4 41 -13c8 -9 6 -37 -5 -56c-32 -60 -106 -94 -149 -110c-3 -1 -5 2 -2 3c42 18 95 65 121 112zM673 57c-17 -28 -34 -59 -41 -66s-18 -5 -19 2l-47 382
c-16 135 -29 231 -42 300l-254 -379c-182 -270 -282 -452 -539 -452c-82 0 -199 36 -207 44c-9 11 43 61 66 69c20 6 135 -57 263 -57c132 0 224 130 406 400l263 390c-17 87 -36 126 -65 145c-10 6 -21 9 -34 9s-26 -3 -41 -8c-33 -11 -178 -118 -222 -153l-6 7
c43 35 199 156 267 193c20 12 78 19 104 8c55 -24 84 -158 121 -495l35 -302c97 160 198 322 291 455c168 243 266 296 394 296c79 0 206 -22 225 -27c3 -1 4 -2 4 -4c0 -12 -51 -62 -69 -62c-4 0 -8 0 -16 1c-45 5 -161 36 -252 36c-81 0 -149 -65 -280 -252
c-112 -159 -208 -319 -305 -480z" />
    <glyph glyph-name="ncommaaccent" unicode="&#x146;" horiz-adv-x="620" 
d="M204 -129h-2c-9 -15 -35 -33 -51 -33c-11 0 -19 4 -25 13c-8 17 10 61 27 75c7 5 29 9 45 9c15 0 34 -4 41 -13c8 -9 6 -37 -5 -56c-32 -60 -106 -94 -149 -110c-3 -1 -5 2 -2 3c42 18 95 65 121 112zM60 4c-20 0 -81 -15 -60 41c60 80 189 286 185 368
c-1 17 -11 35 -32 42c-28 -7 -78 -38 -117 -81l-7 7c38 35 101 90 162 125c47 26 70 -59 73 -92c3 -52 -47 -141 -85 -206c115 147 289 284 358 305c63 -14 60 -86 -44 -261c-37 -63 -78 -125 -75 -162c1 -17 9 -33 29 -40c32 11 84 48 121 85l6 -7
c-37 -36 -91 -86 -155 -125c-11 -7 -40 -3 -45 1c-24 19 -38 59 -38 79c-3 41 56 123 90 184c83 144 82 173 57 195c-59 -19 -214 -140 -329 -306c-35 -51 -72 -117 -94 -152z" />
    <glyph glyph-name="Ncaron" unicode="&#x147;" horiz-adv-x="947" 
d="M884 877c1 -3 3 -3 6 0c35 43 103 99 134 122c12 8 24 18 39 17c15 -3 21 -11 20 -18c0 -4 0 -15 -23 -30c-40 -24 -119 -67 -169 -101c-5 -3 -9 -3 -12 1c-44 55 -57 75 -89 107c-19 17 -21 26 -20 33c0 12 11 22 22 21c15 -1 28 -10 37 -27c16 -31 31 -74 55 -125z
M673 57c-17 -28 -34 -59 -41 -66s-18 -5 -19 2l-47 382c-16 135 -29 231 -42 300l-254 -379c-182 -270 -282 -452 -539 -452c-82 0 -199 36 -207 44c-9 11 43 61 66 69c20 6 135 -57 263 -57c132 0 224 130 406 400l263 390c-17 87 -36 126 -65 145c-10 6 -21 9 -34 9
s-26 -3 -41 -8c-33 -11 -178 -118 -222 -153l-6 7c43 35 199 156 267 193c20 12 78 19 104 8c55 -24 84 -158 121 -495l35 -302c97 160 198 322 291 455c168 243 266 296 394 296c79 0 206 -22 225 -27c3 -1 4 -2 4 -4c0 -12 -51 -62 -69 -62c-4 0 -8 0 -16 1
c-45 5 -161 36 -252 36c-81 0 -149 -65 -280 -252c-112 -159 -208 -319 -305 -480z" />
    <glyph glyph-name="ncaron" unicode="&#x148;" horiz-adv-x="620" 
d="M372 566c1 -3 3 -3 6 0c35 43 103 99 134 122c12 8 24 18 39 17c15 -3 21 -11 20 -18c0 -4 0 -15 -23 -30c-40 -24 -119 -67 -169 -101c-5 -3 -9 -3 -12 1c-44 55 -57 75 -89 107c-19 17 -21 26 -20 33c0 12 11 22 22 21c15 -1 28 -10 37 -27c16 -31 31 -74 55 -125z
M60 4c-20 0 -81 -15 -60 41c60 80 189 286 185 368c-1 17 -11 35 -32 42c-28 -7 -78 -38 -117 -81l-7 7c38 35 101 90 162 125c47 26 70 -59 73 -92c3 -52 -47 -141 -85 -206c115 147 289 284 358 305c63 -14 60 -86 -44 -261c-37 -63 -78 -125 -75 -162c1 -17 9 -33 29 -40
c32 11 84 48 121 85l6 -7c-37 -36 -91 -86 -155 -125c-11 -7 -40 -3 -45 1c-24 19 -38 59 -38 79c-3 41 56 123 90 184c83 144 82 173 57 195c-59 -19 -214 -140 -329 -306c-35 -51 -72 -117 -94 -152z" />
    <glyph glyph-name="Eng" unicode="&#x14a;" horiz-adv-x="947" 
d="M332 -277c-9 -4 -17 7 -5 12c122 48 203 97 286 228c1 8 1 18 0 30l-47 382c-16 135 -29 231 -42 300l-254 -379c-182 -270 -282 -452 -539 -452c-82 0 -199 36 -207 44c-9 11 43 61 66 69c20 6 135 -57 263 -57c132 0 224 130 406 400l263 390c-17 87 -36 126 -65 145
c-10 6 -21 9 -34 9s-26 -3 -41 -8c-33 -11 -178 -118 -222 -153l-6 7c43 35 199 156 267 193c20 12 78 19 104 8c56 -24 81 -157 121 -495l37 -311c144 297 198 459 294 555c73 73 165 105 335 132c-23 3 -84 4 -107 4c-221 0 -370 -21 -427 -21c-17 0 32 62 59 70
c15 7 193 -4 321 -4c123 0 235 10 289 10c17 0 -36 -59 -59 -59c-137 0 -244 -56 -351 -167c-117 -123 -227 -312 -364 -561c-119 -218 -200 -260 -341 -321z" />
    <glyph glyph-name="eng" unicode="&#x14b;" horiz-adv-x="591" 
d="M425 267c83 144 82 173 57 195c-59 -19 -214 -140 -329 -306c-35 -51 -72 -117 -94 -152c-20 0 -81 -15 -60 41c60 80 189 286 185 368c-1 17 -11 35 -32 42c-28 -7 -78 -38 -117 -81l-7 7c38 35 101 90 162 125c47 26 70 -59 73 -92c3 -52 -47 -141 -85 -206
c115 147 289 284 358 305c63 -14 60 -86 -44 -261c-27 -47 -52 -91 -71 -126c-111 -196 -191 -252 -288 -303c-88 -47 -173 -61 -246 -61c-72 0 -101 5 -112 17c-8 22 23 56 41 69c40 12 250 -65 322 -13c73 54 135 167 223 319c19 37 44 78 64 113z" />
    <glyph glyph-name="Omacron" unicode="&#x14c;" horiz-adv-x="972" 
d="M753 976h1c33 0 63 0 99 1c37 1 39 2 39 -1c0 -7 -19 -26 -51 -57c-9 0 -47 2 -86 2c-34 0 -48 -3 -83 -3c-37 -1 -39 0 -39 3c0 7 19 25 51 56c9 0 32 -1 69 -1zM408 -2c-328 0 -372 331 -221 546c99 150 315 287 475 287c335 0 379 -331 228 -546
c-99 -149 -309 -287 -482 -287zM466 36c152 -3 272 81 349 211c145 229 107 548 -200 548c-156 0 -265 -79 -348 -215c-143 -230 -111 -540 199 -544z" />
    <glyph glyph-name="omacron" unicode="&#x14d;" horiz-adv-x="532" 
d="M444 670h1c33 0 63 0 99 1c37 1 39 2 39 -1c0 -7 -19 -26 -51 -57c-9 0 -47 2 -86 2c-34 0 -48 -3 -83 -3c-37 -1 -39 0 -39 3c0 7 19 25 51 56c9 0 32 -1 69 -1zM171 45c32 -9 74 -1 114 15c54 27 145 223 137 330c-4 47 -22 75 -53 86c-11 3 -39 16 -79 5
c-66 -40 -190 -224 -177 -370c11 -39 31 -59 58 -66zM441 200c-40 -70 -113 -128 -183 -166c-35 -19 -69 -40 -108 -40c-48 0 -96 35 -112 79c-11 40 -22 107 50 227c38 68 119 143 186 181c39 21 81 36 118 36h1c45 0 88 -36 103 -80c11 -35 12 -122 -55 -237z" />
    <glyph glyph-name="Obreve" unicode="&#x14e;" horiz-adv-x="972" 
d="M774 899c-55 0 -96 32 -131 79c-4 7 -7 9 -7 13c0 5 9 11 26 16c23 7 27 7 35 -4c39 -51 69 -81 112 -81c31 0 58 27 83 82c2 5 6 8 12 8c7 0 13 -5 8 -12c-30 -52 -84 -98 -138 -101zM408 -2c-328 0 -372 331 -221 546c99 150 315 287 475 287c335 0 379 -331 228 -546
c-99 -149 -309 -287 -482 -287zM466 36c152 -3 272 81 349 211c145 229 107 548 -200 548c-156 0 -265 -79 -348 -215c-143 -230 -111 -540 199 -544z" />
    <glyph glyph-name="obreve" unicode="&#x14f;" horiz-adv-x="532" 
d="M463 598c-55 0 -96 32 -131 79c-4 7 -7 9 -7 13c0 5 9 11 26 16c23 7 27 7 35 -4c39 -51 69 -81 112 -81c31 0 58 27 83 82c2 5 6 8 12 8c7 0 13 -5 8 -12c-30 -52 -84 -98 -138 -101zM171 45c32 -9 74 -1 114 15c54 27 145 223 137 330c-4 47 -22 75 -53 86
c-11 3 -39 16 -79 5c-66 -40 -190 -224 -177 -370c11 -39 31 -59 58 -66zM441 200c-40 -70 -113 -128 -183 -166c-35 -19 -69 -40 -108 -40c-48 0 -96 35 -112 79c-11 40 -22 107 50 227c38 68 119 143 186 181c39 21 81 36 118 36h1c45 0 88 -36 103 -80
c11 -35 12 -122 -55 -237z" />
    <glyph glyph-name="Ohungarumlaut" unicode="&#x150;" horiz-adv-x="972" 
d="M804 896c-1 -1 -3 -2 -5 -2s-4 1 -5 4c0 1 1 3 3 5c54 51 108 147 119 158c4 7 14 7 25 7c8 0 17 0 20 -3c2 -3 3 -9 3 -20c0 -6 -4 -12 -12 -19c-13 -13 -98 -74 -148 -130zM681 896c0 -1 -1 -2 -4 -2s-5 1 -6 4c0 2 1 4 2 5c44 52 82 148 92 158c4 7 15 7 23 7
c10 0 17 -1 21 -3c3 -3 4 -9 4 -20c0 -7 -5 -12 -10 -19c-11 -13 -82 -75 -122 -130zM408 -2c-328 0 -372 331 -221 546c99 150 315 287 475 287c335 0 379 -331 228 -546c-99 -149 -309 -287 -482 -287zM466 36c152 -3 272 81 349 211c145 229 107 548 -200 548
c-156 0 -265 -79 -348 -215c-143 -230 -111 -540 199 -544z" />
    <glyph glyph-name="ohungarumlaut" unicode="&#x151;" horiz-adv-x="532" 
d="M488 586c-1 -1 -3 -2 -5 -2s-4 1 -5 4c0 1 1 3 3 5c54 51 108 147 119 158c4 7 14 7 25 7c8 0 17 0 20 -3c2 -3 3 -9 3 -20c0 -6 -4 -12 -12 -19c-13 -13 -98 -74 -148 -130zM365 586c0 -1 -1 -2 -4 -2s-5 1 -6 4c0 2 1 4 2 5c44 52 82 148 92 158c4 7 15 7 23 7
c10 0 17 -1 21 -3c3 -3 4 -9 4 -20c0 -7 -5 -12 -10 -19c-11 -13 -82 -75 -122 -130zM171 45c32 -9 74 -1 114 15c54 27 145 223 137 330c-4 47 -22 75 -53 86c-11 3 -39 16 -79 5c-66 -40 -190 -224 -177 -370c11 -39 31 -59 58 -66zM441 200c-40 -70 -113 -128 -183 -166
c-35 -19 -69 -40 -108 -40c-48 0 -96 35 -112 79c-11 40 -22 107 50 227c38 68 119 143 186 181c39 21 81 36 118 36h1c45 0 88 -36 103 -80c11 -35 12 -122 -55 -237z" />
    <glyph glyph-name="OE" unicode="&#x152;" horiz-adv-x="1318" 
d="M601 443c104 0 203 2 292 3c24 141 -24 278 -152 329c-43 -45 -92 -203 -140 -332zM464 35c152 -3 276 84 353 214c33 52 56 109 69 166c-84 8 -181 15 -289 18c-65 -183 -134 -326 -213 -389c24 -6 51 -9 80 -9zM350 445c19 -1 39 -1 59 -1c35 -1 78 -1 119 -1
c60 168 124 283 204 335c-33 12 -71 19 -115 19c-156 0 -269 -82 -352 -218c-128 -204 -115 -472 105 -532c78 62 94 213 155 386c-116 3 -158 4 -179 4c-22 0 -5 8 4 8zM408 -2c-328 0 -372 331 -221 546c99 150 315 287 475 287c37 0 70 -4 100 -12c47 3 110 5 170 5
c192 0 409 7 454 7c7 0 23 0 32 -3c0 -15 -18 -47 -43 -63c-32 -8 -369 18 -370 18l-200 22c145 -59 189 -210 157 -357c99 3 177 4 222 4c47 0 84 -2 105 -7c16 -3 -25 -58 -49 -61c-29 -5 -40 -4 -83 -1c-44 3 -114 14 -206 25c-15 -43 -34 -84 -61 -123
c-77 -115 -219 -224 -360 -267l396 50c107 11 232 17 253 17c18 0 -48 -58 -56 -72c-12 -7 -140 -7 -182 -7h-102c-192 0 -402 -8 -423 -8v1c-3 0 -5 -1 -8 -1z" />
    <glyph glyph-name="oe" unicode="&#x153;" horiz-adv-x="823" 
d="M746 383c24 62 -55 115 -115 96c-58 -39 -162 -181 -178 -312c198 118 277 167 293 216zM171 45c32 -9 74 -1 114 15c54 27 145 223 137 330c-4 47 -22 75 -53 86c-11 3 -39 16 -79 5c-66 -40 -190 -224 -177 -370c11 -39 31 -59 58 -66zM258 34
c-35 -19 -69 -40 -108 -40c-48 0 -96 35 -112 79c-11 40 -22 107 50 227c38 68 119 143 186 181c39 21 81 36 118 36h1c45 0 88 -36 103 -80c3 -11 6 -24 6 -43c35 35 74 64 110 84c39 21 84 36 124 36c45 0 84 -15 89 -47c11 -65 -90 -147 -373 -310c-1 -16 -1 -31 0 -46
c11 -39 31 -59 58 -66c32 -9 83 3 120 20c27 11 91 62 123 101l9 -5c-41 -49 -102 -95 -155 -124c-35 -19 -81 -43 -129 -43c-40 0 -85 35 -101 79c-3 11 -5 24 -8 40c-35 -32 -72 -59 -111 -79z" />
    <glyph glyph-name="Racute" unicode="&#x154;" horiz-adv-x="1001" 
d="M848 896c-1 -1 -3 -2 -4 -2c-3 0 -4 1 -4 4c0 1 1 3 3 5c57 54 119 151 132 164c5 5 15 6 26 6c9 0 17 0 20 -3s3 -10 3 -21c0 -7 -6 -12 -13 -19c-14 -14 -108 -76 -163 -134zM-63 -1c-6 14 20 51 41 64c27 8 152 -36 238 -36c29 0 50 8 69 21c73 50 101 190 173 365
c72 174 165 313 281 371c-27 7 -56 11 -86 11c-208 0 -307 -75 -379 -240c-17 -39 -30 -57 -66 -57c-39 0 -34 23 -9 62c86 123 311 275 493 270c249 3 329 -182 261 -309c-46 -92 -163 -114 -261 -127c11 -97 35 -193 83 -282c19 -37 41 -60 65 -71c33 9 85 48 137 96l5 -8
c-43 -40 -113 -102 -178 -137c-11 -7 -35 -3 -42 1c-24 19 -42 48 -63 89c-48 95 -75 207 -84 311c-1 15 4 17 21 17c16 0 60 -1 84 -1c68 0 123 22 162 97c51 106 -1 236 -139 276c-79 -45 -151 -240 -210 -379c-83 -196 -157 -315 -253 -366c-88 -47 -157 -60 -225 -60
c-71 0 -110 14 -118 22z" />
    <glyph glyph-name="racute" unicode="&#x155;" horiz-adv-x="480" 
d="M347 575c-1 -1 -3 -2 -4 -2c-3 0 -4 1 -4 4c0 1 1 3 3 5c57 54 119 151 132 164c5 5 15 6 26 6c9 0 17 0 20 -3s3 -10 3 -21c0 -7 -6 -12 -13 -19c-14 -14 -108 -76 -163 -134zM60 4c-20 0 -81 -15 -60 41c60 80 189 286 185 368c-1 17 -11 35 -32 42
c-28 -7 -78 -38 -117 -81l-7 7c38 35 101 90 162 125c47 26 70 -59 73 -92c3 -27 -10 -61 -27 -98c80 104 147 180 213 193c34 3 102 1 104 -6c-3 -20 -44 -71 -63 -74c-28 1 -63 13 -114 12c-88 -27 -159 -186 -317 -437z" />
    <glyph glyph-name="Rcommaaccent" unicode="&#x156;" horiz-adv-x="1001" 
d="M493 -111h-2c-9 -15 -35 -33 -51 -33c-11 0 -19 4 -25 13c-8 17 10 61 27 75c7 5 29 9 45 9c15 0 34 -4 41 -13c8 -9 6 -37 -5 -56c-32 -60 -106 -94 -149 -110c-3 -1 -5 2 -2 3c42 18 95 65 121 112zM-63 -1c-6 14 20 51 41 64c27 8 152 -36 238 -36c29 0 50 8 69 21
c73 50 101 190 173 365c72 174 165 313 281 371c-27 7 -56 11 -86 11c-208 0 -307 -75 -379 -240c-17 -39 -30 -57 -66 -57c-39 0 -34 23 -9 62c86 123 311 275 493 270c249 3 329 -182 261 -309c-46 -92 -163 -114 -261 -127c11 -97 35 -193 83 -282c19 -37 41 -60 65 -71
c33 9 85 48 137 96l5 -8c-43 -40 -113 -102 -178 -137c-11 -7 -35 -3 -42 1c-24 19 -42 48 -63 89c-48 95 -75 207 -84 311c-1 15 4 17 21 17c16 0 60 -1 84 -1c68 0 123 22 162 97c51 106 -1 236 -139 276c-79 -45 -151 -240 -210 -379c-83 -196 -157 -315 -253 -366
c-88 -47 -157 -60 -225 -60c-71 0 -110 14 -118 22z" />
    <glyph glyph-name="rcommaaccent" unicode="&#x157;" horiz-adv-x="480" 
d="M-7 -150h-2c-9 -15 -35 -33 -51 -33c-11 0 -19 4 -25 13c-8 17 10 61 27 75c7 5 29 9 45 9c15 0 34 -4 41 -13c8 -9 6 -37 -5 -56c-32 -60 -106 -94 -149 -110c-3 -1 -5 2 -2 3c42 18 95 65 121 112zM59 4c-20 0 -81 -15 -60 41c60 80 189 286 185 368
c-1 17 -11 35 -32 42c-28 -7 -78 -38 -117 -81l-7 7c38 35 101 90 162 125c47 26 70 -59 73 -92c3 -27 -10 -61 -27 -98c80 104 147 180 213 193c34 3 102 1 104 -6c-3 -20 -44 -71 -63 -74c-28 1 -63 13 -114 12c-88 -27 -159 -186 -317 -437z" />
    <glyph glyph-name="Rcaron" unicode="&#x158;" horiz-adv-x="1088" 
d="M909 892c1 -3 3 -3 6 0c35 43 103 99 134 122c12 8 24 18 39 17c15 -3 21 -11 20 -18c0 -4 0 -15 -23 -30c-40 -24 -119 -67 -169 -101c-5 -3 -9 -3 -12 1c-44 55 -57 75 -89 107c-19 17 -21 26 -20 33c0 12 11 22 22 21c15 -1 28 -10 37 -27c16 -31 31 -74 55 -125z
M-7 -1c-6 14 20 51 41 64c27 8 152 -36 238 -36c29 0 50 8 69 21c73 50 101 190 173 365c72 174 165 313 281 371c-27 7 -56 11 -86 11c-208 0 -307 -75 -379 -240c-17 -39 -30 -57 -66 -57c-39 0 -34 23 -9 62c86 123 311 275 493 270c249 3 329 -182 261 -309
c-46 -92 -163 -114 -261 -127c11 -97 35 -193 83 -282c19 -37 41 -60 65 -71c33 9 85 48 137 96l5 -8c-43 -40 -113 -102 -178 -137c-11 -7 -35 -3 -42 1c-24 19 -42 48 -63 89c-48 95 -75 207 -84 311c-1 15 4 17 21 17c16 0 60 -1 84 -1c68 0 123 22 162 97
c51 106 -1 236 -139 276c-79 -45 -151 -240 -210 -379c-83 -196 -157 -315 -253 -366c-88 -47 -157 -60 -225 -60c-71 0 -110 14 -118 22z" />
    <glyph glyph-name="rcaron" unicode="&#x159;" horiz-adv-x="480" 
d="M341 566c1 -3 3 -3 6 0c35 43 103 99 134 122c12 8 24 18 39 17c15 -3 21 -11 20 -18c0 -4 0 -15 -23 -30c-40 -24 -119 -67 -169 -101c-5 -3 -9 -3 -12 1c-44 55 -57 75 -89 107c-19 17 -21 26 -20 33c0 12 11 22 22 21c15 -1 28 -10 37 -27c16 -31 31 -74 55 -125z
M60 4c-20 0 -81 -15 -60 41c60 80 189 286 185 368c-1 17 -11 35 -32 42c-28 -7 -78 -38 -117 -81l-7 7c38 35 101 90 162 125c47 26 70 -59 73 -92c3 -27 -10 -61 -27 -98c80 104 147 180 213 193c34 3 102 1 104 -6c-3 -20 -44 -71 -63 -74c-28 1 -63 13 -114 12
c-88 -27 -159 -186 -317 -437z" />
    <glyph glyph-name="Sacute" unicode="&#x15a;" horiz-adv-x="761" 
d="M770 896c-1 -1 -3 -2 -4 -2c-3 0 -4 1 -4 4c0 1 1 3 3 5c57 54 119 151 132 164c5 5 15 6 26 6c9 0 17 0 20 -3s3 -10 3 -21c0 -7 -6 -12 -13 -19c-14 -14 -108 -76 -163 -134zM231 340l9 -4c-58 -60 -138 -136 -141 -180c13 -28 124 -116 251 -116c115 0 233 51 276 142
c111 249 -454 208 -369 431c40 97 272 215 403 215c98 0 208 -42 240 -98c-63 -87 -130 -153 -186 -233l-6 4c44 63 83 109 131 177c-41 59 -123 109 -246 109c-117 0 -243 -62 -275 -146c-69 -177 492 -162 368 -421c-40 -89 -236 -228 -398 -228c-135 0 -220 65 -276 121
c48 56 146 154 219 227z" />
    <glyph glyph-name="sacute" unicode="&#x15b;" horiz-adv-x="397" 
d="M340 590c-1 -1 -3 -2 -4 -2c-3 0 -4 1 -4 4c0 1 1 3 3 5c57 54 119 151 132 164c5 5 15 6 26 6c9 0 17 0 20 -3s3 -10 3 -21c0 -7 -6 -12 -13 -19c-14 -14 -108 -76 -163 -134zM386 401h-4c-41 81 -90 114 -149 99c-51 -29 -39 -84 22 -214c52 -113 53 -206 -26 -255
c-43 -27 -83 -39 -136 -39c-43 -1 -87 16 -107 49c-22 36 -2 102 56 118l4 -3c-3 -41 14 -80 43 -105c35 -31 74 -39 116 -22c61 28 24 102 -27 230c-56 135 -45 206 28 239c33 15 71 28 114 27c47 0 85 -9 100 -41c13 -29 -7 -64 -34 -83z" />
    <glyph glyph-name="Scircumflex" unicode="&#x15c;" horiz-adv-x="761" 
d="M834 1042c-1 3 -3 3 -6 0c-38 -43 -102 -98 -134 -122c-12 -8 -24 -18 -39 -17c-15 3 -21 11 -20 18c0 4 0 15 23 30c40 24 119 67 169 101c4 4 8 4 11 -1c43 -56 58 -75 90 -107c19 -17 21 -26 20 -33c0 -12 -11 -22 -22 -21c-15 1 -28 10 -37 27c-16 31 -31 74 -55 125
zM231 340l9 -4c-58 -60 -138 -136 -141 -180c13 -28 124 -116 251 -116c115 0 233 51 276 142c111 249 -454 208 -369 431c40 97 272 215 403 215c98 0 208 -42 240 -98c-63 -87 -130 -153 -186 -233l-6 4c44 63 83 109 131 177c-41 59 -123 109 -246 109
c-117 0 -243 -62 -275 -146c-69 -177 492 -162 368 -421c-40 -89 -236 -228 -398 -228c-135 0 -220 65 -276 121c48 56 146 154 219 227z" />
    <glyph glyph-name="scircumflex" unicode="&#x15d;" horiz-adv-x="397" 
d="M411 731c-1 3 -3 3 -6 0c-38 -43 -102 -98 -134 -122c-12 -8 -24 -18 -39 -17c-15 3 -21 11 -20 18c0 4 0 15 23 30c40 24 119 67 169 101c4 4 8 4 11 -1c43 -56 58 -75 90 -107c19 -17 21 -26 20 -33c0 -12 -11 -22 -22 -21c-15 1 -28 10 -37 27c-16 31 -31 74 -55 125z
M386 401h-4c-41 81 -90 114 -149 99c-51 -29 -39 -84 22 -214c52 -113 53 -206 -26 -255c-43 -27 -83 -39 -136 -39c-43 -1 -87 16 -107 49c-22 36 -2 102 56 118l4 -3c-3 -41 14 -80 43 -105c35 -31 74 -39 116 -22c61 28 24 102 -27 230c-56 135 -45 206 28 239
c33 15 71 28 114 27c47 0 85 -9 100 -41c13 -29 -7 -64 -34 -83z" />
    <glyph glyph-name="Scedilla" unicode="&#x15e;" horiz-adv-x="761" 
d="M231 340l9 -4c-58 -60 -138 -136 -141 -180c13 -28 124 -116 251 -116c115 0 233 51 276 142c111 249 -454 208 -369 431c40 97 272 215 403 215c98 0 208 -42 240 -98c-63 -87 -130 -153 -186 -233l-6 4c44 63 83 109 131 177c-41 59 -123 109 -246 109
c-117 0 -243 -62 -275 -146c-69 -177 492 -162 368 -421c-40 -89 -236 -228 -398 -228c-33 0 -64 4 -93 11l-34 -51c-5 -4 1 -3 5 -3c108 0 153 -43 153 -79c0 -60 -57 -153 -134 -153c-49 0 -92 17 -92 41c0 25 17 47 41 47c39 0 59 -50 107 -50c31 0 51 30 51 61
c0 41 -41 77 -177 77c-7 0 -9 4 -5 11l76 101c-79 23 -134 68 -174 108c48 56 146 154 219 227z" />
    <glyph glyph-name="scedilla" unicode="&#x15f;" horiz-adv-x="397" 
d="M-42 -276c0 25 17 47 41 47c39 0 59 -50 107 -50c31 0 51 30 51 61c0 41 -41 77 -177 77c-7 0 -9 4 -5 11c24 32 66 87 92 124c-35 5 -66 20 -82 47c-22 36 -2 102 56 118l4 -3c-3 -41 14 -80 43 -105c35 -31 74 -39 116 -22c61 28 24 102 -27 230
c-56 135 -45 206 28 239c33 15 71 28 114 27c47 0 85 -9 100 -41c13 -29 -7 -64 -34 -83h-4c-41 81 -90 114 -149 99c-51 -29 -39 -84 22 -214c52 -113 53 -206 -26 -255c-43 -27 -83 -39 -136 -39c-5 0 -11 0 -16 1l-50 -75c-5 -4 1 -3 5 -3c108 0 153 -43 153 -79
c0 -60 -57 -153 -134 -153c-49 0 -92 17 -92 41z" />
    <glyph glyph-name="Scaron" unicode="&#x160;" horiz-adv-x="761" 
d="M825 902c1 -3 3 -3 6 0c35 43 103 99 134 122c12 8 24 18 39 17c15 -3 21 -11 20 -18c0 -4 0 -15 -23 -30c-40 -24 -119 -67 -169 -101c-5 -3 -9 -3 -12 1c-44 55 -57 75 -89 107c-19 17 -21 26 -20 33c0 12 11 22 22 21c15 -1 28 -10 37 -27c16 -31 31 -74 55 -125z
M231 340l9 -4c-58 -60 -138 -136 -141 -180c13 -28 124 -116 251 -116c115 0 233 51 276 142c111 249 -454 208 -369 431c40 97 272 215 403 215c98 0 208 -42 240 -98c-63 -87 -130 -153 -186 -233l-6 4c44 63 83 109 131 177c-41 59 -123 109 -246 109
c-117 0 -243 -62 -275 -146c-69 -177 492 -162 368 -421c-40 -89 -236 -228 -398 -228c-135 0 -220 65 -276 121c48 56 146 154 219 227z" />
    <glyph glyph-name="scaron" unicode="&#x161;" horiz-adv-x="397" 
d="M371 592c1 -3 3 -3 6 0c35 43 103 99 134 122c12 8 24 18 39 17c15 -3 21 -11 20 -18c0 -4 0 -15 -23 -30c-40 -24 -119 -67 -169 -101c-5 -3 -9 -3 -12 1c-44 55 -57 75 -89 107c-19 17 -21 26 -20 33c0 12 11 22 22 21c15 -1 28 -10 37 -27c16 -31 31 -74 55 -125z
M386 401h-4c-41 81 -90 114 -149 99c-51 -29 -39 -84 22 -214c52 -113 53 -206 -26 -255c-43 -27 -83 -39 -136 -39c-43 -1 -87 16 -107 49c-22 36 -2 102 56 118l4 -3c-3 -41 14 -80 43 -105c35 -31 74 -39 116 -22c61 28 24 102 -27 230c-56 135 -45 206 28 239
c33 15 71 28 114 27c47 0 85 -9 100 -41c13 -29 -7 -64 -34 -83z" />
    <glyph glyph-name="Tcommaaccent" unicode="&#x162;" horiz-adv-x="758" 
d="M263 -150h-2c-9 -15 -35 -33 -51 -33c-11 0 -19 4 -25 13c-8 17 10 61 27 75c7 5 29 9 45 9c15 0 34 -4 41 -13c8 -9 6 -37 -5 -56c-32 -60 -106 -94 -149 -110c-3 -1 -5 2 -2 3c42 18 95 65 121 112zM97 528c-39 0 -40 22 -19 61c104 188 281 246 425 246
c167 0 359 -35 560 -35c60 0 89 15 96 12c9 -2 -34 -53 -52 -61c-25 -14 -49 -22 -106 -22c-53 0 -157 17 -266 33c-77 -56 -104 -166 -179 -353c-83 -195 -231 -412 -468 -412c-59 0 -163 16 -171 29c-13 18 23 64 44 69c51 8 239 -105 351 -13c70 56 90 159 162 336
c80 189 164 298 253 346c-128 21 -265 43 -334 43c-106 0 -171 -70 -232 -222c-19 -48 -28 -57 -64 -57z" />
    <glyph glyph-name="tcommaaccent" unicode="&#x163;" horiz-adv-x="376" 
d="M26 -150h-2c-9 -15 -35 -33 -51 -33c-11 0 -19 4 -25 13c-8 17 10 61 27 75c7 5 29 9 45 9c15 0 34 -4 41 -13c8 -9 6 -37 -5 -56c-32 -60 -106 -94 -149 -110c-3 -1 -5 2 -2 3c42 18 95 65 121 112zM292 158l7 -5c-46 -40 -143 -119 -199 -151c-11 -7 -39 -3 -44 1
c-24 19 -34 63 -34 83c-3 41 23 98 58 158c44 76 87 145 127 209h-11c-27 0 -53 -1 -58 0c-4 1 -7 5 1 9c72 39 160 93 232 149c7 5 12 3 8 -4c-17 -28 -38 -59 -65 -102c85 0 137 7 145 4c11 -3 -38 -59 -57 -59c-5 0 -48 1 -121 2c-51 -80 -94 -149 -134 -225
c-36 -65 -49 -97 -46 -134c1 -19 9 -40 29 -47c27 8 117 73 162 112z" />
    <glyph glyph-name="Tcaron" unicode="&#x164;" horiz-adv-x="758" 
d="M779 902c1 -3 3 -3 6 0c35 43 103 99 134 122c12 8 24 18 39 17c15 -3 21 -11 20 -18c0 -4 0 -15 -23 -30c-40 -24 -119 -67 -169 -101c-5 -3 -9 -3 -12 1c-44 55 -57 75 -89 107c-19 17 -21 26 -20 33c0 12 11 22 22 21c15 -1 28 -10 37 -27c16 -31 31 -74 55 -125z
M97 528c-39 0 -40 22 -19 61c104 188 281 246 425 246c167 0 359 -35 560 -35c60 0 89 15 96 12c9 -2 -34 -53 -52 -61c-25 -14 -49 -22 -106 -22c-53 0 -157 17 -266 33c-77 -56 -104 -166 -179 -353c-83 -195 -231 -412 -468 -412c-59 0 -163 16 -171 29
c-13 18 23 64 44 69c51 8 239 -105 351 -13c70 56 90 159 162 336c80 189 164 298 253 346c-128 21 -265 43 -334 43c-106 0 -171 -70 -232 -222c-19 -48 -28 -57 -64 -57z" />
    <glyph glyph-name="tcaron" unicode="&#x165;" horiz-adv-x="376" 
d="M533 711h-2c-9 -15 -35 -33 -51 -33c-11 0 -19 4 -25 13c-8 17 10 61 27 75c7 5 29 9 45 9c15 0 34 -4 41 -13c8 -9 6 -37 -5 -56c-32 -60 -106 -94 -149 -110c-3 -1 -5 2 -2 3c42 18 95 65 121 112zM292 158l7 -5c-46 -40 -143 -119 -199 -151c-11 -7 -39 -3 -44 1
c-24 19 -34 63 -34 83c-3 41 23 98 58 158c44 76 87 145 127 209h-11c-27 0 -53 -1 -58 0c-4 1 -7 5 1 9c72 39 160 93 232 149c7 5 12 3 8 -4c-17 -28 -38 -59 -65 -102c85 0 137 7 145 4c11 -3 -38 -59 -57 -59c-5 0 -48 1 -121 2c-51 -80 -94 -149 -134 -225
c-36 -65 -49 -97 -46 -134c1 -19 9 -40 29 -47c27 8 117 73 162 112z" />
    <glyph glyph-name="Tbar" unicode="&#x166;" horiz-adv-x="758" 
d="M97 528c-39 0 -40 22 -19 61c104 188 281 246 425 246c167 0 359 -35 560 -35c60 0 89 15 96 12c9 -2 -34 -53 -52 -61c-25 -14 -49 -22 -106 -22c-53 0 -157 17 -266 33c-73 -54 -102 -151 -166 -320c68 0 125 3 168 6c7 -5 1 -20 -6 -24c-47 3 -101 6 -166 7l-9 -22
c-83 -195 -231 -412 -468 -412c-59 0 -163 16 -171 29c-13 18 23 64 44 69c51 8 239 -105 351 -13c70 56 90 159 162 336l5 12c-57 -1 -106 -3 -148 -6c-7 4 -1 19 6 24c39 -3 88 -5 147 -6c77 175 158 275 243 322c-128 21 -265 43 -334 43c-106 0 -171 -70 -232 -222
c-19 -48 -28 -57 -64 -57z" />
    <glyph glyph-name="tbar" unicode="&#x167;" horiz-adv-x="376" 
d="M292 158l7 -5c-46 -40 -143 -119 -199 -151c-11 -7 -39 -3 -44 1c-24 19 -34 63 -34 83c-3 41 23 98 58 158c16 27 31 53 47 80h-14c-37 -1 -39 0 -39 3c0 7 19 25 51 56c7 0 18 -1 37 -1l45 71h-11c-27 0 -53 -1 -58 0c-4 1 -7 5 1 9c72 39 160 93 232 149
c7 5 12 3 8 -4c-17 -28 -38 -59 -65 -102c85 0 137 7 145 4c11 -3 -38 -59 -57 -59c-5 0 -48 1 -121 2l-44 -70c19 0 36 0 57 1c37 1 39 2 39 -1c0 -7 -19 -26 -51 -57c-9 0 -43 2 -78 2c-20 -33 -38 -67 -57 -100c-36 -65 -49 -97 -46 -134c1 -19 9 -40 29 -47
c27 8 117 73 162 112z" />
    <glyph glyph-name="Utilde" unicode="&#x168;" horiz-adv-x="928" 
d="M533 907c59 75 79 102 106 102c47 0 125 -64 165 -64c20 0 23 2 65 60c7 8 15 4 8 -5c-48 -71 -80 -110 -115 -110c-45 0 -121 69 -163 69c-14 0 -15 -6 -58 -57c-9 -11 -13 -6 -8 5zM836 424c-125 -205 -189 -299 -186 -362c3 -20 23 -53 38 -55c32 8 160 112 200 147
l5 -7c-39 -34 -170 -150 -234 -185c-8 -5 -39 -2 -43 2c-21 17 -44 45 -48 84c-3 45 16 92 53 157c-93 -104 -271 -253 -368 -253c-100 0 -179 97 -184 209s77 219 176 353c91 120 157 202 154 254c-3 20 -12 36 -27 55c-32 -8 -173 -110 -213 -144l-6 8
c39 33 182 144 245 178c11 6 38 0 44 -3c20 -17 28 -46 35 -85c8 -61 -76 -161 -175 -298c-93 -125 -161 -229 -156 -312c5 -76 52 -178 159 -178c79 0 260 164 333 245c35 57 79 125 135 217c147 237 166 252 163 315c-3 20 -12 36 -28 55c-32 -8 -173 -108 -212 -142l-6 8
c39 33 182 143 244 178c11 6 38 0 44 -3c21 -17 28 -46 36 -85c3 -62 -28 -109 -178 -353z" />
    <glyph glyph-name="utilde" unicode="&#x169;" horiz-adv-x="607" 
d="M256 590c59 75 79 102 106 102c47 0 125 -64 165 -64c20 0 23 2 65 60c7 8 15 4 8 -5c-48 -71 -80 -110 -115 -110c-45 0 -121 69 -163 69c-14 0 -15 -6 -58 -57c-9 -11 -13 -6 -8 5zM266 414c0 -27 -43 -103 -77 -164c-41 -75 -75 -125 -87 -160c-3 -24 21 -37 40 -42
c50 0 196 142 313 308c35 51 65 114 83 142c32 8 92 25 70 -32c-55 -75 -196 -303 -200 -376c-1 -17 20 -33 40 -40c32 11 84 48 121 85l6 -7c-37 -36 -91 -86 -155 -125c-11 -5 -51 -4 -56 1c-25 19 -35 58 -38 79c-5 40 60 146 102 218c-115 -147 -263 -290 -331 -304
c-19 2 -69 21 -80 66c-5 32 53 108 103 200c35 64 67 118 64 155c-1 16 -12 30 -33 37c-28 -7 -78 -38 -117 -81l-7 7c38 35 101 90 162 125c48 27 74 -59 77 -92z" />
    <glyph glyph-name="Umacron" unicode="&#x16a;" horiz-adv-x="928" 
d="M683 956h1c33 0 63 0 99 1c37 1 39 2 39 -1c0 -7 -19 -26 -51 -57c-9 0 -47 2 -86 2c-34 0 -48 -3 -83 -3c-37 -1 -39 0 -39 3c0 7 19 25 51 56c9 0 32 -1 69 -1zM836 424c-125 -205 -189 -299 -186 -362c3 -20 23 -53 38 -55c32 8 160 112 200 147l5 -7
c-39 -34 -170 -150 -234 -185c-8 -5 -39 -2 -43 2c-21 17 -44 45 -48 84c-3 45 16 92 53 157c-93 -104 -271 -253 -368 -253c-100 0 -179 97 -184 209s77 219 176 353c91 120 157 202 154 254c-3 20 -12 36 -27 55c-32 -8 -173 -110 -213 -144l-6 8c39 33 182 144 245 178
c11 6 38 0 44 -3c20 -17 28 -46 35 -85c8 -61 -76 -161 -175 -298c-93 -125 -161 -229 -156 -312c5 -76 52 -178 159 -178c79 0 260 164 333 245c35 57 79 125 135 217c147 237 166 252 163 315c-3 20 -12 36 -28 55c-32 -8 -173 -108 -212 -142l-6 8c39 33 182 143 244 178
c11 6 38 0 44 -3c21 -17 28 -46 36 -85c3 -62 -28 -109 -178 -353z" />
    <glyph glyph-name="umacron" unicode="&#x16b;" horiz-adv-x="607" 
d="M416 650h1c33 0 63 0 99 1c37 1 39 2 39 -1c0 -7 -19 -26 -51 -57c-9 0 -47 2 -86 2c-34 0 -48 -3 -83 -3c-37 -1 -39 0 -39 3c0 7 19 25 51 56c9 0 32 -1 69 -1zM266 414c0 -27 -43 -103 -77 -164c-41 -75 -75 -125 -87 -160c-3 -24 21 -37 40 -42c50 0 196 142 313 308
c35 51 65 114 83 142c32 8 92 25 70 -32c-55 -75 -196 -303 -200 -376c-1 -17 20 -33 40 -40c32 11 84 48 121 85l6 -7c-37 -36 -91 -86 -155 -125c-11 -5 -51 -4 -56 1c-25 19 -35 58 -38 79c-5 40 60 146 102 218c-115 -147 -263 -290 -331 -304c-19 2 -69 21 -80 66
c-5 32 53 108 103 200c35 64 67 118 64 155c-1 16 -12 30 -33 37c-28 -7 -78 -38 -117 -81l-7 7c38 35 101 90 162 125c48 27 74 -59 77 -92z" />
    <glyph glyph-name="Ubreve" unicode="&#x16c;" horiz-adv-x="928" 
d="M681 889c-55 0 -96 32 -131 79c-4 7 -7 9 -7 13c0 5 9 11 26 16c23 7 27 7 35 -4c39 -51 69 -81 112 -81c31 0 58 27 83 82c2 5 6 8 12 8c7 0 13 -5 8 -12c-30 -52 -84 -98 -138 -101zM836 424c-125 -205 -189 -299 -186 -362c3 -20 23 -53 38 -55c32 8 160 112 200 147
l5 -7c-39 -34 -170 -150 -234 -185c-8 -5 -39 -2 -43 2c-21 17 -44 45 -48 84c-3 45 16 92 53 157c-93 -104 -271 -253 -368 -253c-100 0 -179 97 -184 209s77 219 176 353c91 120 157 202 154 254c-3 20 -12 36 -27 55c-32 -8 -173 -110 -213 -144l-6 8
c39 33 182 144 245 178c11 6 38 0 44 -3c20 -17 28 -46 35 -85c8 -61 -76 -161 -175 -298c-93 -125 -161 -229 -156 -312c5 -76 52 -178 159 -178c79 0 260 164 333 245c35 57 79 125 135 217c147 237 166 252 163 315c-3 20 -12 36 -28 55c-32 -8 -173 -108 -212 -142l-6 8
c39 33 182 143 244 178c11 6 38 0 44 -3c21 -17 28 -46 36 -85c3 -62 -28 -109 -178 -353z" />
    <glyph glyph-name="ubreve" unicode="&#x16d;" horiz-adv-x="607" 
d="M421 583c-55 0 -96 32 -131 79c-4 7 -7 9 -7 13c0 5 9 11 26 16c23 7 27 7 35 -4c39 -51 69 -81 112 -81c31 0 58 27 83 82c2 5 6 8 12 8c7 0 13 -5 8 -12c-30 -52 -84 -98 -138 -101zM266 414c0 -27 -43 -103 -77 -164c-41 -75 -75 -125 -87 -160c-3 -24 21 -37 40 -42
c50 0 196 142 313 308c35 51 65 114 83 142c32 8 92 25 70 -32c-55 -75 -196 -303 -200 -376c-1 -17 20 -33 40 -40c32 11 84 48 121 85l6 -7c-37 -36 -91 -86 -155 -125c-11 -5 -51 -4 -56 1c-25 19 -35 58 -38 79c-5 40 60 146 102 218c-115 -147 -263 -290 -331 -304
c-19 2 -69 21 -80 66c-5 32 53 108 103 200c35 64 67 118 64 155c-1 16 -12 30 -33 37c-28 -7 -78 -38 -117 -81l-7 7c38 35 101 90 162 125c48 27 74 -59 77 -92z" />
    <glyph glyph-name="Uring" unicode="&#x16e;" horiz-adv-x="928" 
d="M630 960c0 -37 31 -68 68 -68s68 31 68 68s-31 68 -68 68s-68 -31 -68 -68zM617 960c0 45 36 81 81 81s81 -36 81 -81s-36 -81 -81 -81s-81 36 -81 81zM836 424c-125 -205 -189 -299 -186 -362c3 -20 23 -53 38 -55c32 8 160 112 200 147l5 -7
c-39 -34 -170 -150 -234 -185c-8 -5 -39 -2 -43 2c-21 17 -44 45 -48 84c-3 45 16 92 53 157c-93 -104 -271 -253 -368 -253c-100 0 -179 97 -184 209s77 219 176 353c91 120 157 202 154 254c-3 20 -12 36 -27 55c-32 -8 -173 -110 -213 -144l-6 8c39 33 182 144 245 178
c11 6 38 0 44 -3c20 -17 28 -46 35 -85c8 -61 -76 -161 -175 -298c-93 -125 -161 -229 -156 -312c5 -76 52 -178 159 -178c79 0 260 164 333 245c35 57 79 125 135 217c147 237 166 252 163 315c-3 20 -12 36 -28 55c-32 -8 -173 -108 -212 -142l-6 8c39 33 182 143 244 178
c11 6 38 0 44 -3c21 -17 28 -46 36 -85c3 -62 -28 -109 -178 -353z" />
    <glyph glyph-name="uring" unicode="&#x16f;" horiz-adv-x="607" 
d="M357 644c0 -37 31 -68 68 -68s68 31 68 68s-31 68 -68 68s-68 -31 -68 -68zM344 644c0 45 36 81 81 81s81 -36 81 -81s-36 -81 -81 -81s-81 36 -81 81zM266 414c0 -27 -43 -103 -77 -164c-41 -75 -75 -125 -87 -160c-3 -24 21 -37 40 -42c50 0 196 142 313 308
c35 51 65 114 83 142c32 8 92 25 70 -32c-55 -75 -196 -303 -200 -376c-1 -17 20 -33 40 -40c32 11 84 48 121 85l6 -7c-37 -36 -91 -86 -155 -125c-11 -5 -51 -4 -56 1c-25 19 -35 58 -38 79c-5 40 60 146 102 218c-115 -147 -263 -290 -331 -304c-19 2 -69 21 -80 66
c-5 32 53 108 103 200c35 64 67 118 64 155c-1 16 -12 30 -33 37c-28 -7 -78 -38 -117 -81l-7 7c38 35 101 90 162 125c48 27 74 -59 77 -92z" />
    <glyph glyph-name="Uhungarumlaut" unicode="&#x170;" horiz-adv-x="928" 
d="M599 886c0 -1 -1 -2 -4 -2s-5 1 -6 4c0 2 1 4 2 5c44 52 82 148 92 158c4 7 15 7 23 7c10 0 17 -1 21 -3c3 -3 4 -9 4 -20c0 -7 -5 -12 -10 -19c-11 -13 -82 -75 -122 -130zM722 886c-1 -1 -3 -2 -5 -2s-4 1 -5 4c0 1 1 3 3 5c54 51 108 147 119 158c4 7 14 7 25 7
c8 0 17 0 20 -3c2 -3 3 -9 3 -20c0 -6 -4 -12 -12 -19c-13 -13 -98 -74 -148 -130zM836 424c-125 -205 -189 -299 -186 -362c3 -20 23 -53 38 -55c32 8 160 112 200 147l5 -7c-39 -34 -170 -150 -234 -185c-8 -5 -39 -2 -43 2c-21 17 -44 45 -48 84c-3 45 16 92 53 157
c-93 -104 -271 -253 -368 -253c-100 0 -179 97 -184 209s77 219 176 353c91 120 157 202 154 254c-3 20 -12 36 -27 55c-32 -8 -173 -110 -213 -144l-6 8c39 33 182 144 245 178c11 6 38 0 44 -3c20 -17 28 -46 35 -85c8 -61 -76 -161 -175 -298
c-93 -125 -161 -229 -156 -312c5 -76 52 -178 159 -178c79 0 260 164 333 245c35 57 79 125 135 217c147 237 166 252 163 315c-3 20 -12 36 -28 55c-32 -8 -173 -108 -212 -142l-6 8c39 33 182 143 244 178c11 6 38 0 44 -3c21 -17 28 -46 36 -85c3 -62 -28 -109 -178 -353
z" />
    <glyph glyph-name="uhungarumlaut" unicode="&#x171;" horiz-adv-x="607" 
d="M335 565c0 -1 -1 -2 -4 -2s-5 1 -6 4c0 2 1 4 2 5c44 52 82 148 92 158c4 7 15 7 23 7c10 0 17 -1 21 -3c3 -3 4 -9 4 -20c0 -7 -5 -12 -10 -19c-11 -13 -82 -75 -122 -130zM458 565c-1 -1 -3 -2 -5 -2s-4 1 -5 4c0 1 1 3 3 5c54 51 108 147 119 158c4 7 14 7 25 7
c8 0 17 0 20 -3c2 -3 3 -9 3 -20c0 -6 -4 -12 -12 -19c-13 -13 -98 -74 -148 -130zM266 414c0 -27 -43 -103 -77 -164c-41 -75 -75 -125 -87 -160c-3 -24 21 -37 40 -42c50 0 196 142 313 308c35 51 65 114 83 142c32 8 92 25 70 -32c-55 -75 -196 -303 -200 -376
c-1 -17 20 -33 40 -40c32 11 84 48 121 85l6 -7c-37 -36 -91 -86 -155 -125c-11 -5 -51 -4 -56 1c-25 19 -35 58 -38 79c-5 40 60 146 102 218c-115 -147 -263 -290 -331 -304c-19 2 -69 21 -80 66c-5 32 53 108 103 200c35 64 67 118 64 155c-1 16 -12 30 -33 37
c-28 -7 -78 -38 -117 -81l-7 7c38 35 101 90 162 125c48 27 74 -59 77 -92z" />
    <glyph glyph-name="Uogonek" unicode="&#x172;" horiz-adv-x="928" 
d="M836 424c-125 -205 -189 -299 -186 -362c3 -20 23 -53 38 -55c32 8 160 112 200 147l5 -7c-16 -15 -47 -41 -83 -72c-83 -97 -98 -126 -101 -151c-4 -27 14 -48 57 -48c35 0 65 14 82 23c5 3 -29 -71 -40 -79c-15 -7 -44 -15 -75 -15c-47 0 -76 30 -69 81
c4 36 39 80 106 156c-41 -35 -83 -65 -111 -80c-8 -5 -39 -2 -43 2c-21 17 -44 45 -48 84c-3 45 16 92 53 157c-93 -104 -271 -253 -368 -253c-100 0 -179 97 -184 209s77 219 176 353c91 120 157 202 154 254c-3 20 -12 36 -27 55c-32 -8 -173 -110 -213 -144l-6 8
c39 33 182 144 245 178c11 6 38 0 44 -3c20 -17 28 -46 35 -85c8 -61 -76 -161 -175 -298c-93 -125 -161 -229 -156 -312c5 -76 52 -178 159 -178c79 0 260 164 333 245c35 57 79 125 135 217c147 237 166 252 163 315c-3 20 -12 36 -28 55c-32 -8 -173 -108 -212 -142l-6 8
c39 33 182 143 244 178c11 6 38 0 44 -3c21 -17 28 -46 36 -85c3 -62 -28 -109 -178 -353z" />
    <glyph glyph-name="uogonek" unicode="&#x173;" horiz-adv-x="607" 
d="M474 -124c35 0 65 14 82 23c5 3 -29 -71 -40 -79c-15 -7 -44 -15 -75 -15c-47 0 -76 30 -69 81c4 36 40 81 108 158c-19 -15 -39 -28 -60 -41c-11 -5 -51 -4 -56 1c-25 19 -35 58 -38 79c-5 40 60 146 102 218c-115 -147 -263 -290 -331 -304c-19 2 -69 21 -80 66
c-5 32 53 108 103 200c35 64 67 118 64 155c-1 16 -12 30 -33 37c-28 -7 -78 -38 -117 -81l-7 7c38 35 101 90 162 125c48 27 74 -59 77 -92c0 -27 -43 -103 -77 -164c-41 -75 -75 -125 -87 -160c-3 -24 21 -37 40 -42c50 0 196 142 313 308c35 51 65 114 83 142
c32 8 92 25 70 -32c-55 -75 -196 -303 -200 -376c-1 -17 20 -33 40 -40c32 11 84 48 121 85l6 -7c-16 -16 -35 -33 -56 -52c-84 -97 -99 -127 -102 -152c-4 -27 14 -48 57 -48z" />
    <glyph glyph-name="Wcircumflex" unicode="&#x174;" horiz-adv-x="1025" 
d="M829 1047c-1 3 -3 3 -6 0c-38 -43 -102 -98 -134 -122c-12 -8 -24 -18 -39 -17c-15 3 -21 11 -20 18c0 4 0 15 23 30c40 24 119 67 169 101c4 4 8 4 11 -1c43 -56 58 -75 90 -107c19 -17 21 -26 20 -33c0 -12 -11 -22 -22 -21c-15 1 -28 10 -37 27c-16 31 -31 74 -55 125
zM190 5c307 446 441 639 542 780c-116 7 -262 14 -437 15c10 -8 16 -18 19 -29c4 -19 7 -67 -5 -135c-16 -104 -83 -451 -119 -631zM975 775c-21 -5 -101 1 -226 9c-32 -215 -78 -635 -94 -798c344 477 467 650 595 843c64 95 112 172 139 217c18 34 58 -1 35 -27
c-39 -43 -95 -112 -158 -199c-221 -312 -433 -605 -655 -923c-7 -10 -49 -9 -46 8c20 117 78 573 94 756c-177 -252 -353 -506 -524 -762c-7 -10 -41 4 -38 18c32 158 124 603 140 714c12 75 15 130 4 150c-9 19 -20 23 -44 23c-84 3 -215 -40 -255 -35c-17 2 19 50 35 58
c13 8 111 4 182 4h465c193 0 315 10 362 10c7 0 23 0 32 -4c0 -14 -18 -46 -43 -62z" />
    <glyph glyph-name="wcircumflex" unicode="&#x175;" horiz-adv-x="860" 
d="M578 731c-1 3 -3 3 -6 0c-38 -43 -102 -98 -134 -122c-12 -8 -24 -18 -39 -17c-15 3 -21 11 -20 18c0 4 0 15 23 30c40 24 119 67 169 101c4 4 8 4 11 -1c43 -56 58 -75 90 -107c19 -17 21 -26 20 -33c0 -12 -11 -22 -22 -21c-15 1 -28 10 -37 27c-16 31 -31 74 -55 125z
M431 35c5 67 21 169 26 232c-13 -16 -25 -30 -41 -45c-50 -50 -191 -200 -226 -216c-8 -4 -17 -5 -38 -5c-29 0 -36 6 -31 34c11 110 36 286 33 314c0 75 -25 107 -46 114c-19 -5 -67 -36 -99 -65l-5 5c35 35 95 80 143 106c49 27 82 -27 83 -135c0 -72 -27 -236 -40 -344
c81 48 186 166 220 205c46 51 53 74 50 145c-1 51 -22 77 -43 84c-20 -5 -67 -36 -98 -65l-7 4c35 35 96 79 144 106c50 28 81 -35 84 -135c0 -37 -27 -234 -40 -346c80 45 178 154 210 202c51 71 76 119 72 175c-7 31 -25 58 -48 65c-31 -9 -55 -28 -102 -67l-5 6
c40 40 101 86 143 102c36 13 70 -7 87 -63c19 -72 -73 -173 -143 -241c-48 -48 -182 -189 -213 -201c-7 -3 -13 -5 -37 -5c-32 0 -38 6 -33 34z" />
    <glyph glyph-name="Ycircumflex" unicode="&#x176;" horiz-adv-x="599" 
d="M711 1007c-1 3 -3 3 -6 0c-38 -43 -102 -98 -134 -122c-12 -8 -24 -18 -39 -17c-15 3 -21 11 -20 18c0 4 0 15 23 30c40 24 119 67 169 101c4 4 8 4 11 -1c43 -56 58 -75 90 -107c19 -17 21 -26 20 -33c0 -12 -11 -22 -22 -21c-15 1 -28 10 -37 27c-16 31 -31 74 -55 125
zM257 3c-123 0 -254 -3 -307 -3c-19 0 33 55 54 55c255 0 273 110 421 374c-21 127 -52 242 -95 302c-15 20 -44 31 -63 38c-35 -11 -145 -81 -188 -116l-5 7c43 35 170 128 241 165c11 5 26 3 33 -1c17 -11 43 -38 51 -53c61 -109 89 -247 97 -330c121 101 239 195 320 267
c99 88 175 152 218 193c32 32 61 -9 28 -34c-56 -37 -154 -107 -236 -170c-101 -80 -230 -182 -337 -287c-119 -222 -140 -273 -354 -360c107 0 289 23 339 23c21 0 -22 -60 -49 -68c-16 -8 -40 -2 -168 -2z" />
    <glyph glyph-name="ycircumflex" unicode="&#x177;" horiz-adv-x="575" 
d="M442 736c-1 3 -3 3 -6 0c-38 -43 -102 -98 -134 -122c-12 -8 -24 -18 -39 -17c-15 3 -21 11 -20 18c0 4 0 15 23 30c40 24 119 67 169 101c4 4 8 4 11 -1c43 -56 58 -75 90 -107c19 -17 21 -26 20 -33c0 -12 -11 -22 -22 -21c-15 1 -28 10 -37 27c-16 31 -31 74 -55 125z
M263 365c0 -83 -14 -245 -44 -321l105 109c113 117 184 196 188 244c-1 35 -22 54 -41 61c-24 -7 -56 -29 -97 -65l-6 6c29 29 122 101 164 114c19 3 56 -31 45 -69c-34 -74 -136 -182 -246 -297c-81 -83 -159 -169 -270 -269c-89 -81 -219 -164 -368 -164
c-17 0 -32 5 -39 17c-8 13 18 46 38 61h111c117 0 182 29 252 91c35 31 48 43 65 62c53 98 66 315 66 408c0 39 -3 77 -20 98c-7 7 -16 11 -29 10c-13 -5 -63 -37 -95 -66l-6 6c36 33 95 79 143 105c7 4 15 6 22 6c11 0 23 -5 31 -14c21 -23 31 -67 31 -133z" />
    <glyph glyph-name="Ydieresis" unicode="&#x178;" horiz-adv-x="599" 
d="M723 923c0 31 23 55 54 55s55 -24 55 -55s-24 -54 -55 -54s-54 23 -54 54zM505 923c0 31 23 55 54 55s55 -24 55 -55s-24 -54 -55 -54s-54 23 -54 54zM257 3c-123 0 -254 -3 -307 -3c-19 0 33 55 54 55c255 0 273 110 421 374c-21 127 -52 242 -95 302
c-15 20 -44 31 -63 38c-35 -11 -145 -81 -188 -116l-5 7c43 35 170 128 241 165c11 5 26 3 33 -1c17 -11 43 -38 51 -53c61 -109 89 -247 97 -330c121 101 239 195 320 267c99 88 175 152 218 193c32 32 61 -9 28 -34c-56 -37 -154 -107 -236 -170
c-101 -80 -230 -182 -337 -287c-119 -222 -140 -273 -354 -360c107 0 289 23 339 23c21 0 -22 -60 -49 -68c-16 -8 -40 -2 -168 -2z" />
    <glyph glyph-name="Zacute" unicode="&#x179;" horiz-adv-x="892" 
d="M729 896c-1 -1 -3 -2 -4 -2c-3 0 -4 1 -4 4c0 1 1 3 3 5c57 54 119 151 132 164c5 5 15 6 26 6c9 0 17 0 20 -3s3 -10 3 -21c0 -7 -6 -12 -13 -19c-14 -14 -108 -76 -163 -134zM553 53c120 3 131 7 211 223c16 43 38 59 66 59c31 0 37 -23 16 -62
c-85 -155 -240 -276 -382 -276c-176 0 -345 45 -500 32c-19 0 27 53 48 53c292 0 482 552 894 652c-7 -1 -14 -2 -29 -2c-110 0 -288 65 -394 65c-102 0 -121 -7 -190 -183c-17 -43 -33 -56 -64 -56c-33 0 -39 26 -19 62c85 152 227 211 377 211c119 0 227 -43 333 -43
c60 0 89 15 96 12c7 -1 -8 -20 -23 -36c-16 -16 -39 -30 -54 -31c-241 -24 -439 -527 -849 -652c139 27 319 -33 463 -28z" />
    <glyph glyph-name="zacute" unicode="&#x17a;" horiz-adv-x="524" 
d="M412 566c-1 -1 -3 -2 -4 -2c-3 0 -4 1 -4 4c0 1 1 3 3 5c57 54 119 151 132 164c5 5 15 6 26 6c9 0 17 0 20 -3s3 -10 3 -21c0 -7 -6 -12 -13 -19c-14 -14 -108 -76 -163 -134zM480 428c1 3 0 5 -3 5c-49 -25 -96 -41 -124 -41c-64 0 -120 75 -163 72
c-24 -8 -65 -55 -99 -87l-8 5c33 36 98 104 145 135c11 8 50 4 60 2c25 -11 77 -75 156 -75c51 0 76 7 124 58c13 13 33 -16 17 -21c-65 -36 -380 -272 -556 -400c-1 -3 -1 -5 2 -5c56 33 109 62 138 62c51 0 144 -78 178 -78c35 9 75 50 116 86l6 -6
c-34 -34 -123 -112 -152 -136c-9 -7 -53 -5 -58 0c-24 11 -117 74 -176 74c-42 0 -76 -15 -131 -73c-21 -21 -46 -2 -19 20c80 58 155 113 226 164c120 88 258 189 321 239z" />
    <glyph glyph-name="Zdotaccent" unicode="&#x17b;" horiz-adv-x="892" 
d="M681 956c0 32 25 58 57 58s58 -26 58 -58s-26 -57 -58 -57s-57 25 -57 57zM553 53c120 3 131 7 211 223c16 43 38 59 66 59c31 0 37 -23 16 -62c-85 -155 -240 -276 -382 -276c-176 0 -345 45 -500 32c-19 0 27 53 48 53c292 0 482 552 894 652c-7 -1 -14 -2 -29 -2
c-110 0 -288 65 -394 65c-102 0 -121 -7 -190 -183c-17 -43 -33 -56 -64 -56c-33 0 -39 26 -19 62c85 152 227 211 377 211c119 0 227 -43 333 -43c60 0 89 15 96 12c7 -1 -8 -20 -23 -36c-16 -16 -39 -30 -54 -31c-241 -24 -439 -527 -849 -652c139 27 319 -33 463 -28z
" />
    <glyph glyph-name="zdotaccent" unicode="&#x17c;" horiz-adv-x="524" 
d="M416 620c0 32 25 58 57 58s58 -26 58 -58s-26 -57 -58 -57s-57 25 -57 57zM480 428c1 3 0 5 -3 5c-49 -25 -96 -41 -124 -41c-64 0 -120 75 -163 72c-24 -8 -65 -55 -99 -87l-8 5c33 36 98 104 145 135c11 8 50 4 60 2c25 -11 77 -75 156 -75c51 0 76 7 124 58
c13 13 33 -16 17 -21c-65 -36 -380 -272 -556 -400c-1 -3 -1 -5 2 -5c56 33 109 62 138 62c51 0 144 -78 178 -78c35 9 75 50 116 86l6 -6c-34 -34 -123 -112 -152 -136c-9 -7 -53 -5 -58 0c-24 11 -117 74 -176 74c-42 0 -76 -15 -131 -73c-21 -21 -46 -2 -19 20
c80 58 155 113 226 164c120 88 258 189 321 239z" />
    <glyph glyph-name="Zcaron" unicode="&#x17d;" horiz-adv-x="892" 
d="M778 892c1 -3 3 -3 6 0c35 43 103 99 134 122c12 8 24 18 39 17c15 -3 21 -11 20 -18c0 -4 0 -15 -23 -30c-40 -24 -119 -67 -169 -101c-5 -3 -9 -3 -12 1c-44 55 -57 75 -89 107c-19 17 -21 26 -20 33c0 12 11 22 22 21c15 -1 28 -10 37 -27c16 -31 31 -74 55 -125z
M553 53c120 3 131 7 211 223c16 43 38 59 66 59c31 0 37 -23 16 -62c-85 -155 -240 -276 -382 -276c-176 0 -345 45 -500 32c-19 0 27 53 48 53c292 0 482 552 894 652c-7 -1 -14 -2 -29 -2c-110 0 -288 65 -394 65c-102 0 -121 -7 -190 -183c-17 -43 -33 -56 -64 -56
c-33 0 -39 26 -19 62c85 152 227 211 377 211c119 0 227 -43 333 -43c60 0 89 15 96 12c7 -1 -8 -20 -23 -36c-16 -16 -39 -30 -54 -31c-241 -24 -439 -527 -849 -652c139 27 319 -33 463 -28z" />
    </font>
</defs>
</svg>
